<svg width="24" height="21" viewBox="0 0 24 21" fill="none" xmlns="http://www.w3.org/2000/svg">
<mask id="mask0_151_2280" style="mask-type:alpha" maskUnits="userSpaceOnUse" x="0" y="0" width="24" height="21">
<rect width="23.5174" height="20.5785" fill="white"/>
</mask>
<g mask="url(#mask0_151_2280)">
<path d="M5.8786 0.000183105H17.6388V2.93991H5.8786V0.000183105ZM22.0477 4.40956H1.47008C0.658956 4.41212 0.00213116 5.06894 0 5.87964V13.2292C0.0025574 14.0399 0.659382 14.6963 1.47008 14.6988H5.8786V20.5787H17.6388V14.6988H22.0477C22.8584 14.6963 23.5153 14.0394 23.5174 13.2287V5.87964C23.5153 5.06851 22.8584 4.41212 22.0477 4.40956ZM2.93887 8.81851C2.1269 8.81851 1.4688 8.16041 1.4688 7.34843C1.4688 6.53689 2.1269 5.87878 2.93887 5.87878C3.75085 5.87878 4.40895 6.53689 4.40895 7.34843C4.40895 8.16041 3.75085 8.81851 2.93887 8.81851ZM16.1679 19.1086H7.34825V11.7591H16.1679V19.1086Z" fill="white"/>
</g>
</svg>
