<svg width="25" height="28" viewBox="0 0 25 28" fill="none" xmlns="http://www.w3.org/2000/svg">
<mask id="mask0_459_18" style="mask-type:alpha" maskUnits="userSpaceOnUse" x="0" y="0" width="25" height="28">
<path d="M3.44093 23.3924V21.327C3.46399 20.9601 3.75965 20.6644 4.1266 20.6393H6.19199C6.55894 20.6644 6.8546 20.9601 6.87976 21.327V23.3924C6.8546 23.7594 6.55894 24.055 6.19199 24.0781H4.1266C3.75965 24.055 3.46399 23.7594 3.44093 23.3924ZM10.3186 23.3924V21.327C10.3438 20.9601 10.6373 20.6644 11.0085 20.6393H13.0697C13.4408 20.6644 13.7344 20.9601 13.7595 21.327V23.3924C13.7344 23.7594 13.4408 24.055 13.0697 24.0781H11.0085C10.6373 24.055 10.3438 23.7594 10.3186 23.3924ZM3.44093 16.5106V14.4494C3.46399 14.0782 3.75965 13.7847 4.1266 13.7595H6.19199C6.55894 13.7847 6.8546 14.0782 6.87976 14.4494V16.5106C6.8546 16.8817 6.55894 17.1753 6.19199 17.2004H4.1266C3.75965 17.1753 3.46399 16.8817 3.44093 16.5106ZM10.3186 16.5106V14.4494C10.3438 14.0782 10.6373 13.7847 11.0085 13.7595H13.0697C13.4408 13.7847 13.7344 14.0782 13.7595 14.4494V16.5106C13.7344 16.8817 13.4408 17.1753 13.0697 17.2004H11.0085C10.6373 17.1753 10.3438 16.8817 10.3186 16.5106ZM17.2004 23.3924V14.4494C17.2235 14.0782 17.5192 13.7847 17.8861 13.7595H19.9515C20.3185 13.7847 20.6141 14.0782 20.6372 14.4494V23.3924C20.6141 23.7594 20.3185 24.055 19.9515 24.0781H17.8861C17.5192 24.055 17.2235 23.7594 17.2004 23.3924ZM3.44093 9.63292V4.12869C3.46399 3.75965 3.75965 3.46609 4.1266 3.44093H19.9515C20.3185 3.46609 20.6141 3.75965 20.6372 4.12869V9.63292C20.6141 9.99987 20.3185 10.2955 19.9515 10.3186H4.1266C3.75965 10.2955 3.46399 9.99987 3.44093 9.63292ZM2.57912 0C1.17004 0.0335496 0.0335496 1.17004 0 2.58122V24.9399C0.0335496 26.349 1.17004 27.4855 2.57912 27.519H21.499C22.9081 27.4855 24.0446 26.349 24.0781 24.9399V2.58122C24.0446 1.17004 22.9081 0.0335496 21.499 0H2.57912Z" fill="black"/>
</mask>
<g mask="url(#mask0_459_18)">
<rect y="-0.0010376" width="24.0781" height="27.519" fill="white"/>
</g>
</svg>
