<svg width="25" height="29" viewBox="0 0 25 29" fill="none" xmlns="http://www.w3.org/2000/svg">
<mask id="mask0_151_2880" style="mask-type:alpha" maskUnits="userSpaceOnUse" x="0" y="0" width="25" height="29">
<path d="M3.87818 24.1566V22.0912C3.90125 21.7243 4.1969 21.4286 4.56385 21.4034H6.62925C6.9962 21.4286 7.29185 21.7243 7.31701 22.0912V24.1566C7.29185 24.5235 6.9962 24.8192 6.62925 24.8423H4.56385C4.1969 24.8192 3.90125 24.5235 3.87818 24.1566ZM10.7558 24.1566V22.0912C10.781 21.7243 11.0746 21.4286 11.4457 21.4034H13.5069C13.878 21.4286 14.1716 21.7243 14.1968 22.0912V24.1566C14.1716 24.5235 13.878 24.8192 13.5069 24.8423H11.4457C11.0746 24.8192 10.781 24.5235 10.7558 24.1566ZM3.87818 17.2747V15.2135C3.90125 14.8424 4.1969 14.5488 4.56385 14.5237H6.62925C6.9962 14.5488 7.29185 14.8424 7.31701 15.2135V17.2747C7.29185 17.6459 6.9962 17.9394 6.62925 17.9646H4.56385C4.1969 17.9394 3.90125 17.6459 3.87818 17.2747ZM10.7558 17.2747V15.2135C10.781 14.8424 11.0746 14.5488 11.4457 14.5237H13.5069C13.878 14.5488 14.1716 14.8424 14.1968 15.2135V17.2747C14.1716 17.6459 13.878 17.9394 13.5069 17.9646H11.4457C11.0746 17.9394 10.781 17.6459 10.7558 17.2747ZM17.6377 24.1566V15.2135C17.6608 14.8424 17.9564 14.5488 18.3234 14.5237H20.3888C20.7557 14.5488 21.0514 14.8424 21.0744 15.2135V24.1566C21.0514 24.5235 20.7557 24.8192 20.3888 24.8423H18.3234C17.9564 24.8192 17.6608 24.5235 17.6377 24.1566ZM3.87818 10.3971V4.89285C3.90125 4.52381 4.1969 4.23025 4.56385 4.20509H20.3888C20.7557 4.23025 21.0514 4.52381 21.0744 4.89285V10.3971C21.0514 10.764 20.7557 11.0597 20.3888 11.0827H4.56385C4.1969 11.0597 3.90125 10.764 3.87818 10.3971ZM3.01638 0.76416C1.6073 0.79771 0.470805 1.9342 0.437256 3.34538V25.7041C0.470805 27.1131 1.6073 28.2496 3.01638 28.2832H21.9362C23.3453 28.2496 24.4818 27.1131 24.5154 25.7041V3.34538C24.4818 1.9342 23.3453 0.79771 21.9362 0.76416H3.01638Z" fill="black"/>
</mask>
<g mask="url(#mask0_151_2880)">
<rect x="0.437256" y="0.763123" width="24.0781" height="27.519" fill="url(#paint0_linear_151_2880)"/>
</g>
<defs>
<linearGradient id="paint0_linear_151_2880" x1="6.45678" y1="7.64288" x2="6.45678" y2="7.64288" gradientUnits="userSpaceOnUse">
<stop offset="1" stop-color="#FF004B"/>
<stop offset="0.513966" stop-color="#DC0F14"/>
<stop offset="0.456096" stop-color="#E01E11"/>
<stop stop-color="#FF9600"/>
</linearGradient>
</defs>
</svg>
