<svg width="19" height="17" viewBox="0 0 19 17" fill="none" xmlns="http://www.w3.org/2000/svg">
<path d="M16.9649 1.7251C14.9689 0.109102 12.0599 0.321102 10.3189 2.2091L9.61791 2.9331L8.91591 2.2101C7.17491 0.321102 4.26691 0.109102 2.26991 1.7251C0.132908 3.5731 -0.102092 6.8041 1.74591 8.9411C1.80191 9.0061 1.85891 9.0691 1.91791 9.1311L8.80691 16.2461C9.23191 16.6921 9.93691 16.7091 10.3829 16.2841C10.3959 16.2721 10.4079 16.2591 10.4209 16.2461L17.3149 9.1311C19.2679 7.0931 19.1999 3.8581 17.1619 1.9041C17.0979 1.8431 17.0319 1.7831 16.9649 1.7251Z" fill="#C9C9C9"/>
</svg>
