<svg width="39" height="41" viewBox="0 0 39 41" fill="none" xmlns="http://www.w3.org/2000/svg">
<path d="M19.178 25.875C22.2846 25.875 24.803 23.3566 24.803 20.25C24.803 17.1434 22.2846 14.625 19.178 14.625C16.0714 14.625 13.553 17.1434 13.553 20.25C13.553 23.3566 16.0714 25.875 19.178 25.875Z" stroke="#E11C68" stroke-width="3"/>
<path d="M22.4872 1.785C21.7991 1.5 20.9253 1.5 19.1778 1.5C17.4303 1.5 16.5566 1.5 15.8685 1.785C15.4132 1.97346 14.9995 2.2498 14.6511 2.59823C14.3027 2.94666 14.0263 3.36034 13.8378 3.81562C13.6653 4.23375 13.596 4.72312 13.5697 5.43375C13.5575 5.94737 13.4152 6.44949 13.1562 6.89316C12.8971 7.33683 12.5298 7.70755 12.0885 7.97062C11.64 8.22144 11.1352 8.35439 10.6213 8.35701C10.1075 8.35963 9.60137 8.23185 9.15035 7.98562C8.52035 7.65187 8.06472 7.46812 7.61285 7.40812C6.62719 7.27851 5.63041 7.54557 4.8416 8.15062C4.25285 8.60625 3.8141 9.36187 2.94035 10.875C2.0666 12.3881 1.62785 13.1437 1.53222 13.8844C1.46779 14.3727 1.5002 14.869 1.6276 15.3448C1.755 15.8206 1.97489 16.2667 2.27472 16.6575C2.55222 17.0175 2.94035 17.3194 3.54222 17.6981C4.4291 18.255 4.9991 19.2037 4.9991 20.25C4.9991 21.2962 4.4291 22.245 3.54222 22.8C2.94035 23.1806 2.55035 23.4825 2.27472 23.8425C1.97489 24.2333 1.755 24.6794 1.6276 25.1552C1.5002 25.631 1.46779 26.1273 1.53222 26.6156C1.62972 27.3544 2.0666 28.1119 2.93847 29.625C3.8141 31.1381 4.25097 31.8937 4.8416 32.3494C5.23241 32.6492 5.67847 32.8691 6.15429 32.9965C6.63011 33.1239 7.12637 33.1563 7.61472 33.0919C8.06472 33.0319 8.52035 32.8481 9.15035 32.5144C9.60137 32.2681 10.1075 32.1404 10.6213 32.143C11.1352 32.1456 11.64 32.2786 12.0885 32.5294C12.9941 33.0544 13.5322 34.02 13.5697 35.0662C13.596 35.7787 13.6635 36.2662 13.8378 36.6844C14.0263 37.1397 14.3027 37.5533 14.6511 37.9018C14.9995 38.2502 15.4132 38.5265 15.8685 38.715C16.5566 39 17.4303 39 19.1778 39C20.9253 39 21.7991 39 22.4872 38.715C22.9425 38.5265 23.3562 38.2502 23.7046 37.9018C24.053 37.5533 24.3294 37.1397 24.5178 36.6844C24.6903 36.2662 24.7597 35.7787 24.786 35.0662C24.8235 34.02 25.3616 33.0525 26.2672 32.5294C26.7157 32.2786 27.2205 32.1456 27.7343 32.143C28.2482 32.1404 28.7543 32.2681 29.2053 32.5144C29.8353 32.8481 30.291 33.0319 30.741 33.0919C31.2293 33.1563 31.7256 33.1239 32.2014 32.9965C32.6772 32.8691 33.1233 32.6492 33.5141 32.3494C34.1047 31.8956 34.5416 31.1381 35.4153 29.625C36.2891 28.1119 36.7278 27.3562 36.8235 26.6156C36.8879 26.1273 36.8555 25.631 36.7281 25.1552C36.6007 24.6794 36.3808 24.2333 36.081 23.8425C35.8035 23.4825 35.4153 23.1806 34.8135 22.8019C34.3746 22.5345 34.0107 22.1601 33.7559 21.7138C33.5011 21.2675 33.3637 20.7639 33.3566 20.25C33.3566 19.2037 33.9266 18.255 34.8135 17.7C35.4153 17.3194 35.8053 17.0175 36.081 16.6575C36.3808 16.2667 36.6007 15.8206 36.7281 15.3448C36.8555 14.869 36.8879 14.3727 36.8235 13.8844C36.726 13.1456 36.2891 12.3881 35.4172 10.875C34.5416 9.36187 34.1047 8.60625 33.5141 8.15062C33.1233 7.85079 32.6772 7.6309 32.2014 7.5035C31.7256 7.3761 31.2293 7.34369 30.741 7.40812C30.291 7.46812 29.8353 7.65187 29.2035 7.98562C28.7527 8.23152 28.2469 8.35911 27.7334 8.35649C27.2199 8.35387 26.7155 8.22111 26.2672 7.97062C25.8259 7.70755 25.4586 7.33683 25.1995 6.89316C24.9405 6.44949 24.7982 5.94737 24.786 5.43375C24.7597 4.72125 24.6922 4.23375 24.5178 3.81562C24.3294 3.36034 24.053 2.94666 23.7046 2.59823C23.3562 2.2498 22.9425 1.97346 22.4872 1.785Z" stroke="#E11C68" stroke-width="3"/>
</svg>
