<?xml version="1.0" encoding="utf-8"?>
<!-- Generator: Adobe Illustrator 26.0.0, SVG Export Plug-In . SVG Version: 6.00 Build 0)  -->
<svg version="1.1" id="Calque_1" xmlns="http://www.w3.org/2000/svg" xmlns:xlink="http://www.w3.org/1999/xlink" x="0px" y="0px"
	 viewBox="0 0 139.9 141" style="enable-background:new 0 0 139.9 141;" xml:space="preserve">
<style type="text/css">
	.st0{fill:#F5BF2A;}
</style>
<g id="Calque_2_00000106847942851846926870000005933075653860521869_">
	<g id="Calque_1-2">
		<path class="st0" d="M117.1,97.8H60v-4h57.1c2.7,0,4.9-2.2,4.9-4.9l0,0v-66c0-2.7-2.2-4.9-4.9-4.9l0,0H22.7
			c-2.7,0-4.9,2.2-4.9,4.9v66c0,2.7,2.2,4.9,4.9,4.9h7.4v4h-7.4c-4.9,0-8.9-4-8.9-8.9v-66c0-4.9,4-8.9,8.9-8.9h94.4
			c4.9,0,8.9,4,8.9,8.9v66C126,93.8,122,97.8,117.1,97.8z"/>
		<path class="st0" d="M111.3,39.8h-61c-1.1,0-2-0.9-2-2s0.9-2,2-2h61c1.1,0,2,0.9,2,2S112.4,39.8,111.3,39.8z"/>
		<path class="st0" d="M96.4,57.9H27c-1.1,0-2-0.9-2-2s0.9-2,2-2h69.5c1.1,0,2,0.9,2,2S97.6,57.9,96.4,57.9z"/>
		<path class="st0" d="M80.8,77h-37c-1.1,0-2-0.9-2-2s0.9-2,2-2h37c1.1,0,2,0.9,2,2S81.9,77,80.8,77z"/>
		<path class="st0" d="M30.1,127c-0.3,0-0.5,0-0.8-0.2c-0.7-0.3-1.2-1-1.2-1.8V95.8c0-1.1,0.9-2,2-2s2,0.9,2,2v24.5l26.5-25.9
			c0.8-0.8,2.1-0.8,2.8,0c0.8,0.8,0.8,2.1,0,2.8l-29.9,29.3C31.1,126.8,30.6,127,30.1,127z"/>
	</g>
</g>
</svg>
