<svg xmlns="http://www.w3.org/2000/svg" viewBox="0 0 139.85 141"><defs><style>.cls-1{fill:#717070;}</style></defs><g id="Calque_2" data-name="Calque 2"><g id="Calque_1-2" data-name="Calque 1"><path class="cls-1" d="M128.78,104.5H57.6v-5h71.18a6.07,6.07,0,0,0,6.07-6.07V11.07A6.07,6.07,0,0,0,128.78,5H11.07A6.07,6.07,0,0,0,5,11.07V93.43a6.07,6.07,0,0,0,6.07,6.07h9.19v5H11.07A11.09,11.09,0,0,1,0,93.43V11.07A11.09,11.09,0,0,1,11.07,0H128.78a11.09,11.09,0,0,1,11.07,11.07V93.43A11.09,11.09,0,0,1,128.78,104.5Z"/><path class="cls-1" d="M121.5,32.23H45.4a2.5,2.5,0,0,1,0-5h76.1a2.5,2.5,0,1,1,0,5Z"/><path class="cls-1" d="M103,54.75H16.39a2.5,2.5,0,0,1,0-5H103a2.5,2.5,0,0,1,0,5Z"/><path class="cls-1" d="M83.47,78.58H37.36a2.5,2.5,0,0,1,0-5H83.47a2.5,2.5,0,0,1,0,5Z"/><path class="cls-1" d="M20.26,141a2.34,2.34,0,0,1-1-.2,2.49,2.49,0,0,1-1.53-2.3V102a2.5,2.5,0,0,1,5,0v30.56l33.09-32.35a2.5,2.5,0,0,1,3.5,3.58L22,140.29A2.54,2.54,0,0,1,20.26,141Z"/></g></g></svg>