<?xml version="1.0" encoding="utf-8"?>
<!-- Generator: Adobe Illustrator 26.0.0, SVG Export Plug-In . SVG Version: 6.00 Build 0)  -->
<svg version="1.1" id="Calque_1" xmlns="http://www.w3.org/2000/svg" xmlns:xlink="http://www.w3.org/1999/xlink" x="0px" y="0px"
	 viewBox="0 0 24 24" style="enable-background:new 0 0 24 24;" xml:space="preserve">
<style type="text/css">
	.st0{fill:none;stroke:#F5BF2A;stroke-linecap:round;}
	.st1{fill:none;stroke:#F5BF2A;}
</style>
<g>
	<path class="st0" d="M12.5,2c3.3,0,5,0,6,1s1,2.7,1,6v6c0,3.3,0,4.9-1,6s-2.7,1-6,1h-1c-3.3,0-4.9,0-6-1s-1-2.7-1-6V9
		c0-3.3,0-5,1-6s2.7-1,6-1H12.5z M8,15h2 M8,18h2 M14,15h2 M14,18h2"/>
	<path class="st1" d="M15,8c0,1.7-1.3,3-3,3S9,9.7,9,8s1.3-3,3-3S15,6.3,15,8z"/>
</g>
</svg>
