<svg width="24" height="21" viewBox="0 0 24 21" fill="none" xmlns="http://www.w3.org/2000/svg">
<path d="M5.8786 0H17.6388V2.93973H5.8786V0ZM22.0477 4.40938H1.47008C0.658956 4.41193 0.00213116 5.06876 0 5.87945V13.229C0.0025574 14.0397 0.659382 14.6961 1.47008 14.6986H5.8786V20.5785H17.6388V14.6986H22.0477C22.8584 14.6961 23.5153 14.0392 23.5174 13.2286V5.87945C23.5153 5.06833 22.8584 4.41193 22.0477 4.40938ZM2.93887 8.81833C2.1269 8.81833 1.4688 8.16022 1.4688 7.34825C1.4688 6.5367 2.1269 5.8786 2.93887 5.8786C3.75085 5.8786 4.40895 6.5367 4.40895 7.34825C4.40895 8.16022 3.75085 8.81833 2.93887 8.81833ZM16.1679 19.1084H7.34825V11.7589H16.1679V19.1084Z" fill="white"/>
</svg>
