<svg width="27" height="22" viewBox="0 0 27 22" fill="none" xmlns="http://www.w3.org/2000/svg">
<path d="M2.58214 1.68895C2.709 0.97607 3.5609 0.250907 4.28093 0.148604C7.51683 -0.310679 11.7314 0.472923 15.0731 0.130249C15.819 0.0419827 17.0233 1.12966 17.0233 1.82392V4.05082C18.0188 4.11925 18.9738 3.81315 19.8484 4.39741C20.3027 4.70095 24.251 8.63313 24.5087 9.04976C25.1899 10.1519 24.6531 14.2563 24.8506 14.4436C24.9145 14.5045 25.7879 14.2974 25.9762 14.7438C26.1177 15.0793 26.1578 16.7175 25.9345 16.9434C25.5456 17.3366 24.0695 17.0583 23.5027 17.1433C23.2627 22.324 15.7538 22.3269 15.6743 17.1417H10.4094C10.5599 20.3171 6.76778 22.1993 4.21358 20.3021C3.58384 19.8343 2.58214 18.5376 2.58214 17.7497V11.8787H8.85797C9.13924 11.8787 9.06055 10.8891 9.06042 10.6641H0.220262C-0.0758499 10.6641 0.0273977 9.56749 0.0178153 9.31443H10.0726C10.5947 9.31443 10.3779 8.45525 10.4101 8.09975H1.70487C1.01884 8.09975 1.15205 6.61514 1.5699 6.61514H11.6247C11.727 6.61514 11.8805 5.40047 11.4223 5.40047H0.220262C-0.0734205 5.40047 -0.0734205 4.05082 0.220262 4.05082H2.58214C2.67013 3.33524 2.46175 2.36607 2.58214 1.68895ZM22.6918 10.5291L22.5636 9.91502L18.8527 6.20296C18.3617 5.92089 17.5869 6.14196 17.0233 6.07529V10.5291H22.6918ZM5.91697 15.2817C4.28619 15.6556 4.12977 18.5369 6.08257 18.9745C9.06082 19.642 9.28095 14.5104 5.91697 15.2817ZM19.0109 15.2842C16.865 15.7295 17.4468 19.4083 19.8913 19.0036C22.2815 18.6079 21.8251 14.7002 19.0109 15.2842Z" fill="#8D8D8D"/>
</svg>
