<svg xmlns="http://www.w3.org/2000/svg" viewBox="0 0 177.03 138.68"><defs><style>.cls-1{fill:#717070;}</style></defs><g id="Calque_2" data-name="Calque 2"><g id="Calque_1-2" data-name="Calque 1"><path class="cls-1" d="M116.1,138.15a60.64,60.64,0,0,1-33.94-10.32A2.5,2.5,0,0,1,85,123.68,55.93,55.93,0,1,0,64,56.75a2.5,2.5,0,0,1-4.65-1.83,60.94,60.94,0,1,1,56.72,83.23Z"/><path class="cls-1" d="M137,21.41H94.12v-17A4.43,4.43,0,0,1,98.55,0h34A4.43,4.43,0,0,1,137,4.43Z"/><path class="cls-1" d="M159.79,36.62a2.5,2.5,0,0,1-1.63-4.39l7.14-6.14a2.5,2.5,0,1,1,3.26,3.8L161.42,36A2.49,2.49,0,0,1,159.79,36.62Z"/><path class="cls-1" d="M72.75,37.37a2.47,2.47,0,0,1-1.63-.61l-8-6.87a2.5,2.5,0,1,1,3.26-3.8l8,6.88a2.5,2.5,0,0,1,.26,3.52A2.47,2.47,0,0,1,72.75,37.37Z"/><path class="cls-1" d="M142.4,109.67a2.54,2.54,0,0,1-1.84-.81L113.7,79.77a2.47,2.47,0,0,1-.67-1.69V46.26a2.5,2.5,0,1,1,5,0V77.1l26.21,28.37a2.51,2.51,0,0,1-.14,3.53A2.47,2.47,0,0,1,142.4,109.67Z"/><path class="cls-1" d="M94.17,85.87H23.83a2.5,2.5,0,0,1,0-5H94.17a2.5,2.5,0,1,1,0,5Z"/><path class="cls-1" d="M81,111.1H2.5a2.5,2.5,0,0,1,0-5H81a2.5,2.5,0,0,1,0,5Z"/><path class="cls-1" d="M30.29,138.68c-12.73,0-13.2-.45-14-1.2a2.62,2.62,0,0,1-.77-1.83,2.5,2.5,0,0,1,2.5-2.5H67a2.5,2.5,0,0,1,.06,5c-.12,0-12.11.29-24.08.44C37.78,138.65,33.62,138.68,30.29,138.68Z"/></g></g></svg>