<?xml version="1.0" encoding="utf-8"?>
<!-- Generator: Adobe Illustrator 26.0.0, SVG Export Plug-In . SVG Version: 6.00 Build 0)  -->
<svg version="1.1" id="Calque_1" xmlns="http://www.w3.org/2000/svg" xmlns:xlink="http://www.w3.org/1999/xlink" x="0px" y="0px"
	 viewBox="0 0 177 138.7" style="enable-background:new 0 0 177 138.7;" xml:space="preserve">
<style type="text/css">
	.st0{fill:#DF4D34;}
</style>
<g id="Calque_2_00000040568686062310285070000001811356931916080798_">
	<g id="Calque_1-2">
		<path class="st0" d="M116.1,138.1c-12.1,0-23.9-3.6-33.9-10.3c-1.1-0.8-1.4-2.3-0.7-3.5s2.3-1.4,3.5-0.7
			c25.7,17.2,60.4,10.2,77.6-15.4s10.2-60.4-15.4-77.6S86.7,20.4,69.6,46.1c-2.2,3.3-4.1,6.9-5.6,10.6c-0.5,1.3-2,1.8-3.3,1.3
			c-1.2-0.5-1.8-1.9-1.4-3.1c12.3-31.3,47.7-46.7,79-34.4s46.7,47.7,34.4,79C163.6,122.8,141.1,138.1,116.1,138.1L116.1,138.1z"/>
		<path class="st0" d="M137,21.4H94.1v-17c0-2.4,2-4.4,4.4-4.4h34c2.4,0,4.4,2,4.4,4.4c0,0,0,0,0,0V21.4z"/>
		<path class="st0" d="M159.8,36.6c-1.4,0-2.5-1.1-2.5-2.5c0-0.7,0.3-1.4,0.9-1.9l7.1-6.1c1-0.9,2.6-0.8,3.5,0.3s0.8,2.6-0.3,3.5
			l0,0l-7.1,6.1C161,36.4,160.4,36.6,159.8,36.6z"/>
		<path class="st0" d="M72.8,37.4c-0.6,0-1.2-0.2-1.6-0.6l-8-6.9c-1-0.9-1.2-2.5-0.3-3.5c0.9-1,2.5-1.2,3.5-0.3l0,0l8,6.9
			c1,0.9,1.2,2.5,0.3,3.5C74.2,37,73.5,37.4,72.8,37.4z"/>
		<path class="st0" d="M142.4,109.7c-0.7,0-1.4-0.3-1.8-0.8l-26.9-29.1c-0.4-0.5-0.7-1.1-0.7-1.7V46.3c0-1.4,1.1-2.5,2.5-2.5
			s2.5,1.1,2.5,2.5v30.8l26.2,28.4c0.9,1,0.9,2.6-0.1,3.5C143.6,109.4,143,109.7,142.4,109.7z"/>
		<path class="st0" d="M94.2,85.9H23.8c-1.4,0-2.5-1.1-2.5-2.5s1.1-2.5,2.5-2.5h70.3c1.4,0,2.5,1.1,2.5,2.5S95.6,85.9,94.2,85.9z"/>
		<path class="st0" d="M81,111.1H2.5c-1.4,0-2.5-1.1-2.5-2.5s1.1-2.5,2.5-2.5H81c1.4,0,2.5,1.1,2.5,2.5S82.4,111.1,81,111.1z"/>
		<path class="st0" d="M30.3,138.7c-12.7,0-13.2-0.4-14-1.2c-0.5-0.5-0.8-1.1-0.8-1.8c0-1.4,1.1-2.5,2.5-2.5h49
			c1.4,0,2.5,1.1,2.5,2.5s-1.1,2.5-2.5,2.5c-0.1,0-12.1,0.3-24.1,0.4C37.8,138.6,33.6,138.7,30.3,138.7z"/>
	</g>
</g>
</svg>
