<svg xmlns="http://www.w3.org/2000/svg" viewBox="0 0 171.85 136.42"><defs><style>.cls-1{fill:#717070;}</style></defs><g id="Calque_2" data-name="Calque 2"><g id="Calque_1-2" data-name="Calque 1"><path class="cls-1" d="M137.64,83.07H95.72a2.5,2.5,0,0,1,0-5h41.92a5.11,5.11,0,0,0,5.1-5.1v-43a2.5,2.5,0,0,1,4.32-1.71l6.26,6.61,12.05-5.77-20-24h-11.9c-1.52,5.47-6,13.21-15.26,13.34C108.45,18.93,104,10.82,102.64,5H90.83l-20,24.05,12.06,5.77,6.26-6.61a2.49,2.49,0,0,1,4.31,1.71V45.46a2.5,2.5,0,1,1-5,0V36.2l-3.19,3.38a2.52,2.52,0,0,1-2.9.54l-16.6-7.94a2.51,2.51,0,0,1-.84-3.86L87.73.9A2.51,2.51,0,0,1,89.65,0h15.09a2.51,2.51,0,0,1,2.48,2.21c.06.47,1.48,11.71,10.7,11.14h.13c9-.09,10.83-10.78,10.9-11.23A2.52,2.52,0,0,1,131.42,0H146.5a2.49,2.49,0,0,1,1.92.9l22.85,27.42a2.49,2.49,0,0,1-.84,3.86l-16.6,7.94a2.51,2.51,0,0,1-2.89-.54l-3.2-3.38V73A10.11,10.11,0,0,1,137.64,83.07Z"/><path class="cls-1" d="M42.13,99.49H2.5a2.5,2.5,0,0,1-2-4L35.15,51.83a2.5,2.5,0,0,1,2-.95h91a2.5,2.5,0,0,1,1.5,4.5L105.65,73.45a2.5,2.5,0,1,1-3-4l18-13.58H38.32L7.68,94.49H42.13a2.5,2.5,0,1,1,0,5Z"/><path class="cls-1" d="M140.16,136.42H49.3a2.47,2.47,0,0,1-1.19-.3L3.22,112a2.5,2.5,0,0,1,1.18-4.7H77.33a2.46,2.46,0,0,1,.89.16l62.84,24.13a2.5,2.5,0,0,1-.9,4.84Zm-90.23-5h76.75L76.86,112.29H14.33Z"/><path class="cls-1" d="M69.55,53.86a2.49,2.49,0,0,1-1.83-.79L51.05,35.24,38.8,36.68a2.53,2.53,0,0,1-1.94-.6L12.77,14.87a2.5,2.5,0,0,1,1.44-4.37l23.16-2a2.56,2.56,0,0,1,1.89.64L60,27.91a2.49,2.49,0,0,1-1.3,4.32l-3.17.48,0,.06,15.8,16.88a2.5,2.5,0,0,1-1.83,4.21ZM20.47,15,37.88,30.32l.1,0,14.76-2.22-16-14.49Z"/><path class="cls-1" d="M79.19,99.34a2,2,0,0,1-1.54-.72,2,2,0,0,1,.26-2.81c1.77-1.48,1.33-6.89-.09-11.06-2.35-6.88,2.46-13.81,2.67-14.1A2,2,0,0,1,83.76,73h0c0,.06-3.84,5.58-2.16,10.51.4,1.15,3.71,11.38-1.13,15.42A2,2,0,0,1,79.19,99.34Z"/><path class="cls-1" d="M65.39,99.34a2,2,0,0,1-1.28-3.53c2-1.69,1.5-8,0-10.76-2.76-5.17,1.91-13.35,2.45-14.27a2,2,0,0,1,3.45,2c-1.6,2.72-3.66,7.93-2.37,10.34,1.87,3.49,3.21,12.21-1,15.72A2,2,0,0,1,65.39,99.34Z"/><path class="cls-1" d="M51.6,99.34a2,2,0,0,1-1.28-3.53c2-1.69,1.5-8,0-10.76-2.76-5.17,1.91-13.35,2.45-14.27a2,2,0,1,1,3.44,2c-1.6,2.72-3.66,7.93-2.37,10.34,1.87,3.49,3.21,12.21-1,15.72A2,2,0,0,1,51.6,99.34Z"/></g></g></svg>