<?xml version="1.0" encoding="utf-8"?>
<!-- Generator: Adobe Illustrator 26.0.0, SVG Export Plug-In . SVG Version: 6.00 Build 0)  -->
<svg version="1.1" id="Calque_1" xmlns="http://www.w3.org/2000/svg" xmlns:xlink="http://www.w3.org/1999/xlink" x="0px" y="0px"
	 viewBox="0 0 38 38" style="enable-background:new 0 0 38 38;" xml:space="preserve">
<style type="text/css">
	.st0{fill-rule:evenodd;clip-rule:evenodd;fill:#F5BF2A;}
</style>
<path class="st0" d="M0.1,6.1C0,6.8,0,7.6,0,9.3v13.2c0,7.1,0,10.6,2.2,12.8s5.7,2.2,12.8,2.2h7.5c7.1,0,10.6,0,12.8-2.2
	s2.2-5.7,2.2-12.8v-4.1c0-4.9,0-7.4-1.4-9C36,9.3,35.8,9.1,35.7,9c-1.6-1.4-4.1-1.4-9-1.4H26c-2.2,0-3.2,0-4.3-0.3
	c-0.6-0.2-1.1-0.4-1.6-0.7c-0.9-0.5-1.7-1.3-3.2-2.8l-1-1c-0.5-0.5-0.8-0.8-1-1c-1.2-1-2.6-1.6-4.1-1.7C10.4,0,10,0,9.3,0
	C7.6,0,6.8,0,6.1,0.1c-1.5,0.3-2.8,1-3.9,2.1S0.4,4.6,0.1,6.1z M23.4,17.7c0.1,0.1,0.3,0.3,0.3,0.4c0.1,0.2,0.1,0.3,0.1,0.5
	s0,0.4-0.1,0.5c-0.1,0.2-0.2,0.3-0.3,0.5l-5,5.6c-0.1,0.1-0.3,0.3-0.5,0.3c-0.2,0.1-0.4,0.1-0.6,0.1s-0.4,0-0.6-0.1
	s-0.3-0.2-0.5-0.3l-2.5-2.8c-0.2-0.3-0.4-0.6-0.4-1s0.2-0.7,0.5-1s0.6-0.4,1-0.4s0.7,0.2,1,0.5l1.4,1.6l3.9-4.4
	c0.1-0.1,0.3-0.3,0.4-0.3c0.2-0.1,0.3-0.1,0.5-0.1s0.4,0,0.5,0.1S23.3,17.6,23.4,17.7z"/>
</svg>
