<svg width="45" height="45" viewBox="0 0 45 45" fill="none" xmlns="http://www.w3.org/2000/svg">
<path d="M41.25 15.3037V15.4406C41.25 17.0531 41.25 17.8612 40.8619 18.5212C40.4737 19.1812 39.7669 19.5731 38.3569 20.3587L36.87 21.1837C37.8937 17.7187 38.2369 13.9949 38.3625 10.8112L38.3812 10.3968L38.385 10.2993C39.6056 10.7231 40.2919 11.0399 40.7194 11.6324C41.25 12.3693 41.25 13.3481 41.25 15.3037ZM3.75 15.3037V15.4406C3.75 17.0531 3.75 17.8612 4.13813 18.5212C4.52625 19.1812 5.23312 19.5731 6.64313 20.3587L8.13188 21.1837C7.10625 17.7187 6.76312 13.9949 6.6375 10.8112L6.61875 10.3968L6.61688 10.2993C5.39438 10.7231 4.70812 11.0399 4.28062 11.6324C3.75 12.3693 3.75 13.3499 3.75 15.3037Z" fill="#F5BF2A"/>
<path fill-rule="evenodd" clip-rule="evenodd" d="M22.4999 3.75006C25.8449 3.75006 28.5993 4.04443 30.7068 4.40068C32.8424 4.76068 33.9093 4.94068 34.8018 6.03943C35.6943 7.13818 35.6456 8.32506 35.5518 10.6988C35.2293 18.8532 33.4706 29.0363 23.9062 29.9363V36.5626H26.5874C27.0207 36.5628 27.4406 36.7131 27.7756 36.988C28.1106 37.2628 28.34 37.6452 28.4249 38.0701L28.7812 39.8438H33.7499C34.1229 39.8438 34.4806 39.992 34.7443 40.2557C35.008 40.5194 35.1562 40.8771 35.1562 41.2501C35.1562 41.623 35.008 41.9807 34.7443 42.2444C34.4806 42.5082 34.1229 42.6563 33.7499 42.6563H11.2499C10.877 42.6563 10.5193 42.5082 10.2556 42.2444C9.99186 41.9807 9.8437 41.623 9.8437 41.2501C9.8437 40.8771 9.99186 40.5194 10.2556 40.2557C10.5193 39.992 10.877 39.8438 11.2499 39.8438H16.2187L16.5749 38.0701C16.6599 37.6452 16.8893 37.2628 17.2243 36.988C17.5593 36.7131 17.9791 36.5628 18.4124 36.5626H21.0937V29.9363C11.5312 29.0363 9.77245 18.8513 9.44995 10.6988C9.35432 8.32506 9.30745 7.13631 10.1999 6.03943C11.0906 4.94068 12.1574 4.76068 14.2931 4.40068C17.0059 3.9563 19.751 3.73867 22.4999 3.75006ZM24.2849 11.6232L24.1012 11.2932C23.3887 10.0126 23.0324 9.37506 22.4999 9.37506C21.9674 9.37506 21.6112 10.0126 20.8987 11.2932L20.7149 11.6232C20.5124 11.9869 20.4112 12.1669 20.2537 12.2869C20.0943 12.4069 19.8974 12.4519 19.5037 12.5401L19.1474 12.6226C17.7637 12.9357 17.0718 13.0913 16.9068 13.6201C16.7418 14.1488 17.2143 14.7019 18.1574 15.8044L18.4012 16.0894C18.6693 16.4026 18.8043 16.5582 18.8643 16.7532C18.9243 16.9482 18.9037 17.1563 18.8643 17.5744L18.8268 17.9551C18.6843 19.4269 18.6131 20.1638 19.0424 20.4901C19.4737 20.8163 20.1224 20.5182 21.4181 19.9219L21.7518 19.7682C22.1212 19.5994 22.3049 19.5151 22.4999 19.5151C22.6949 19.5151 22.8787 19.5994 23.2481 19.7682L23.5818 19.9219C24.8774 20.5201 25.5262 20.8163 25.9574 20.4901C26.3887 20.1638 26.3156 19.4269 26.1731 17.9551L26.1356 17.5744C26.0962 17.1563 26.0756 16.9482 26.1356 16.7532C26.1956 16.5582 26.3306 16.4026 26.5987 16.0894L26.8424 15.8044C27.7856 14.7019 28.2581 14.1507 28.0931 13.6201C27.9281 13.0913 27.2362 12.9357 25.8524 12.6226L25.4962 12.5401C25.1024 12.4519 24.9056 12.4088 24.7462 12.2869C24.5887 12.1669 24.4874 11.9869 24.2849 11.6232Z" fill="#F5BF2A"/>
</svg>
