<?xml version="1.0" encoding="utf-8"?>
<!-- Generator: Adobe Illustrator 26.0.0, SVG Export Plug-In . SVG Version: 6.00 Build 0)  -->
<svg version="1.1" id="Calque_1" xmlns="http://www.w3.org/2000/svg" xmlns:xlink="http://www.w3.org/1999/xlink" x="0px" y="0px"
	 viewBox="0 0 38 30" style="enable-background:new 0 0 38 30;" xml:space="preserve">
<style type="text/css">
	.st0{fill:#F5BF2A;}
</style>
<path class="st0" d="M25.3,6.6c0,0.9-0.2,1.7-0.5,2.5s-0.8,1.5-1.4,2.1s-1.3,1.1-2.1,1.4c-0.8,0.3-1.6,0.5-2.5,0.5S17,13,16.2,12.6
	c-0.8-0.3-1.5-0.8-2.1-1.4S13,9.9,12.7,9.1c-0.3-0.8-0.5-1.6-0.5-2.5c0-1.7,0.7-3.4,1.9-4.6c1.2-1.3,2.9-2,4.7-2s3.4,0.7,4.6,1.9
	C24.6,3.2,25.3,4.8,25.3,6.6z M30,23.4C30,27,25,30,18.8,30S7.5,27.1,7.5,23.4s5-6.6,11.2-6.6S30,19.8,30,23.4z M9.6,1.9
	c0.3,0,0.7,0,1,0.1C9.8,3.4,9.4,5,9.4,6.6s0.4,3.2,1.1,4.5c-0.3,0.1-0.6,0.1-0.9,0.1c-2.7,0-4.8-2.1-4.8-4.6S7,1.9,9.6,1.9z
	 M6.5,28.1c-1.1-1.3-1.8-2.8-1.8-4.7c0-1.8,0.7-3.3,1.7-4.5C2.8,19.2,0,21.1,0,23.5S2.8,27.9,6.5,28.1z M28.1,6.6
	c0,1.6-0.4,3.2-1.1,4.5c0.3,0.1,0.6,0.1,0.9,0.1c2.7,0,4.8-2.1,4.8-4.6S30.6,2,27.9,2c-0.3,0-0.7,0-1,0.1
	C27.7,3.3,28.1,4.9,28.1,6.6z M31,28.1c3.6-0.2,6.5-2.2,6.5-4.6s-2.8-4.3-6.4-4.6c1,1.3,1.7,2.8,1.7,4.5
	C32.8,25.3,32.1,26.8,31,28.1z"/>
</svg>
