<svg width="34" height="38" viewBox="0 0 34 38" fill="none" xmlns="http://www.w3.org/2000/svg">
<path fill-rule="evenodd" clip-rule="evenodd" d="M2.1975 2.1975C-2.23517e-07 4.39313 0 7.92938 0 15V22.5C0 29.5706 -2.23517e-07 33.1069 2.1975 35.3025C4.395 37.4981 7.92938 37.5 15 37.5H18.75C25.8206 37.5 29.3569 37.5 31.5525 35.3025C33.7481 33.105 33.75 29.5706 33.75 22.5V15C33.75 7.92938 33.75 4.39313 31.5525 2.1975C29.355 0.00187486 25.8206 0 18.75 0H15C7.92938 0 4.39313 -2.23517e-07 2.1975 2.1975ZM7.96875 11.25C7.96875 10.877 8.11691 10.5194 8.38063 10.2556C8.64435 9.99191 9.00204 9.84375 9.375 9.84375H24.375C24.748 9.84375 25.1056 9.99191 25.3694 10.2556C25.6331 10.5194 25.7812 10.877 25.7812 11.25C25.7812 11.623 25.6331 11.9806 25.3694 12.2444C25.1056 12.5081 24.748 12.6562 24.375 12.6562H9.375C9.00204 12.6562 8.64435 12.5081 8.38063 12.2444C8.11691 11.9806 7.96875 11.623 7.96875 11.25ZM7.96875 18.75C7.96875 18.377 8.11691 18.0194 8.38063 17.7556C8.64435 17.4919 9.00204 17.3438 9.375 17.3438H24.375C24.748 17.3438 25.1056 17.4919 25.3694 17.7556C25.6331 18.0194 25.7812 18.377 25.7812 18.75C25.7812 19.123 25.6331 19.4806 25.3694 19.7444C25.1056 20.0081 24.748 20.1562 24.375 20.1562H9.375C9.00204 20.1562 8.64435 20.0081 8.38063 19.7444C8.11691 19.4806 7.96875 19.123 7.96875 18.75ZM9.375 24.8438C9.00204 24.8438 8.64435 24.9919 8.38063 25.2556C8.11691 25.5194 7.96875 25.877 7.96875 26.25C7.96875 26.623 8.11691 26.9806 8.38063 27.2444C8.64435 27.5081 9.00204 27.6562 9.375 27.6562H18.75C19.123 27.6562 19.4806 27.5081 19.7444 27.2444C20.0081 26.9806 20.1562 26.623 20.1562 26.25C20.1562 25.877 20.0081 25.5194 19.7444 25.2556C19.4806 24.9919 19.123 24.8438 18.75 24.8438H9.375Z" fill="#F5BF2A"/>
</svg>
