<svg width="38" height="38" viewBox="0 0 38 38" fill="none" xmlns="http://www.w3.org/2000/svg">
<path fill-rule="evenodd" clip-rule="evenodd" d="M0.13125 6.10875C-1.25729e-07 6.79875 0 7.6275 0 9.28125V22.5C0 29.5706 -2.23517e-07 33.1069 2.1975 35.3025C4.395 37.4981 7.92938 37.5 15 37.5H22.5C29.5706 37.5 33.1069 37.5 35.3025 35.3025C37.4981 33.105 37.5 29.5706 37.5 22.5V18.3713C37.5 13.4363 37.5 10.9669 36.0562 9.36375C35.9238 9.21581 35.7836 9.07499 35.6362 8.94188C34.0331 7.5 31.5637 7.5 26.6287 7.5H25.9275C23.7656 7.5 22.6838 7.5 21.675 7.21313C21.1214 7.05488 20.5879 6.83343 20.085 6.55312C19.17 6.045 18.405 5.27812 16.875 3.75L15.8438 2.71875C15.33 2.205 15.075 1.95 14.805 1.725C13.6437 0.762449 12.2193 0.172395 10.7175 0.0318749C10.3688 -7.68341e-08 10.005 0 9.28125 0C7.62562 0 6.79875 -1.25729e-07 6.10875 0.13125C4.6272 0.411045 3.26437 1.13088 2.19807 2.19685C1.13177 3.26281 0.411509 4.62729 0.13125 6.10875ZM23.4338 17.6962C23.5722 17.8189 23.6851 17.9676 23.766 18.1339C23.8468 18.3002 23.8941 18.4809 23.9051 18.6655C23.9161 18.8501 23.8905 19.0351 23.8299 19.2098C23.7693 19.3845 23.6748 19.5456 23.5519 19.6838L18.5513 25.3088C18.4193 25.4571 18.2575 25.5759 18.0763 25.6572C17.8952 25.7386 17.6989 25.7806 17.5003 25.7806C17.3018 25.7806 17.1054 25.7386 16.9243 25.6572C16.7432 25.5759 16.5813 25.4571 16.4494 25.3088L13.9481 22.4963C13.7002 22.2173 13.5733 21.8513 13.5953 21.4787C13.6173 21.1061 13.7863 20.7576 14.0653 20.5097C14.3443 20.2618 14.7103 20.1349 15.0829 20.1569C15.4554 20.1788 15.804 20.3479 16.0519 20.6269L17.4994 22.2581L21.4481 17.8144C21.5708 17.6759 21.7195 17.563 21.8858 17.4822C22.0521 17.4013 22.2328 17.354 22.4174 17.343C22.602 17.3321 22.787 17.3576 22.9617 17.4182C23.1364 17.4788 23.2956 17.5733 23.4338 17.6962Z" fill="#F5BF2A"/>
</svg>
