<svg width="38" height="30" viewBox="0 0 38 30" fill="none" xmlns="http://www.w3.org/2000/svg">
<path d="M25.3125 6.5625C25.3125 7.4243 25.1428 8.27766 24.813 9.07386C24.4832 9.87006 23.9998 10.5935 23.3904 11.2029C22.781 11.8123 22.0576 12.2957 21.2614 12.6255C20.4652 12.9553 19.6118 13.125 18.75 13.125C17.8882 13.125 17.0348 12.9553 16.2386 12.6255C15.4424 12.2957 14.719 11.8123 14.1096 11.2029C13.5002 10.5935 13.0168 9.87006 12.687 9.07386C12.3572 8.27766 12.1875 7.4243 12.1875 6.5625C12.1875 4.82202 12.8789 3.15282 14.1096 1.92211C15.3403 0.691405 17.0095 0 18.75 0C20.4905 0 22.1597 0.691405 23.3904 1.92211C24.6211 3.15282 25.3125 4.82202 25.3125 6.5625ZM30 23.4375C30 27.0619 24.9637 30 18.75 30C12.5363 30 7.5 27.0619 7.5 23.4375C7.5 19.8131 12.5363 16.875 18.75 16.875C24.9637 16.875 30 19.8131 30 23.4375ZM9.60375 1.875C9.9375 1.875 10.2612 1.90625 10.575 1.96875C9.78746 3.37167 9.37421 4.95365 9.375 6.5625C9.375 8.19 9.78938 9.72188 10.5188 11.055C10.2225 11.1112 9.9175 11.1394 9.60375 11.1394C6.9525 11.1394 4.80187 9.06563 4.80187 6.50813C4.80187 3.95063 6.9525 1.875 9.60375 1.875ZM6.46313 28.0988C5.4 26.8256 4.6875 25.2638 4.6875 23.4375C4.6875 21.6675 5.35687 20.145 6.3675 18.8944C2.79375 19.1719 0 21.1256 0 23.4919C0 25.8825 2.84438 27.8512 6.46313 28.0988ZM28.125 6.5625C28.125 8.19 27.7106 9.72188 26.9812 11.055C27.2762 11.1112 27.5813 11.1394 27.8962 11.1394C30.5475 11.1394 32.6963 9.06563 32.6963 6.50813C32.6963 3.95063 30.5494 1.875 27.8981 1.875C27.5644 1.875 27.2406 1.90625 26.9269 1.96875C27.69 3.32625 28.125 4.89375 28.125 6.5625ZM31.0369 28.0988C34.6556 27.8512 37.5 25.8825 37.5 23.4919C37.5 21.1237 34.7044 19.1719 31.1325 18.8944C32.145 20.145 32.8125 21.6675 32.8125 23.4375C32.8125 25.2638 32.1 26.8256 31.0369 28.0988Z" fill="#F5BF2A"/>
</svg>
