<svg xmlns="http://www.w3.org/2000/svg" viewBox="0 0 166.15 137.46"><defs><style>.cls-1{fill:#717070;}</style></defs><g id="Calque_2" data-name="Calque 2"><g id="Calque_1-2" data-name="Calque 1"><path class="cls-1" d="M138.41,5a22.75,22.75,0,0,1,0,45.49H27.74A22.75,22.75,0,0,1,27.74,5H138.41m0-5H27.74a27.75,27.75,0,0,0,0,55.49H138.41a27.75,27.75,0,0,0,0-55.49Z"/><path class="cls-1" d="M27.14,15.14c6.19,0,11.22,5.65,11.22,12.6s-5,12.61-11.22,12.61S15.93,34.7,15.93,27.74s5-12.6,11.21-12.6m0-5c-8.95,0-16.21,7.88-16.21,17.6s7.26,17.61,16.21,17.61,16.22-7.88,16.22-17.61-7.26-17.6-16.22-17.6Z"/><path class="cls-1" d="M68.11,108.16H28.77C13,108.16.15,95.61.15,80.17V78.73c0-15.44,12.84-28,28.62-28H137.39c15.78,0,28.62,12.55,28.62,28v1.44a28,28,0,0,1-16.69,25.45l-2-4.56A23,23,0,0,0,161,80.17V78.73c0-12.68-10.6-23-23.62-23H28.77c-13,0-23.62,10.31-23.62,23v1.44c0,12.68,10.6,23,23.62,23H68.11Z"/><path class="cls-1" d="M26.77,66.11c6.39,0,11.59,5.82,11.59,13s-5.2,13-11.59,13-11.59-5.82-11.59-13,5.2-13,11.59-13m0-5c-9.16,0-16.59,8-16.59,18s7.43,18,16.59,18,16.59-8,16.59-18-7.43-18-16.59-18Z"/><path class="cls-1" d="M150.15,137.46H68.69a2.52,2.52,0,0,1-2.5-2.69C71,69.65,40.1,55.67,39.78,55.53a2.5,2.5,0,1,1,2-4.59c1.39.59,33.65,15.16,29.61,81.52h76.53C148.82,121.88,151.16,75.6,124,55a2.5,2.5,0,1,1,3-4c33,25,25.93,81.88,25.62,84.29A2.49,2.49,0,0,1,150.15,137.46Z"/><path class="cls-1" d="M129.54,85.06H81.72a2.5,2.5,0,0,1,0-5h47.82a2.5,2.5,0,0,1,0,5Z"/><path class="cls-1" d="M134.08,112.79H86.26a2.5,2.5,0,0,1,0-5h47.82a2.5,2.5,0,0,1,0,5Z"/></g></g></svg>