<?xml version="1.0" encoding="utf-8"?>
<!-- Generator: Adobe Illustrator 26.0.0, SVG Export Plug-In . SVG Version: 6.00 Build 0)  -->
<svg version="1.1" id="Calque_1" xmlns="http://www.w3.org/2000/svg" xmlns:xlink="http://www.w3.org/1999/xlink" x="0px" y="0px"
	 viewBox="0 0 167.9 956.8" style="enable-background:new 0 0 167.9 956.8;" xml:space="preserve">
<style type="text/css">
	.st0{fill:url(#SVGID_1_);}
</style>
<g id="Calque_2_00000131346464740299345180000008098276963442418068_">
	<g id="Calque_1-2">
		<g>
			<linearGradient id="SVGID_1_" gradientUnits="userSpaceOnUse" x1="1.290347e-04" y1="478.3849" x2="167.8564" y2="478.3849">
				<stop  offset="0" style="stop-color:#E12948"/>
				<stop  offset="1" style="stop-color:#F5BF2A"/>
			</linearGradient>
			<path class="st0" d="M83.9,956.8l0-10c30.2,0,57.1-18.1,68.4-46.1c7.4-18.3,7.3-38.4-0.4-56.6c-7.7-18.2-22-32.3-40.3-39.7
				c-8.4-3.4-17.2-5.2-26.2-5.4v0l-2.4,0l0,0l-1.9-0.1c-0.4,0-0.9,0-1.5,0l-0.4,0l-4.1-0.3l-4.1-0.5l-1.9-0.3
				C29.5,790.6,0.4,756.2,0,715.9c-0.2-22.4,8.3-43.5,24-59.5c15.7-16,36.7-24.9,59.1-25.1c0.1,0,0.3,0,0.4,0
				c9.7,0,19.1-1.8,28.1-5.4c28-11.3,46.1-38.2,46.2-68.5c0-40.8-33.1-73.9-73.9-74l-5,0v-0.2c-32.2-1.9-60.4-22-72.7-52.2
				c-17.4-42.9,3.4-91.9,46.2-109.3c10.3-4.1,21.1-6.2,32.2-6.1l1.3,0c0.7-0.1,1.4-0.1,2-0.1l3.6-0.3l3.6-0.5l1.8-0.3
				c35-6.2,60.6-36.5,60.9-72.1c0.2-19.7-7.3-38.4-21.2-52.4s-32.3-21.9-52-22.1c-11.1,0.1-21.9-2-32.2-6.1
				C20.6,148.8,0.1,118.3,0.1,84c0-22.4,8.7-43.5,24.5-59.3C40.4,8.8,61.5,0,83.9,0l0,10C43.2,10,10,43.2,10.1,84
				c0,30.2,18.1,57.1,46.2,68.5c9.1,3.6,18.6,5.5,28.4,5.4c22.5,0.2,43.5,9.1,59.2,25.1s24.2,37.1,24,59.5
				c-0.4,40.3-29.4,74.7-69.1,81.8l-2.1,0.4l-4.1,0.5l-4.3,0.3c-0.5,0-1.1,0-1.5,0l-0.3,0l-3.9,0.1l0,0c-9,0.2-17.9,2-26.3,5.4
				c-37.7,15.3-56,58.5-40.7,96.2c11.3,28,38.2,46.1,68.4,46.1l5,0v0.2c43.9,2.6,78.9,39.2,78.9,83.8c0,34.3-20.6,64.8-52.4,77.7
				c-10.3,4.1-21.1,6.2-32.2,6.1c-19.7,0.2-38.1,8-52,22.1S9.8,696.1,10,715.8c0.3,35.5,25.9,65.8,60.9,72l1.8,0.3l3.6,0.5l3.6,0.3
				c0.6,0,1.3,0,2,0.1L84,789c10.8,0,21.3,2.1,31.4,6.1c20.8,8.4,37,24.4,45.8,45.1c8.7,20.6,8.9,43.4,0.5,64.2
				C148.7,936.2,118.2,956.7,83.9,956.8z"/>
		</g>
	</g>
</g>
</svg>
