<svg xmlns="http://www.w3.org/2000/svg" viewBox="0 0 159.78 948.8"><defs><style>.cls-1,.cls-2{fill:none;stroke-width:2px;}.cls-1{stroke:#f5bf2a;}.cls-2{stroke:#e12948;}</style></defs><g id="Calque_2" data-name="Calque 2"><g id="Calque_1-2" data-name="Calque 1"><path class="cls-1" d="M80.66,316.58a80.25,80.25,0,0,0-30.34,5.77,78.89,78.89,0,0,0,29.57,152"/><path class="cls-2" d="M80.66,158.82A78.88,78.88,0,0,1,93.81,315.35l-1.91.34-1.93.25-1.93.24-1.93.15-1.94.15c-.65,0-1.3,0-1.94.06l-3.89.1"/><path class="cls-1" d="M79.89,1A78.91,78.91,0,0,0,50.32,153.05a80.25,80.25,0,0,0,30.34,5.77"/><path class="cls-2" d="M79.12,790a80.18,80.18,0,0,1,30.34,5.77,78.89,78.89,0,0,1-29.57,152"/><path class="cls-1" d="M79.12,632.22A78.88,78.88,0,0,0,66,788.75l1.92.34,1.92.25,1.93.24,1.94.15,1.93.15c.65,0,1.3,0,1.94.06l3.89.1"/><path class="cls-2" d="M79.89,474.4a78.91,78.91,0,0,1,29.57,152.05,80.18,80.18,0,0,1-30.34,5.77"/></g></g></svg>