<?xml version="1.0" encoding="utf-8"?>
<!-- Generator: Adobe Illustrator 26.0.0, SVG Export Plug-In . SVG Version: 6.00 Build 0)  -->
<svg version="1.1" id="Calque_1" xmlns="http://www.w3.org/2000/svg" xmlns:xlink="http://www.w3.org/1999/xlink" x="0px" y="0px"
	 viewBox="0 0 209.5 137" style="enable-background:new 0 0 209.5 137;" xml:space="preserve">
<style type="text/css">
	.st0{fill:#DF4D34;}
</style>
<g id="Calque_2_00000099645254558555716930000014839181528151609763_">
	<g id="Calque_1-2">
		<path class="st0" d="M139.6,110.2H98.9c-1.4,0-2.5-1.1-2.5-2.5s1.1-2.5,2.5-2.5h40.7c1.4,0,2.5,1.1,2.5,2.5S141,110.2,139.6,110.2
			z"/>
		<path class="st0" d="M54.1,110.2H34.1c-1.4,0-2.5-1.1-2.5-2.5s1.1-2.5,2.5-2.5h19.9c1.4,0,2.5,1.1,2.5,2.5S55.4,110.2,54.1,110.2z
			"/>
		<path class="st0" d="M207,110.2h-22.4c-1.4,0-2.5-1.1-2.5-2.5s1.1-2.5,2.5-2.5h19.9V71.7l-13-15.4h-49.8c-1.4,0-2.5-1.1-2.5-2.5
			c0,0,0,0,0,0V5h-105c-1.4,0-2.5-1.1-2.5-2.5S32.8,0,34.2,0h107.5c1.4,0,2.5,1.1,2.5,2.5v48.8h48.5c0.7,0,1.4,0.3,1.9,0.9l14.4,17
			c0.4,0.4,0.6,1,0.6,1.6v36.9C209.5,109,208.4,110.2,207,110.2C207,110.2,207,110.2,207,110.2z"/>
		<path class="st0" d="M192.6,56.3c-1,0-1.8-0.5-2.2-1.4l-19.2-39h-29.5c-1.4,0-2.5-1.1-2.5-2.5s1.1-2.5,2.5-2.5h31.1
			c1,0,1.8,0.5,2.2,1.4l19.9,40.4c0.6,1.2,0.1,2.7-1.1,3.3C193.4,56.2,193,56.3,192.6,56.3z"/>
		<path class="st0" d="M77.1,94.7c10.3,0,18.7,8.3,18.7,18.6c0,10.3-8.3,18.7-18.6,18.7s-18.7-8.3-18.7-18.6c0,0,0,0,0,0
			C58.5,103.1,66.8,94.8,77.1,94.7 M77.1,89.7c-13.1,0-23.6,10.6-23.6,23.7S64,137,77.1,137s23.7-10.6,23.7-23.7
			S90.2,89.7,77.1,89.7L77.1,89.7z"/>
		<path class="st0" d="M161.3,94.7c10.3,0,18.7,8.3,18.7,18.6s-8.3,18.7-18.6,18.7s-18.7-8.3-18.7-18.7l0,0
			C142.7,103.1,151,94.8,161.3,94.7 M161.3,89.7c-13.1,0-23.6,10.6-23.6,23.7s10.6,23.6,23.7,23.6c13.1,0,23.6-10.6,23.6-23.6
			C185,100.3,174.4,89.8,161.3,89.7L161.3,89.7z"/>
		<path class="st0" d="M88.1,29.9H23.2c-1.4,0-2.5-1.1-2.5-2.5s1.1-2.5,2.5-2.5h64.9c1.4,0,2.5,1.1,2.5,2.5S89.4,29.9,88.1,29.9z"/>
		<path class="st0" d="M73.4,56.3H2.5c-1.4,0-2.5-1.1-2.5-2.5s1.1-2.5,2.5-2.5h70.9c1.4,0,2.5,1.1,2.5,2.5S74.8,56.3,73.4,56.3z"/>
		<path class="st0" d="M59.3,81.5H19.5c-1.4,0-2.5-1.1-2.5-2.5s1.1-2.5,2.5-2.5h39.8c1.4,0,2.5,1.1,2.5,2.5S60.7,81.5,59.3,81.5z"/>
	</g>
</g>
</svg>
