<?xml version="1.0" encoding="utf-8"?>
<!-- Generator: Adobe Illustrator 26.0.0, SVG Export Plug-In . SVG Version: 6.00 Build 0)  -->
<svg version="1.1" id="Calque_1" xmlns="http://www.w3.org/2000/svg" xmlns:xlink="http://www.w3.org/1999/xlink" x="0px" y="0px"
	 viewBox="0 0 217.5 145.1" style="enable-background:new 0 0 217.5 145.1;" xml:space="preserve">
<style type="text/css">
	.st0{fill:#717070;stroke:#717070;stroke-width:8;stroke-miterlimit:10;}
</style>
<g id="Calque_2_00000134226526559109239050000001480590749547887747_">
	<g id="Calque_1-2">
		<path class="st0" d="M143.6,114.2h-40.7c-1.4,0-2.5-1.1-2.5-2.5s1.1-2.5,2.5-2.5h40.7c1.4,0,2.5,1.1,2.5,2.5
			S145,114.2,143.6,114.2z"/>
		<path class="st0" d="M58.1,114.2H38.1c-1.4,0-2.5-1.1-2.5-2.5s1.1-2.5,2.5-2.5h19.9c1.4,0,2.5,1.1,2.5,2.5S59.4,114.2,58.1,114.2z
			"/>
		<path class="st0" d="M211,114.2h-22.4c-1.4,0-2.5-1.1-2.5-2.5s1.1-2.5,2.5-2.5h19.9V75.7l-13-15.4h-49.8c-1.4,0-2.5-1.1-2.5-2.5
			c0,0,0,0,0,0V9h-105c-1.4,0-2.5-1.1-2.5-2.5S36.8,4,38.2,4h107.5c1.4,0,2.5,1.1,2.5,2.5v48.8h48.5c0.7,0,1.4,0.3,1.9,0.9l14.4,17
			c0.4,0.4,0.6,1,0.6,1.6v36.9C213.5,113,212.4,114.2,211,114.2C211,114.2,211,114.2,211,114.2z"/>
		<path class="st0" d="M196.6,60.3c-1,0-1.8-0.5-2.2-1.4l-19.2-39h-29.5c-1.4,0-2.5-1.1-2.5-2.5s1.1-2.5,2.5-2.5h31.1
			c1,0,1.8,0.5,2.2,1.4l19.9,40.4c0.6,1.2,0.1,2.7-1.1,3.3C197.4,60.2,197,60.3,196.6,60.3z"/>
		<path class="st0" d="M81.1,98.8c10.3,0,18.7,8.3,18.7,18.6c0,10.3-8.3,18.7-18.6,18.7s-18.7-8.3-18.7-18.6c0,0,0,0,0,0
			C62.5,107.1,70.8,98.8,81.1,98.8 M81.1,93.8c-13.1,0-23.6,10.6-23.6,23.7s10.6,23.7,23.6,23.7s23.7-10.6,23.7-23.7
			S94.2,93.8,81.1,93.8L81.1,93.8z"/>
		<path class="st0" d="M165.3,98.8c10.3,0,18.7,8.3,18.7,18.6s-8.3,18.7-18.6,18.7s-18.7-8.3-18.7-18.7l0,0
			C146.7,107.1,155,98.8,165.3,98.8 M165.3,93.8c-13.1,0-23.6,10.6-23.6,23.7s10.6,23.6,23.7,23.6c13.1,0,23.6-10.6,23.6-23.6
			C189,104.3,178.4,93.8,165.3,93.8L165.3,93.8z"/>
		<path class="st0" d="M92.1,33.9H27.2c-1.4,0-2.5-1.1-2.5-2.5s1.1-2.5,2.5-2.5h64.9c1.4,0,2.5,1.1,2.5,2.5S93.4,33.9,92.1,33.9z"/>
		<path class="st0" d="M77.4,60.3H6.5c-1.4,0-2.5-1.1-2.5-2.5s1.1-2.5,2.5-2.5h70.9c1.4,0,2.5,1.1,2.5,2.5S78.8,60.3,77.4,60.3z"/>
		<path class="st0" d="M63.3,85.5H23.5c-1.4,0-2.5-1.1-2.5-2.5s1.1-2.5,2.5-2.5h39.8c1.4,0,2.5,1.1,2.5,2.5S64.7,85.5,63.3,85.5z"/>
	</g>
</g>
</svg>
