<svg xmlns="http://www.w3.org/2000/svg" viewBox="0 0 209.49 137.04"><defs><style>.cls-1{fill:#717070;}</style></defs><g id="Calque_2" data-name="Calque 2"><g id="Calque_1-2" data-name="Calque 1"><path class="cls-1" d="M139.61,110.16H98.88a2.5,2.5,0,0,1,0-5h40.73a2.5,2.5,0,0,1,0,5Z"/><path class="cls-1" d="M54.06,110.16H34.14a2.5,2.5,0,0,1,0-5H54.06a2.5,2.5,0,0,1,0,5Z"/><path class="cls-1" d="M207,110.16H184.58a2.5,2.5,0,0,1,0-5h19.91V71.68l-13-15.42h-49.8a2.49,2.49,0,0,1-2.5-2.5V5h-105a2.5,2.5,0,0,1,0-5H141.67a2.5,2.5,0,0,1,2.5,2.5V51.26h48.46a2.53,2.53,0,0,1,1.91.89l14.36,17a2.44,2.44,0,0,1,.59,1.61v36.9A2.49,2.49,0,0,1,207,110.16Z"/><path class="cls-1" d="M192.63,56.26a2.5,2.5,0,0,1-2.24-1.39l-19.23-39h-29.5a2.5,2.5,0,0,1,0-5h31.05a2.51,2.51,0,0,1,2.24,1.4l19.93,40.43A2.5,2.5,0,0,1,193.74,56,2.57,2.57,0,0,1,192.63,56.26Z"/><path class="cls-1" d="M77.09,94.75A18.65,18.65,0,1,1,58.45,113.4,18.68,18.68,0,0,1,77.09,94.75m0-5a23.65,23.65,0,1,0,23.65,23.65A23.65,23.65,0,0,0,77.09,89.75Z"/><path class="cls-1" d="M161.33,94.75a18.65,18.65,0,1,1-18.65,18.65,18.67,18.67,0,0,1,18.65-18.65m0-5A23.65,23.65,0,1,0,185,113.4a23.65,23.65,0,0,0-23.64-23.65Z"/><path class="cls-1" d="M88.05,29.9H23.2a2.5,2.5,0,1,1,0-5H88.05a2.5,2.5,0,0,1,0,5Z"/><path class="cls-1" d="M73.4,56.26H2.5a2.5,2.5,0,0,1,0-5H73.4a2.5,2.5,0,0,1,0,5Z"/><path class="cls-1" d="M59.33,81.46H19.49a2.5,2.5,0,1,1,0-5H59.33a2.5,2.5,0,0,1,0,5Z"/></g></g></svg>