<?xml version="1.0" encoding="utf-8"?>
<!-- Generator: Adobe Illustrator 26.0.0, SVG Export Plug-In . SVG Version: 6.00 Build 0)  -->
<svg version="1.1" id="Calque_1" xmlns="http://www.w3.org/2000/svg" xmlns:xlink="http://www.w3.org/1999/xlink" x="0px" y="0px"
	 viewBox="0 0 24 24" style="enable-background:new 0 0 24 24;" xml:space="preserve">
<style type="text/css">
	.st0{fill:#707070;}
</style>
<path class="st0" d="M5,21c-0.5,0-1-0.2-1.4-0.6C3.2,20,3,19.6,3,19V5c0-0.5,0.2-1,0.6-1.4S4.5,3,5,3h6c0.3,0,0.5,0.1,0.7,0.3
	C11.9,3.5,12,3.7,12,4s-0.1,0.5-0.3,0.7C11.5,4.9,11.3,5,11,5H5v14h6c0.3,0,0.5,0.1,0.7,0.3c0.2,0.2,0.3,0.4,0.3,0.7
	s-0.1,0.5-0.3,0.7C11.5,20.9,11.3,21,11,21H5z M17.2,13H10c-0.3,0-0.5-0.1-0.7-0.3C9.1,12.5,9,12.3,9,12s0.1-0.5,0.3-0.7
	C9.5,11.1,9.7,11,10,11h7.2l-1.9-1.9C15.1,8.9,15,8.7,15,8.4c0-0.3,0.1-0.5,0.3-0.7c0.2-0.2,0.4-0.3,0.7-0.3c0.3,0,0.5,0.1,0.7,0.3
	l3.6,3.6c0.2,0.2,0.3,0.4,0.3,0.7s-0.1,0.5-0.3,0.7l-3.6,3.6c-0.2,0.2-0.4,0.3-0.7,0.3c-0.3,0-0.5-0.1-0.7-0.3
	C15.1,16,15,15.8,15,15.5s0.1-0.5,0.3-0.7L17.2,13z"/>
</svg>
