<svg xmlns="http://www.w3.org/2000/svg" viewBox="0 0 186.14 137.02"><defs><style>.cls-1{fill:#717070;}</style></defs><g id="Calque_2" data-name="Calque 2"><g id="Calque_1-2" data-name="Calque 1"><circle class="cls-1" cx="26.84" cy="108.61" r="8.11"/><path class="cls-1" d="M158.18,137H28a28.42,28.42,0,0,1,0-56.83H158.18a28.42,28.42,0,0,1,0,56.83ZM28,85.19A23.42,23.42,0,0,0,28,132H158.18a23.42,23.42,0,0,0,0-46.83Z"/><path class="cls-1" d="M49.57,82.69h-5V23.26c-.07-1.18-.44-10.57,5.61-17.12C54,2.07,59.32,0,66.13,0h60.41V5H66.13c-5.36,0-9.49,1.53-12.28,4.54C49,14.8,49.55,22.9,49.56,23V82.69Z"/><rect class="cls-1" x="93.17" y="2.5" width="5" height="56.12"/><path class="cls-1" d="M115.62,82.69h-5V68c0-6.49-6-6.88-7.18-6.89H72v-5h31.41c4.21,0,12.17,2.48,12.17,11.89Z"/><path class="cls-1" d="M125.83,48.14A2.5,2.5,0,0,1,124,44l11.1-12.17a2.5,2.5,0,1,1,3.69,3.37l-11.1,12.17A2.49,2.49,0,0,1,125.83,48.14Z"/><path class="cls-1" d="M146.59,63.71H128a2.5,2.5,0,0,1,0-5h18.62a2.5,2.5,0,0,1,0,5Z"/></g></g></svg>