<?xml version="1.0" encoding="utf-8"?>
<!-- Generator: Adobe Illustrator 26.0.0, SVG Export Plug-In . SVG Version: 6.00 Build 0)  -->
<svg version="1.1" id="Calque_1" xmlns="http://www.w3.org/2000/svg" xmlns:xlink="http://www.w3.org/1999/xlink" x="0px" y="0px"
	 viewBox="0 0 328.3 153.9" style="enable-background:new 0 0 328.3 153.9;" xml:space="preserve">
<style type="text/css">
	.st0{fill:#F1F8FE;}
</style>
<path class="st0" d="M0,77.9c0-1.2,0.1-2.4,0.2-3.5c0.1-1.2,0.3-2.3,0.5-3.5s0.5-2.3,0.9-3.4c0.4-1.1,0.8-2.2,1.2-3.3
	c0.5-1.1,1-2.2,1.6-3.2c0.6-1,1.2-2,1.9-3s1.4-1.9,2.2-2.8c0.8-0.9,1.6-1.8,2.4-2.6c0.9-0.8,1.8-1.6,2.7-2.4
	c0.9-0.7,1.9-1.4,2.9-2.1s2-1.3,3.1-1.8c1.1-0.6,2.2-1.1,3.3-1.5c1.1-0.5,2.3-0.8,3.4-1.2c1.2-0.3,2.3-0.6,3.5-0.9
	c1.2-0.2,2.4-0.4,3.6-0.5s2.4-0.2,3.6-0.2h291.3v70.4H35.4c-1.2,0-2.3-0.1-3.5-0.2c-1.2-0.1-2.3-0.3-3.4-0.5
	c-1.1-0.2-2.3-0.5-3.4-0.8c-1.1-0.3-2.2-0.7-3.3-1.1c-1.1-0.4-2.1-0.9-3.1-1.4c-1-0.5-2-1.1-3-1.7s-1.9-1.3-2.8-2
	c-0.9-0.7-1.8-1.5-2.6-2.3c-0.8-0.8-1.6-1.6-2.3-2.5C7.3,98.9,6.6,98,6,97c-0.6-0.9-1.2-1.9-1.8-2.9c-0.5-1-1-2-1.5-3.1
	c-0.4-1-0.8-2.1-1.2-3.2c-0.3-1.1-0.6-2.2-0.8-3.3c-0.2-1.1-0.4-2.2-0.5-3.3C0.1,80.2,0,79,0,77.9z"/>
<path class="st0" d="M328.3,0c0,0-4.5,41.8-47.7,42.1c-43.2,0.3,14.8,29,14.8,29s32.9-4.7,32.9-6.7s0-22.2,0-22.2V0z"/>
<path class="st0" d="M328.3,153.9c0,0-4.5-41.8-47.7-42.1c-43.2-0.3,14.8-29,14.8-29s32.9,4.7,32.9,6.7s0,22.2,0,22.2V153.9z"/>
</svg>
