<?xml version="1.0" encoding="utf-8"?>
<!-- Generator: Adobe Illustrator 26.0.0, SVG Export Plug-In . SVG Version: 6.00 Build 0)  -->
<svg version="1.1" id="Calque_1" xmlns="http://www.w3.org/2000/svg" xmlns:xlink="http://www.w3.org/1999/xlink" x="0px" y="0px"
	 viewBox="0 0 55.8 30.2" style="enable-background:new 0 0 55.8 30.2;" xml:space="preserve">
<style type="text/css">
	
		.st0{clip-path:url(#SVGID_00000024697554348934365700000016033273331840107449_);fill:url(#SVGID_00000020358290011809900170000003290759892774089894_);}
	
		.st1{clip-path:url(#SVGID_00000127762446492115936090000010438662081089292711_);fill:url(#SVGID_00000011003016178886589310000007374640613802360718_);}
	
		.st2{clip-path:url(#SVGID_00000137812469369514215570000003014036226359398572_);fill:url(#SVGID_00000157282109581999737980000006479710016641350549_);}
	
		.st3{clip-path:url(#SVGID_00000068647400663344110030000012111739767179154837_);fill:url(#SVGID_00000077295158893049393350000016665227690896679570_);}
	
		.st4{clip-path:url(#SVGID_00000145023323797246966270000007182133106089036199_);fill:url(#SVGID_00000149382789719992081260000012138682579117367462_);}
	.st5{fill:#FFFFFF;}
	.st6{font-family:'Gilroy-Black';}
	.st7{font-size:6.667px;}
</style>
<g>
	<defs>
		<path id="SVGID_1_" d="M6.1,22.8c0-1.2,7.7-5,8-5.2c0,0.2,0,0.3,0,0.5c0,2.7-4.5,4.7-6.7,5c-0.2,0-0.4,0-0.6,0
			C6.3,23.1,6.1,23,6.1,22.8 M9.1,7.7c-0.4,0.9-0.6,1.7-0.6,2.4c0,3.2,3.7,4.5,5.3,7.2c-2.2,0.9-6,2.7-7.7,4.4
			c-0.5,0.5-0.6,0.8-0.6,1.1c0,0.6,0.9,0.9,1.8,0.9c0.2,0,0.3,0,0.5,0c2.5-0.3,7.5-2.4,7.5-5.5c0-0.3-0.1-0.6-0.2-0.9
			c2.6-1.1,5.4-1.9,7.7-2.3c0.3,0,0.4-0.2,0.4-0.3c0-0.1-0.1-0.2-0.3-0.2c0,0-0.1,0-0.1,0c-2.4,0.4-5.3,1.4-8,2.4
			c-1.6-2.5-5.4-3.9-5.4-6.9c0-0.6,0.2-1.3,0.6-2.1c2-4,8.8-7.5,12.6-7.5c1.5,0,2.6,0.6,2.6,2c0,1.3-1,3.4-3.5,6.5
			c-0.1,0.2-0.2,0.3-0.2,0.4c0,0.2,0.2,0.3,0.5,0.3c0.3,0,0.7-0.2,0.8-0.4C25.1,6.1,26,4,26,2.5C26,0.8,24.6,0,22.6,0
			C18.2,0,11.1,3.4,9.1,7.7"/>
	</defs>
	<clipPath id="SVGID_00000013902564104699651240000015294824047887357347_">
		<use xlink:href="#SVGID_1_"  style="overflow:visible;"/>
	</clipPath>
	
		<linearGradient id="SVGID_00000055695587199942032820000014816465887211198375_" gradientUnits="userSpaceOnUse" x1="-312.3072" y1="359.239" x2="-311.3072" y2="359.239" gradientTransform="matrix(47.0806 0 0 -47.0806 14709.0459 16925.043)">
		<stop  offset="0" style="stop-color:#E30B54"/>
		<stop  offset="1" style="stop-color:#EA5036"/>
	</linearGradient>
	
		<rect x="5.4" y="0" style="clip-path:url(#SVGID_00000013902564104699651240000015294824047887357347_);fill:url(#SVGID_00000055695587199942032820000014816465887211198375_);" width="20.6" height="23.7"/>
</g>
<g>
	<defs>
		<path id="SVGID_00000121972870813240568200000016536455615247927710_" d="M22.5,16.4c0-0.1,0.5-0.8,0.8-1.2c0.4-0.5,0.8-1,1.3-1.4
			c0,0,0.2-0.1,0.2-0.2l0,0c0,0,0.1,0.1,0.2,0.1c0,0,0.1,0,0.1,0c0,0.1-1.7,2-1.9,2.2C22.8,16.2,22.6,16.4,22.5,16.4
			C22.5,16.4,22.5,16.4,22.5,16.4 M26.2,12.2c-0.1,0.1-0.8,1-0.9,1.1c-0.1-0.5-0.3-0.7-0.6-0.7c-0.2,0-0.4,0.1-0.7,0.3
			c-1.5,0.9-2.2,2.5-2.2,3.5c0,0.4,0.1,0.8,0.4,0.8c0.1,0,0.2,0,0.3-0.1c0.4-0.2,1-0.9,1.3-1.3c0.2-0.2,0.5-0.5,0.7-0.8
			c0,0,0.1-0.1,0.1-0.1c0,0-0.1,0.2-0.1,0.3c-0.1,0.3-0.3,1.1-0.3,1.6c0,0.2,0,0.3,0.1,0.4c0.1,0.3,0.3,0.4,0.6,0.4
			c1.5,0,4.9-3.6,5-3.9v0c0-0.1-0.1-0.2-0.2-0.2c-0.1,0-0.2,0.1-0.3,0.1c-0.1,0.1-0.3,0.2-0.4,0.3c-0.9,0.8-2.5,2.5-3.7,2.9
			c-0.1,0-0.1,0-0.2,0c-0.3,0-0.3-0.2-0.3-0.5c0-0.9,0.8-2.7,1-3c0.2-0.3,0.3-0.6,0.5-0.9c0,0,0,0,0-0.1c0-0.1,0-0.1,0-0.2
			c0-0.2-0.1-0.3-0.2-0.3C26.4,12.1,26.3,12.2,26.2,12.2"/>
	</defs>
	<clipPath id="SVGID_00000155838134508486361780000017153856004850052493_">
		<use xlink:href="#SVGID_00000121972870813240568200000016536455615247927710_"  style="overflow:visible;"/>
	</clipPath>
	
		<linearGradient id="SVGID_00000133506254709433416700000002386603020570591616_" gradientUnits="userSpaceOnUse" x1="-312.307" y1="359.1746" x2="-311.307" y2="359.1746" gradientTransform="matrix(47.0806 0 0 -47.0806 14709.0459 16925.043)">
		<stop  offset="0" style="stop-color:#E30B54"/>
		<stop  offset="1" style="stop-color:#EA5036"/>
	</linearGradient>
	
		<rect x="21.9" y="12.1" style="clip-path:url(#SVGID_00000155838134508486361780000017153856004850052493_);fill:url(#SVGID_00000133506254709433416700000002386603020570591616_);" width="8.2" height="5.6"/>
</g>
<g>
	<defs>
		<path id="SVGID_00000072992686007167862760000009217663033829787014_" d="M32.9,8.2c1.3-2.6,3.8-6.9,3.9-6.9l-0.1,0.2
			c-0.7,2.8-3,5.8-4.5,8L32.9,8.2z M37,0.6c-0.1,0-0.2,0-0.2,0.1c-0.3,0.1-0.6,0.5-0.8,0.8c-0.1,0.1-0.2,0.3-0.3,0.4l-0.3,0.5
			c-0.4,0.6-0.7,1.3-1.1,1.9c-0.4,0.6-0.7,1.3-1.1,1.9c-0.3,0.6-0.7,1.3-1,1.9c-0.3,0.7-0.7,1.3-1,2c-0.2,0.4-0.4,0.9-0.6,1.3
			c-0.2,0.4-0.4,0.8-0.5,1.2l-0.7,1.8c-0.2,0.4-0.5,1.2-0.8,1.9c-0.2,0.7-0.4,1.3-0.4,1.7v0.1c0,0.1,0,0.2,0.1,0.3
			c0,0.1,0.1,0.1,0.2,0.1c0,0,0.1,0,0.1,0c0.1,0,0.2,0,0.3-0.1c0.2-0.1,0.3-0.4,0.4-0.5c0.1-0.2,0.4-0.7,0.8-1.3
			c0.2-0.4,0.5-0.8,0.8-1.1c0.4-0.5,0.8-1.1,1.1-1.5c0.3-0.3,0.5-0.5,0.6-0.5c0,0,0.1,0,0.1,0.1c0,0,0,0.1,0,0.2
			c0,0.3-0.1,0.9-0.2,1.4c-0.1,0.4-0.1,0.7-0.1,0.8v0.1c0,0.2,0,0.5,0.1,0.7c0.1,0.2,0.3,0.4,0.6,0.4h0.1c0.4,0,1.1-0.3,1.7-0.8
			c1-0.7,2-1.7,2.4-2.2h0l0-0.1c0-0.1,0-0.1,0-0.1c0,0,0,0-0.1,0c0,0-0.1,0-0.1,0c-0.4,0.2-0.9,0.7-1.5,1.2c-0.7,0.7-1.5,1.4-2,1.4
			c-0.1,0-0.2-0.2-0.2-0.5c0-0.4,0.1-0.9,0.2-1.4c0.1-0.4,0.2-0.8,0.2-1.1l0-0.1c0-0.1-0.1-0.2-0.1-0.3c-0.1-0.2-0.3-0.3-0.4-0.3
			c-0.1,0-0.2-0.1-0.3-0.1c-0.1,0-0.2,0-0.3,0c-0.2,0-0.3,0.1-0.5,0.2c-0.4,0.2-0.7,0.6-1.1,1c-0.3,0.4-0.7,0.9-0.9,1.3
			c-0.3,0.5-0.6,0.9-0.9,1.4l-0.4,0.7c0-0.1,0-0.1,0-0.2c0.1-0.4,0.6-1.5,0.7-2l0.2-0.5l0.3-0.6c0.1-0.1,0.2-0.4,0.5-0.8l0.9-1.4
			c0.3-0.5,0.7-1.1,1.2-1.8l0,0c0.1-0.2,0.2-0.3,0.3-0.5c0.7-1,1.6-2.4,2.4-3.7c0.5-0.8,0.9-1.6,1.3-2.4c0.3-0.8,0.6-1.5,0.6-2.1
			l0-0.2c0-0.2,0-0.3-0.1-0.4C37.2,0.7,37.1,0.7,37,0.6L37,0.6L37,0.6z"/>
	</defs>
	<clipPath id="SVGID_00000074423396965649209600000015226418286559086760_">
		<use xlink:href="#SVGID_00000072992686007167862760000009217663033829787014_"  style="overflow:visible;"/>
	</clipPath>
	
		<linearGradient id="SVGID_00000064314743193952703310000012001094002383962802_" gradientUnits="userSpaceOnUse" x1="-312.3072" y1="359.2879" x2="-311.3072" y2="359.2879" gradientTransform="matrix(47.0806 0 0 -47.0806 14709.0459 16925.043)">
		<stop  offset="0" style="stop-color:#E30B54"/>
		<stop  offset="1" style="stop-color:#EA5036"/>
	</linearGradient>
	
		<rect x="28.2" y="0.6" style="clip-path:url(#SVGID_00000074423396965649209600000015226418286559086760_);fill:url(#SVGID_00000064314743193952703310000012001094002383962802_);" width="9.2" height="17.8"/>
</g>
<g>
	<defs>
		<path id="SVGID_00000115483962416394406780000004270998831116867507_" d="M34.2,24.1c0-0.6,0.4-1.7,1.2-3c0.6-1,1.3-1.7,1.9-2.4
			c0.6-0.6,1.4-1.3,1.8-1.6c-0.8,2-1.4,3.3-2.5,5.3c-0.9,1.6-1.6,2.2-2,2.2C34.4,24.7,34.2,24.5,34.2,24.1 M37.7,12.7
			c-0.1,0.1-0.2,0.1-0.3,0.3c-0.5,0.8-1,2.3-1,3.2v0.1c0,0.2,0.1,0.4,0.2,0.6c0.1,0.1,0.2,0.2,0.4,0.2l0.1,0
			c0.3-0.1,0.7-0.3,1.2-0.8c0.5-0.5,1.1-1.1,1.6-1.7c0.1-0.1,0.1-0.1,0.2-0.2c-0.3,0.9-0.7,1.8-0.8,2.1c-0.5,0.4-1.3,0.9-2,1.6
			c-0.8,0.7-1.7,1.6-2.4,2.7c-0.8,1.1-1.1,2.2-1.1,3.1c0,0.8,0.3,1.4,0.9,1.4c0.6,0,1.5-0.7,2.5-2.4c1.1-1.9,1.9-3.9,2.7-6
			c0.9-0.6,1.5-0.9,2.2-1.3c0.6-0.3,1.2-0.6,1.9-1c0.2-0.1,0.3-0.2,0.3-0.3c0-0.1,0-0.1-0.1-0.1c-0.1,0-0.2,0-0.4,0.1
			c-0.6,0.3-1.2,0.6-1.7,0.9c-0.6,0.3-1.2,0.6-1.9,1c0.1-0.3,0.9-2.3,1.1-3l0-0.1c0-0.1-0.1-0.2-0.3-0.2c-0.2,0-0.3,0.1-0.4,0.2
			c-0.1,0.2-0.6,0.8-1.1,1.4c-0.4,0.4-0.7,0.9-1.1,1.3c-0.5,0.5-0.9,0.9-1.2,1l-0.1,0c-0.1,0-0.1,0-0.1-0.2c0-0.1,0-0.3,0.1-0.7
			c0.1-0.3,0.2-0.6,0.4-1c0.3-0.5,0.5-1.1,0.7-1.4c0.1-0.2,0.2-0.3,0.2-0.4c0-0.1,0-0.1-0.1-0.2c-0.1-0.1-0.3-0.1-0.4-0.1L37.7,12.7
			z"/>
	</defs>
	<clipPath id="SVGID_00000116234167751021953040000000698865500450801577_">
		<use xlink:href="#SVGID_00000115483962416394406780000004270998831116867507_"  style="overflow:visible;"/>
	</clipPath>
	
		<linearGradient id="SVGID_00000040576534595603428600000006753845863355115663_" gradientUnits="userSpaceOnUse" x1="-312.3072" y1="359.0891" x2="-311.3072" y2="359.0891" gradientTransform="matrix(47.0806 0 0 -47.0806 14709.0459 16925.043)">
		<stop  offset="0" style="stop-color:#E30B54"/>
		<stop  offset="1" style="stop-color:#EA5036"/>
	</linearGradient>
	
		<rect x="33.7" y="12.7" style="clip-path:url(#SVGID_00000116234167751021953040000000698865500450801577_);fill:url(#SVGID_00000040576534595603428600000006753845863355115663_);" width="10.5" height="12.5"/>
</g>
<g>
	<defs>
		<path id="SVGID_00000052086975171528556680000015476768919152855210_" d="M15.2,20.5c-1.6,0-2.9,1.3-2.9,2.9v4
			c0,1.6,1.3,2.9,2.9,2.9h32.3c1.6,0,2.9-1.3,2.9-2.9v-4c0-1.6-1.3-2.9-2.9-2.9H15.2z"/>
	</defs>
	<clipPath id="SVGID_00000034061547745332752350000005737459391947458741_">
		<use xlink:href="#SVGID_00000052086975171528556680000015476768919152855210_"  style="overflow:visible;"/>
	</clipPath>
	
		<linearGradient id="SVGID_00000111153548068679155580000009915258824847147954_" gradientUnits="userSpaceOnUse" x1="-311.185" y1="359.2517" x2="-310.185" y2="359.2517" gradientTransform="matrix(38.0209 0 0 -38.0209 11843.8145 13684.4385)">
		<stop  offset="0" style="stop-color:#FCC77B"/>
		<stop  offset="1" style="stop-color:#963915"/>
	</linearGradient>
	
		<rect x="12.3" y="20.5" style="clip-path:url(#SVGID_00000034061547745332752350000005737459391947458741_);fill:url(#SVGID_00000111153548068679155580000009915258824847147954_);" width="38" height="9.7"/>
</g>
<text transform="matrix(1 0 0 1 19.4806 27.9336)"><tspan x="0" y="0" class="st5 st6 st7">S</tspan><tspan x="3.8" y="0" class="st5 st6 st7">t</tspan><tspan x="6.3" y="0" class="st5 st6 st7">a</tspan><tspan x="10.4" y="0" class="st5 st6 st7">r</tspan><tspan x="13" y="0" class="st5 st6 st7">tup</tspan></text>
</svg>
