<?xml version="1.0" encoding="utf-8"?>
<!-- Generator: Adobe Illustrator 26.0.0, SVG Export Plug-In . SVG Version: 6.00 Build 0)  -->
<svg version="1.1" id="Calque_1" xmlns="http://www.w3.org/2000/svg" xmlns:xlink="http://www.w3.org/1999/xlink" x="0px" y="0px"
	 viewBox="0 0 55.8 30.2" style="enable-background:new 0 0 55.8 30.2;" xml:space="preserve">
<style type="text/css">
	
		.st0{clip-path:url(#SVGID_00000010301602756768202130000013103884463538224295_);fill:url(#SVGID_00000109726936778501736110000013671283718232029827_);}
	
		.st1{clip-path:url(#SVGID_00000090287189495253204840000007486293496763867806_);fill:url(#SVGID_00000157991617074627430870000012001724938069021358_);}
	
		.st2{clip-path:url(#SVGID_00000044875345070391024180000011109939875669985167_);fill:url(#SVGID_00000088829058715597080850000007386768473202887572_);}
	
		.st3{clip-path:url(#SVGID_00000181778578261963281050000007030021442697723783_);fill:url(#SVGID_00000159453703267909810930000010522994453514258572_);}
	
		.st4{clip-path:url(#SVGID_00000115495177398440340350000016120263971756034692_);fill:url(#SVGID_00000011014237660353283750000016483615344257142449_);}
	
		.st5{clip-path:url(#SVGID_00000067927799369485276310000002164770888052491955_);fill:url(#SVGID_00000062157105347494798520000018341258787625271209_);}
	
		.st6{clip-path:url(#SVGID_00000005986505037184475650000003898090672644030098_);fill:url(#SVGID_00000044142908205863314600000002684181136746631074_);}
	.st7{fill:#FFFFFF;}
	.st8{font-family:'Gilroy-Black';}
	.st9{font-size:6.667px;}
</style>
<g>
	<defs>
		<path id="SVGID_1_" d="M3.8,22.8c0-1.2,7.7-5,8-5.2c0,0.2,0,0.3,0,0.5c0,2.7-4.5,4.7-6.7,5c-0.2,0-0.4,0-0.6,0
			C4,23.1,3.8,23,3.8,22.8 M6.8,7.7c-0.4,0.9-0.6,1.7-0.6,2.4c0,3.2,3.7,4.5,5.3,7.2c-2.2,0.9-6,2.7-7.8,4.4
			c-0.5,0.5-0.6,0.8-0.6,1.1c0,0.6,0.9,0.9,1.8,0.9c0.2,0,0.3,0,0.5,0c2.5-0.3,7.5-2.4,7.5-5.5c0-0.3-0.1-0.6-0.2-0.9
			c2.6-1.1,5.4-1.9,7.7-2.3c0.3,0,0.4-0.2,0.4-0.3c0-0.1-0.1-0.2-0.3-0.2c0,0-0.1,0-0.1,0c-2.4,0.4-5.3,1.4-8,2.4
			C10.8,14.3,7,12.9,7,10c0-0.6,0.2-1.3,0.6-2.1c2-4,8.8-7.5,12.6-7.5c1.5,0,2.6,0.6,2.6,2c0,1.3-1,3.4-3.5,6.5
			c-0.1,0.2-0.2,0.3-0.2,0.4c0,0.2,0.2,0.3,0.5,0.3c0.3,0,0.7-0.2,0.8-0.4c2.4-3,3.3-5.1,3.3-6.5c0-1.8-1.4-2.5-3.5-2.5
			C15.9,0,8.7,3.4,6.8,7.7"/>
	</defs>
	<clipPath id="SVGID_00000092419016795438935860000014567084674710144181_">
		<use xlink:href="#SVGID_1_"  style="overflow:visible;"/>
	</clipPath>
	
		<linearGradient id="SVGID_00000090279214420611146220000016267723833208060292_" gradientUnits="userSpaceOnUse" x1="-314.1697" y1="359.1851" x2="-313.1697" y2="359.1851" gradientTransform="matrix(56.6465 0 0 -56.6465 17799.7305 20358.4375)">
		<stop  offset="0" style="stop-color:#E30B54"/>
		<stop  offset="1" style="stop-color:#EA5036"/>
	</linearGradient>
	
		<rect x="3.1" y="0" style="clip-path:url(#SVGID_00000092419016795438935860000014567084674710144181_);fill:url(#SVGID_00000090279214420611146220000016267723833208060292_);" width="20.6" height="23.7"/>
</g>
<g>
	<defs>
		<path id="SVGID_00000132784664634301392110000015039346988720156087_" d="M21.5,12.9c-0.5,0.1-0.7,0.5-0.9,0.9
			c-0.3,0.6-0.5,1.1-0.6,1.6c-0.1,0.3-0.1,0.6-0.1,0.8c0,0.7,0.4,1,1,1c1.4,0,3.8-1.5,5.3-3c0,0,0.1-0.1,0.1-0.1v0c0,0,0-0.1,0-0.1
			c0,0,0,0-0.1-0.1c0,0-0.1,0-0.1,0c-0.1,0-0.2,0-0.3,0.1l-0.3,0.2c-1.4,1.3-3.1,2.4-4,2.4c-0.3,0-0.5-0.2-0.5-0.5
			c0-0.2,0-0.4,0.1-0.6c0.2-0.6,0.4-1.2,0.8-1.8c0.1-0.2,0.2-0.4,0.2-0.6c0,0,0-0.1,0-0.1c0-0.1-0.1-0.1-0.1-0.2l-0.1,0L21.5,12.9z
			 M22.5,10.4c-0.1,0-0.1,0.1-0.2,0.2c-0.2,0.2-0.3,0.6-0.3,0.8v0.1c0,0.1,0,0.2,0.1,0.2c0,0,0.1,0,0.2,0c0.1,0,0.1,0,0.2,0
			c0.2-0.1,0.4-0.3,0.5-0.6l0-0.1c0,0,0,0,0-0.1c0-0.1,0-0.1,0-0.2c0-0.1,0-0.1,0-0.2c0-0.1-0.1-0.1-0.1-0.2c0,0-0.1,0-0.1,0
			C22.5,10.4,22.5,10.4,22.5,10.4"/>
	</defs>
	<clipPath id="SVGID_00000151506665161537280810000003015300764901768579_">
		<use xlink:href="#SVGID_00000132784664634301392110000015039346988720156087_"  style="overflow:visible;"/>
	</clipPath>
	
		<linearGradient id="SVGID_00000062894961858003352990000017928891598296737718_" gradientUnits="userSpaceOnUse" x1="-314.1697" y1="359.1513" x2="-313.1697" y2="359.1513" gradientTransform="matrix(56.6465 0 0 -56.6465 17799.7305 20358.4375)">
		<stop  offset="0" style="stop-color:#E30B54"/>
		<stop  offset="1" style="stop-color:#EA5036"/>
	</linearGradient>
	
		<rect x="19.9" y="10.4" style="clip-path:url(#SVGID_00000151506665161537280810000003015300764901768579_);fill:url(#SVGID_00000062894961858003352990000017928891598296737718_);" width="6.3" height="6.8"/>
</g>
<g>
	<defs>
		<path id="SVGID_00000057120561610638860320000015845178932812438204_" d="M25.2,16.6c0-0.1,0.1-0.3,0.3-0.7
			c0.2-0.4,1.3-2.1,2.1-2.6c0.1-0.1,0.2-0.1,0.3-0.1c0.2,0,0.3,0.1,0.4,0.2C27.7,14.2,25.6,16.7,25.2,16.6
			C25.2,16.7,25.2,16.7,25.2,16.6 M35.1,1.5c0.2-0.3,0.3-0.4,0.4-0.4l0,0l0,0c0,0,0,0,0,0.1c0,0.8-5.2,9.4-5.7,10
			C31.4,7.5,34.1,3,35.1,1.5 M35.7,0.1c-0.2,0-0.4,0.1-0.6,0.2c-2.1,1.2-5.9,10.3-6.5,12.8l0,0.1c-0.1-0.3-0.4-0.5-0.8-0.5l-0.2,0
			c-1.8,0.2-2.9,2.4-2.9,3.6c0,0.5,0.2,0.9,0.6,0.9h0.1c1-0.1,2.5-2.2,3-2.9l0,0.3c0,0.2,0,0.3,0,0.4c0,1.4,0.6,2.3,1.7,2.3
			c0.4,0,0.9-0.1,1.5-0.5c1.2-0.7,2.3-2,2.9-2.8c0.1-0.1,0.1-0.2,0.1-0.3c0-0.1-0.1-0.2-0.2-0.2c-0.1,0-0.2,0-0.2,0.1
			c-0.9,1-2.4,2.9-3.8,2.9l-0.2,0c-0.8-0.1-1.1-0.7-1.1-1.5c0-0.2,0-0.5,0.1-0.7c0-0.3,0.1-0.6,0.2-0.9l0.5-0.7
			c0.9-1.3,5.4-8.2,6.5-11.3c0.1-0.3,0.1-0.5,0.1-0.6C36.3,0.3,36,0.1,35.7,0.1L35.7,0.1z"/>
	</defs>
	<clipPath id="SVGID_00000040556926759604949210000009078963270143499415_">
		<use xlink:href="#SVGID_00000057120561610638860320000015845178932812438204_"  style="overflow:visible;"/>
	</clipPath>
	
		<linearGradient id="SVGID_00000078765549204202651510000001949740723878146692_" gradientUnits="userSpaceOnUse" x1="-314.1697" y1="359.2411" x2="-313.1697" y2="359.2411" gradientTransform="matrix(56.6465 0 0 -56.6465 17799.7305 20358.4375)">
		<stop  offset="0" style="stop-color:#E30B54"/>
		<stop  offset="1" style="stop-color:#EA5036"/>
	</linearGradient>
	
		<rect x="24.6" y="0.1" style="clip-path:url(#SVGID_00000040556926759604949210000009078963270143499415_);fill:url(#SVGID_00000078765549204202651510000001949740723878146692_);" width="11.7" height="17.1"/>
</g>
<g>
	<defs>
		<path id="SVGID_00000100361331389416108780000002633934825351230612_" d="M34.6,12.9c-0.5,0.1-0.7,0.5-0.9,0.9
			c-0.3,0.6-0.5,1.1-0.6,1.6c-0.1,0.3-0.1,0.6-0.1,0.8c0,0.7,0.4,1,1,1c1.4,0,3.8-1.5,5.3-3c0,0,0.1-0.1,0.1-0.1v0c0,0,0-0.1,0-0.1
			c0,0,0,0-0.1-0.1c0,0-0.1,0-0.1,0c-0.1,0-0.2,0-0.3,0.1l-0.3,0.2c-1.4,1.3-3.1,2.4-4,2.4c-0.3,0-0.5-0.2-0.5-0.5
			c0-0.2,0-0.4,0.1-0.6c0.2-0.6,0.4-1.2,0.8-1.8c0.1-0.2,0.2-0.4,0.2-0.6c0,0,0-0.1,0-0.1c0-0.1-0.1-0.1-0.1-0.2l-0.1,0L34.6,12.9z
			 M35.5,10.4c-0.1,0-0.1,0.1-0.2,0.2c-0.2,0.2-0.3,0.6-0.3,0.8v0.1c0,0.1,0,0.2,0.1,0.2c0,0,0.1,0,0.2,0c0.1,0,0.1,0,0.2,0
			c0.2-0.1,0.4-0.3,0.5-0.6l0-0.1c0,0,0,0,0-0.1c0-0.1,0-0.1,0-0.2c0-0.1,0-0.1,0-0.2c0-0.1-0.1-0.1-0.1-0.2c0,0-0.1,0-0.1,0
			C35.6,10.4,35.5,10.4,35.5,10.4"/>
	</defs>
	<clipPath id="SVGID_00000082349137725240441350000015226387063197792669_">
		<use xlink:href="#SVGID_00000100361331389416108780000002633934825351230612_"  style="overflow:visible;"/>
	</clipPath>
	
		<linearGradient id="SVGID_00000054224619410936473250000001209554002253665968_" gradientUnits="userSpaceOnUse" x1="-314.1697" y1="359.1513" x2="-313.1697" y2="359.1513" gradientTransform="matrix(56.6465 0 0 -56.6465 17799.7305 20358.4375)">
		<stop  offset="0" style="stop-color:#E30B54"/>
		<stop  offset="1" style="stop-color:#EA5036"/>
	</linearGradient>
	
		<rect x="32.9" y="10.4" style="clip-path:url(#SVGID_00000082349137725240441350000015226387063197792669_);fill:url(#SVGID_00000054224619410936473250000001209554002253665968_);" width="6.3" height="6.8"/>
</g>
<g>
	<defs>
		<path id="SVGID_00000016771084473496175970000002911303833359239821_" d="M39.3,12.8L39.3,12.8c-0.2,0.3-0.4,0.7-0.6,1
			c-0.2,0.3-0.4,0.7-0.5,1c-0.2,0.3-0.3,0.7-0.5,1l-0.4,1c0,0,0,0.1,0,0.1c0,0.1,0,0.2,0.1,0.2c0,0,0.1,0.1,0.1,0.1c0,0,0.1,0,0.1,0
			h0c0.1,0,0.2,0,0.2-0.2l0.2-0.3c0.2-0.3,0.4-0.6,0.6-0.9c0.1-0.2,0.3-0.4,0.4-0.6c0.1-0.2,0.3-0.4,0.5-0.6
			c0.2-0.3,0.4-0.5,0.6-0.7c0.2-0.2,0.3-0.3,0.4-0.4c0.1-0.1,0.2-0.1,0.2-0.2h0c0,0,0,0,0,0c0,0,0,0,0,0.1c0,0.1,0,0.4-0.1,0.7
			c-0.1,0.3-0.1,0.7-0.2,1c0,0.3,0,0.5,0,0.7c0,0.8,0.2,1.1,0.6,1.2h0c0.5,0,1.1-0.5,1.8-1.1c0.5-0.5,1-1,1.4-1.3l0.3-0.3
			c0.1-0.1,0.2-0.2,0.2-0.3c0,0,0-0.1,0-0.1c0,0-0.1,0-0.1-0.1h0c-0.1,0-0.2,0-0.3,0.1h0l-0.3,0.3c-0.3,0.3-0.8,0.8-1.3,1.2
			c-0.6,0.6-1.1,0.9-1.4,0.9c0,0-0.1,0-0.1,0c-0.1-0.1-0.2-0.3-0.2-0.6c0-0.3,0-0.6,0.1-1.1c0.1-0.4,0.1-0.8,0.2-1.2l0-0.4
			c0-0.2,0-0.3-0.1-0.4v0c-0.1-0.1-0.2-0.1-0.3-0.1h-0.1c-0.1,0-0.3,0.1-0.5,0.2l0,0c-0.2,0.1-0.4,0.3-0.7,0.6
			c-0.2,0.2-0.4,0.4-0.6,0.6c0-0.1,0.1-0.2,0.2-0.3c0.1-0.1,0.1-0.3,0.2-0.4c0.1-0.1,0.1-0.3,0.2-0.4C40,13,40,12.9,40,12.8
			c0,0,0-0.1,0-0.1c0,0-0.1-0.1-0.1-0.1c0,0-0.1,0-0.1,0c0,0,0,0-0.1,0C39.5,12.6,39.4,12.7,39.3,12.8"/>
	</defs>
	<clipPath id="SVGID_00000044898633551696644880000002686720787181114020_">
		<use xlink:href="#SVGID_00000016771084473496175970000002911303833359239821_"  style="overflow:visible;"/>
	</clipPath>
	
		<linearGradient id="SVGID_00000161605129295070177560000012791668741914432899_" gradientUnits="userSpaceOnUse" x1="-314.1697" y1="359.1303" x2="-313.1697" y2="359.1303" gradientTransform="matrix(56.6465 0 0 -56.6465 17799.7305 20358.4375)">
		<stop  offset="0" style="stop-color:#E30B54"/>
		<stop  offset="1" style="stop-color:#EA5036"/>
	</linearGradient>
	
		<rect x="37.2" y="12.6" style="clip-path:url(#SVGID_00000044898633551696644880000002686720787181114020_);fill:url(#SVGID_00000161605129295070177560000012791668741914432899_);" width="7.7" height="4.7"/>
</g>
<g>
	<defs>
		<path id="SVGID_00000041283084292831322370000003867939816617708718_" d="M44.1,16.4c0-0.1,0.5-0.8,0.8-1.2c0.4-0.5,0.8-1,1.3-1.4
			c0,0,0.2-0.1,0.2-0.2l0,0c0,0,0.1,0.1,0.2,0.1c0,0,0.1,0,0.1,0c0,0.1-1.7,2-1.9,2.2C44.4,16.2,44.2,16.4,44.1,16.4
			C44.1,16.4,44.1,16.4,44.1,16.4 M47.8,12.2c-0.1,0.1-0.8,1-0.9,1.1c-0.1-0.5-0.3-0.7-0.6-0.7c-0.2,0-0.4,0.1-0.7,0.3
			c-1.5,0.9-2.2,2.5-2.2,3.5c0,0.4,0.1,0.8,0.4,0.8c0.1,0,0.2,0,0.3-0.1c0.4-0.2,1-0.9,1.3-1.3c0.2-0.2,0.5-0.5,0.7-0.8
			c0,0,0.1-0.1,0.1-0.1c0,0-0.1,0.2-0.1,0.3c-0.1,0.3-0.3,1.1-0.3,1.6c0,0.2,0,0.3,0.1,0.4c0.1,0.3,0.3,0.4,0.6,0.4
			c1.5,0,4.9-3.6,5-3.9v0c0-0.1-0.1-0.2-0.2-0.2c-0.1,0-0.2,0.1-0.3,0.1c-0.1,0.1-0.3,0.2-0.4,0.3c-0.9,0.8-2.5,2.5-3.7,2.9
			c-0.1,0-0.1,0-0.2,0c-0.3,0-0.3-0.2-0.3-0.5c0-0.9,0.8-2.7,1-3c0.2-0.3,0.3-0.6,0.5-0.9c0,0,0,0,0-0.1c0-0.1,0-0.1,0-0.2
			c0-0.2-0.1-0.3-0.2-0.3C48,12.1,47.9,12.2,47.8,12.2"/>
	</defs>
	<clipPath id="SVGID_00000163770576632938978680000016228708500951933841_">
		<use xlink:href="#SVGID_00000041283084292831322370000003867939816617708718_"  style="overflow:visible;"/>
	</clipPath>
	
		<linearGradient id="SVGID_00000101782817011636410670000002817462862051352981_" gradientUnits="userSpaceOnUse" x1="-314.1697" y1="359.1315" x2="-313.1697" y2="359.1315" gradientTransform="matrix(56.6465 0 0 -56.6465 17799.7305 20358.4375)">
		<stop  offset="0" style="stop-color:#E30B54"/>
		<stop  offset="1" style="stop-color:#EA5036"/>
	</linearGradient>
	
		<rect x="43.5" y="12.1" style="clip-path:url(#SVGID_00000163770576632938978680000016228708500951933841_);fill:url(#SVGID_00000101782817011636410670000002817462862051352981_);" width="8.2" height="5.6"/>
</g>
<g>
	<defs>
		<path id="SVGID_00000145747926554234696270000017087834446993687948_" d="M17.6,20.5c-1.6,0-2.9,1.3-2.9,2.9v4
			c0,1.6,1.3,2.9,2.9,2.9h32.3c1.6,0,2.9-1.3,2.9-2.9v-4c0-1.6-1.3-2.9-2.9-2.9H17.6z"/>
	</defs>
	<clipPath id="SVGID_00000008110749873576507760000007663242653800927879_">
		<use xlink:href="#SVGID_00000145747926554234696270000017087834446993687948_"  style="overflow:visible;"/>
	</clipPath>
	
		<linearGradient id="SVGID_00000031906778725515047220000012677701957761560462_" gradientUnits="userSpaceOnUse" x1="-312.7751" y1="359.2517" x2="-311.7751" y2="359.2517" gradientTransform="matrix(38.0209 0 0 -38.0209 11906.7266 13684.4385)">
		<stop  offset="0" style="stop-color:#EAE6F4"/>
		<stop  offset="1" style="stop-color:#7B8BA5"/>
	</linearGradient>
	
		<rect x="14.7" y="20.5" style="clip-path:url(#SVGID_00000008110749873576507760000007663242653800927879_);fill:url(#SVGID_00000031906778725515047220000012677701957761560462_);" width="38" height="9.7"/>
</g>
<text transform="matrix(1 0 0 1 20.509 27.9336)"><tspan x="0" y="0" class="st7 st8 st9">B</tspan><tspan x="4.1" y="0" class="st7 st8 st9">us</tspan><tspan x="11.1" y="0" class="st7 st8 st9">in</tspan><tspan x="16.7" y="0" class="st7 st8 st9">e</tspan><tspan x="20.4" y="0" class="st7 st8 st9">s</tspan><tspan x="23.3" y="0" class="st7 st8 st9">s</tspan></text>
</svg>
