<?xml version="1.0" encoding="utf-8"?>
<!-- Generator: Adobe Illustrator 26.0.0, SVG Export Plug-In . SVG Version: 6.00 Build 0)  -->
<svg version="1.1" id="Calque_1" xmlns="http://www.w3.org/2000/svg" xmlns:xlink="http://www.w3.org/1999/xlink" x="0px" y="0px"
	 viewBox="0 0 55.8 30.2" style="enable-background:new 0 0 55.8 30.2;" xml:space="preserve">
<style type="text/css">
	
		.st0{clip-path:url(#SVGID_00000124134865219969786970000000480956226768834725_);fill:url(#SVGID_00000119801230513180363210000009514673809172939648_);}
	
		.st1{clip-path:url(#SVGID_00000072259414383281445510000015760025145941209778_);fill:url(#SVGID_00000133495809839020269030000011374818745906819007_);}
	
		.st2{clip-path:url(#SVGID_00000003806032005868776800000004080741675850294684_);fill:url(#SVGID_00000005241688924855165760000004339666967282398106_);}
	
		.st3{clip-path:url(#SVGID_00000181061762650935491530000007234438168760022693_);fill:url(#SVGID_00000060713862245064713340000013940060236484332182_);}
	
		.st4{clip-path:url(#SVGID_00000123433145861188185210000005279876622808676998_);fill:url(#SVGID_00000121256482963794457850000000320753090618305924_);}
	
		.st5{clip-path:url(#SVGID_00000152233104105179715250000005174801673180043922_);fill:url(#SVGID_00000106117638186020891450000016274521964589876398_);}
	
		.st6{clip-path:url(#SVGID_00000013193186217345480550000012480893648037844881_);fill:url(#SVGID_00000151528778348443308170000004349070749759339708_);}
	
		.st7{clip-path:url(#SVGID_00000042732765693789176590000012441426507642399627_);fill:url(#SVGID_00000161614693122128709440000000511419302212002704_);}
	
		.st8{clip-path:url(#SVGID_00000025422893239151260780000005139763132535074220_);fill:url(#SVGID_00000114046800584071280930000000139152940600341940_);}
	.st9{fill:#FFFFFF;}
	.st10{font-family:'Gilroy-Black';}
	.st11{font-size:6.667px;}
</style>
<g>
	<defs>
		<path id="SVGID_1_" d="M0.6,22.8c0-1.2,7.7-5,8-5.2c0,0.2,0,0.3,0,0.5c0,2.7-4.5,4.7-6.7,5c-0.2,0-0.4,0-0.6,0
			C0.9,23.1,0.6,23,0.6,22.8 M3.7,7.7c-0.4,0.9-0.6,1.7-0.6,2.4c0,3.2,3.7,4.5,5.3,7.2c-2.2,0.9-6,2.7-7.7,4.4
			C0.2,22.2,0,22.5,0,22.8c0,0.6,0.9,0.9,1.8,0.9c0.2,0,0.3,0,0.5,0c2.5-0.3,7.5-2.4,7.5-5.5c0-0.3-0.1-0.6-0.2-0.9
			c2.6-1.1,5.4-1.9,7.7-2.3c0.3,0,0.4-0.2,0.4-0.3c0-0.1-0.1-0.2-0.3-0.2c0,0-0.1,0-0.1,0c-2.4,0.4-5.3,1.4-8,2.4
			c-1.6-2.5-5.4-3.9-5.4-6.9c0-0.6,0.2-1.3,0.6-2.1c2-4,8.8-7.5,12.6-7.5c1.5,0,2.6,0.6,2.6,2c0,1.3-1,3.4-3.5,6.5
			C16.1,8.9,16,9.1,16,9.2c0,0.2,0.2,0.3,0.5,0.3c0.3,0,0.7-0.2,0.8-0.4c2.4-3,3.3-5.1,3.3-6.5c0-1.8-1.4-2.5-3.5-2.5
			C12.8,0,5.6,3.4,3.7,7.7"/>
	</defs>
	<clipPath id="SVGID_00000168106676785317433550000012480081440159194278_">
		<use xlink:href="#SVGID_1_"  style="overflow:visible;"/>
	</clipPath>
	
		<linearGradient id="SVGID_00000096019469664897596280000016907327939868579231_" gradientUnits="userSpaceOnUse" x1="-312.5123" y1="359.1552" x2="-311.5123" y2="359.1552" gradientTransform="matrix(63.8423 0 0 -63.8423 19951.4961 22941.1523)">
		<stop  offset="0" style="stop-color:#E30B54"/>
		<stop  offset="1" style="stop-color:#EA5036"/>
	</linearGradient>
	
		<rect style="clip-path:url(#SVGID_00000168106676785317433550000012480081440159194278_);fill:url(#SVGID_00000096019469664897596280000016907327939868579231_);" width="20.6" height="23.7"/>
</g>
<g>
	<defs>
		<path id="SVGID_00000156577820483403906850000015125037915349609910_" d="M17.1,16.4c0-0.1,0.5-0.8,0.8-1.2c0.4-0.5,0.8-1,1.3-1.4
			c0,0,0.2-0.1,0.2-0.2l0,0c0,0,0.1,0.1,0.2,0.1c0,0,0.1,0,0.1,0c0,0.1-1.7,2-1.9,2.2C17.4,16.2,17.1,16.4,17.1,16.4
			C17.1,16.4,17.1,16.4,17.1,16.4 M20.8,12.2c-0.1,0.1-0.8,1-0.9,1.1c-0.1-0.5-0.3-0.7-0.6-0.7c-0.2,0-0.4,0.1-0.7,0.3
			c-1.5,0.9-2.2,2.5-2.2,3.5c0,0.4,0.1,0.8,0.4,0.8c0.1,0,0.2,0,0.3-0.1c0.4-0.2,1-0.9,1.3-1.3c0.2-0.2,0.5-0.5,0.7-0.8
			c0,0,0.1-0.1,0.1-0.1c0,0-0.1,0.2-0.1,0.3c-0.1,0.3-0.3,1.1-0.3,1.6c0,0.2,0,0.3,0.1,0.4c0.1,0.3,0.3,0.4,0.6,0.4
			c1.5,0,4.9-3.6,5-3.9v0c0-0.1-0.1-0.2-0.2-0.2c-0.1,0-0.2,0.1-0.3,0.1c-0.1,0.1-0.3,0.2-0.4,0.3c-0.9,0.8-2.5,2.5-3.7,2.9
			c-0.1,0-0.1,0-0.2,0c-0.3,0-0.3-0.2-0.3-0.5c0-0.9,0.8-2.7,1-3c0.2-0.3,0.3-0.6,0.5-0.9c0,0,0,0,0-0.1c0-0.1,0-0.1,0-0.2
			c0-0.2-0.1-0.3-0.2-0.3C21,12.1,20.9,12.2,20.8,12.2"/>
	</defs>
	<clipPath id="SVGID_00000144303766230459964360000013138879034962827151_">
		<use xlink:href="#SVGID_00000156577820483403906850000015125037915349609910_"  style="overflow:visible;"/>
	</clipPath>
	
		<linearGradient id="SVGID_00000000217453508688344200000017271440596546899615_" gradientUnits="userSpaceOnUse" x1="-312.5121" y1="359.1076" x2="-311.5121" y2="359.1076" gradientTransform="matrix(63.8423 0 0 -63.8423 19951.4961 22941.1523)">
		<stop  offset="0" style="stop-color:#E30B54"/>
		<stop  offset="1" style="stop-color:#EA5036"/>
	</linearGradient>
	
		<rect x="16.5" y="12.1" style="clip-path:url(#SVGID_00000144303766230459964360000013138879034962827151_);fill:url(#SVGID_00000000217453508688344200000017271440596546899615_);" width="8.2" height="5.6"/>
</g>
<g>
	<defs>
		<path id="SVGID_00000126287788633627481180000003634659994130236559_" d="M24.8,12.8L24.8,12.8c-0.2,0.3-0.4,0.7-0.6,1
			c-0.2,0.3-0.4,0.7-0.5,1c-0.2,0.3-0.3,0.7-0.5,1l-0.4,1c0,0,0,0.1,0,0.1c0,0.1,0,0.2,0.1,0.2c0,0,0.1,0.1,0.1,0.1c0,0,0.1,0,0.1,0
			h0c0.1,0,0.2,0,0.2-0.2l0.2-0.3c0.2-0.3,0.4-0.6,0.6-0.9c0.1-0.2,0.3-0.4,0.4-0.6c0.1-0.2,0.3-0.4,0.5-0.6
			c0.2-0.3,0.4-0.5,0.6-0.7c0.2-0.2,0.3-0.3,0.4-0.4c0.1-0.1,0.2-0.1,0.2-0.2h0c0,0,0,0,0,0c0,0,0,0,0,0.1c0,0.1,0,0.4-0.1,0.7
			c-0.1,0.3-0.1,0.7-0.2,1c0,0.3,0,0.5,0,0.7c0,0.8,0.2,1.1,0.6,1.2h0c0.5,0,1.1-0.5,1.8-1.1c0.5-0.5,1-1,1.4-1.3l0.3-0.3
			c0.1-0.1,0.2-0.2,0.2-0.3c0,0,0-0.1,0-0.1c0,0-0.1,0-0.1-0.1h0c-0.1,0-0.2,0-0.3,0.1h0l-0.3,0.3c-0.3,0.3-0.8,0.8-1.3,1.2
			c-0.6,0.6-1.1,0.9-1.4,0.9c0,0-0.1,0-0.1,0c-0.1-0.1-0.2-0.3-0.2-0.6c0-0.3,0-0.6,0.1-1.1c0.1-0.4,0.1-0.8,0.2-1.2l0-0.4
			c0-0.2,0-0.3-0.1-0.4v0c-0.1-0.1-0.2-0.1-0.3-0.1h-0.1c-0.1,0-0.3,0.1-0.5,0.2l0,0c-0.2,0.1-0.4,0.3-0.7,0.6
			c-0.2,0.2-0.4,0.4-0.6,0.6c0-0.1,0.1-0.2,0.2-0.3c0.1-0.1,0.1-0.3,0.2-0.4c0.1-0.1,0.1-0.3,0.2-0.4c0.1-0.1,0.1-0.1,0.1-0.2
			c0,0,0-0.1,0-0.1c0,0-0.1-0.1-0.1-0.1c0,0-0.1,0-0.1,0c0,0,0,0-0.1,0C25.1,12.6,24.9,12.7,24.8,12.8"/>
	</defs>
	<clipPath id="SVGID_00000078763994195549079220000013599898152387206533_">
		<use xlink:href="#SVGID_00000126287788633627481180000003634659994130236559_"  style="overflow:visible;"/>
	</clipPath>
	
		<linearGradient id="SVGID_00000045612509033113459570000011247536767632146318_" gradientUnits="userSpaceOnUse" x1="-312.5122" y1="359.1066" x2="-311.5122" y2="359.1066" gradientTransform="matrix(63.8423 0 0 -63.8423 19951.4961 22941.1523)">
		<stop  offset="0" style="stop-color:#E30B54"/>
		<stop  offset="1" style="stop-color:#EA5036"/>
	</linearGradient>
	
		<rect x="22.7" y="12.6" style="clip-path:url(#SVGID_00000078763994195549079220000013599898152387206533_);fill:url(#SVGID_00000045612509033113459570000011247536767632146318_);" width="7.7" height="4.7"/>
</g>
<g>
	<defs>
		<path id="SVGID_00000172401989482808211130000003144396872619608977_" d="M32.7,10l0.7,0c-1,1.8-2.1,3.6-3.1,4.9
			C30.7,14,31.7,12,32.7,10 M34.7,6c0.4-0.7,0.6-1,0.7-1c0,0,0.1,0,0.1,0.1v0c0,0.7-1,2.9-1.9,4.4l-0.8,0C33.6,8.2,34.2,6.9,34.7,6
			 M34.3,5.5c-0.7,1.3-1.4,2.7-2.1,4.1c-2.7,0.1-5.1,0.2-7.2,0.2c-0.2,0-0.3,0.1-0.3,0.2v0c0,0.1,0.1,0.2,0.3,0.2
			c0.9,0,3.8-0.1,7-0.2c-2.3,4.7-4.5,9.8-5.6,14.4l0,0.3v0.1c0,0.3,0.1,0.5,0.2,0.5c0.1,0,0.3-0.3,0.4-0.9c0.7-2.7,1.9-5.9,3.1-8.5
			c0.9-1.1,2.7-3.6,4.2-6c2.2-0.1,4.4-0.1,6-0.1c0.9,0,1.6,0,2,0c0.3,0,0.2,0.3,0.4,0.3c0.2,0,0.6-0.3,0.6-0.4v0
			c0-0.2-0.3-0.3-0.7-0.4c-0.7,0-1.5-0.1-2.4-0.1c-1.7,0-3.6,0.1-5.7,0.2c1-1.6,1.7-3.2,1.7-4.2V5.1c0-0.6-0.2-1-0.6-1
			C35.3,4.2,34.8,4.5,34.3,5.5"/>
	</defs>
	<clipPath id="SVGID_00000000210630121873710540000007985292450919138449_">
		<use xlink:href="#SVGID_00000172401989482808211130000003144396872619608977_"  style="overflow:visible;"/>
	</clipPath>
	
		<linearGradient id="SVGID_00000054954765683908663020000004812806804122865795_" gradientUnits="userSpaceOnUse" x1="-312.5122" y1="359.1098" x2="-311.5122" y2="359.1098" gradientTransform="matrix(63.8423 0 0 -63.8423 19951.4961 22941.1523)">
		<stop  offset="0" style="stop-color:#E30B54"/>
		<stop  offset="1" style="stop-color:#EA5036"/>
	</linearGradient>
	
		<rect x="24.6" y="4.2" style="clip-path:url(#SVGID_00000000210630121873710540000007985292450919138449_);fill:url(#SVGID_00000054954765683908663020000004812806804122865795_);" width="18.6" height="21.2"/>
</g>
<g>
	<defs>
		<path id="SVGID_00000088132409186973308680000009680573944684939412_" d="M32.8,16.4c0-0.1,0.5-0.8,0.8-1.2c0.4-0.5,0.8-1,1.3-1.4
			c0,0,0.2-0.1,0.2-0.2l0,0c0,0,0.1,0.1,0.2,0.1c0,0,0.1,0,0.1,0c0,0.1-1.7,2-1.9,2.2C33.1,16.2,32.9,16.4,32.8,16.4
			C32.8,16.4,32.8,16.4,32.8,16.4 M36.6,12.2c-0.1,0.1-0.8,1-0.9,1.1c-0.1-0.5-0.3-0.7-0.6-0.7c-0.2,0-0.4,0.1-0.7,0.3
			c-1.5,0.9-2.2,2.5-2.2,3.5c0,0.4,0.1,0.8,0.4,0.8c0.1,0,0.2,0,0.3-0.1c0.4-0.2,1-0.9,1.3-1.3c0.2-0.2,0.5-0.5,0.7-0.8
			c0,0,0.1-0.1,0.1-0.1c0,0-0.1,0.2-0.1,0.3c-0.1,0.3-0.3,1.1-0.3,1.6c0,0.2,0,0.3,0.1,0.4c0.1,0.3,0.3,0.4,0.6,0.4
			c1.5,0,4.9-3.6,5-3.9v0c0-0.1-0.1-0.2-0.2-0.2c-0.1,0-0.2,0.1-0.3,0.1c-0.1,0.1-0.3,0.2-0.4,0.3c-0.9,0.8-2.5,2.5-3.7,2.9
			c-0.1,0-0.1,0-0.2,0c-0.3,0-0.3-0.2-0.3-0.5c0-0.9,0.8-2.7,1-3c0.2-0.3,0.3-0.6,0.5-0.9c0,0,0,0,0-0.1c0-0.1,0-0.1,0-0.2
			c0-0.2-0.1-0.3-0.2-0.3C36.7,12.1,36.6,12.2,36.6,12.2"/>
	</defs>
	<clipPath id="SVGID_00000097499034982283559590000003567598825612308137_">
		<use xlink:href="#SVGID_00000088132409186973308680000009680573944684939412_"  style="overflow:visible;"/>
	</clipPath>
	
		<linearGradient id="SVGID_00000162322363423595033280000013102855630395565226_" gradientUnits="userSpaceOnUse" x1="-312.5122" y1="359.1076" x2="-311.5122" y2="359.1076" gradientTransform="matrix(63.8423 0 0 -63.8423 19951.4961 22941.1523)">
		<stop  offset="0" style="stop-color:#E30B54"/>
		<stop  offset="1" style="stop-color:#EA5036"/>
	</linearGradient>
	
		<rect x="32.2" y="12.1" style="clip-path:url(#SVGID_00000097499034982283559590000003567598825612308137_);fill:url(#SVGID_00000162322363423595033280000013102855630395565226_);" width="8.2" height="5.6"/>
</g>
<g>
	<defs>
		<path id="SVGID_00000161599269079827158360000013940058420272875189_" d="M42.6,10l0.7,0c-1,1.8-2.1,3.6-3.1,4.9
			C40.6,14,41.6,12,42.6,10 M44.6,6c0.4-0.7,0.6-1,0.7-1c0,0,0.1,0,0.1,0.1v0c0,0.7-1,2.9-1.9,4.4l-0.8,0C43.5,8.2,44.1,6.9,44.6,6
			 M44.1,5.5c-0.7,1.3-1.4,2.7-2.1,4.1c-2.7,0.1-5.1,0.2-7.2,0.2c-0.2,0-0.3,0.1-0.3,0.2v0c0,0.1,0.1,0.2,0.3,0.2
			c0.9,0,3.8-0.1,7-0.2c-2.4,4.7-4.5,9.8-5.7,14.4l0,0.3v0.1c0,0.3,0.1,0.5,0.2,0.5c0.1,0,0.3-0.3,0.4-0.9c0.7-2.7,1.9-5.9,3.1-8.5
			c0.9-1.1,2.7-3.6,4.2-6c2.2-0.1,4.4-0.1,6-0.1c0.9,0,1.6,0,2,0c0.3,0,0.2,0.3,0.4,0.3c0.2,0,0.6-0.3,0.6-0.4v0
			c0-0.2-0.3-0.3-0.7-0.4c-0.7,0-1.5-0.1-2.4-0.1c-1.7,0-3.6,0.1-5.7,0.2c1-1.6,1.7-3.2,1.7-4.2V5.1c0-0.6-0.2-1-0.6-1
			C45.2,4.2,44.7,4.5,44.1,5.5"/>
	</defs>
	<clipPath id="SVGID_00000123441166426958959900000008450362396781136527_">
		<use xlink:href="#SVGID_00000161599269079827158360000013940058420272875189_"  style="overflow:visible;"/>
	</clipPath>
	
		<linearGradient id="SVGID_00000138543947725260139990000013422090706941739172_" gradientUnits="userSpaceOnUse" x1="-312.5122" y1="359.1098" x2="-311.5122" y2="359.1098" gradientTransform="matrix(63.8423 0 0 -63.8423 19951.4961 22941.1523)">
		<stop  offset="0" style="stop-color:#E30B54"/>
		<stop  offset="1" style="stop-color:#EA5036"/>
	</linearGradient>
	
		<rect x="34.5" y="4.2" style="clip-path:url(#SVGID_00000123441166426958959900000008450362396781136527_);fill:url(#SVGID_00000138543947725260139990000013422090706941739172_);" width="18.6" height="21.2"/>
</g>
<g>
	<defs>
		<path id="SVGID_00000134944322778125474660000008763646897531949493_" d="M43.9,12.6c-0.1,0.2-0.2,0.5-0.3,0.7
			c-0.2,0.4-1.4,3.1-1.4,3.7c0,0.2,0.1,0.2,0.3,0.2c0.2,0,0.4-0.1,0.6-0.3c0.4-0.7,0.8-1.5,1.3-2.1c0.4-0.6,1.1-1.5,1.4-1.5
			c0.2,0,0.2,0.5,0.4,0.8c0.2,0.7,0.6,0.9,1.1,0.9c0.5,0,1.2-0.3,1.7-0.6c0.1-0.1,0.2-0.1,0.2-0.2c0-0.1-0.1-0.2-0.2-0.2
			c0,0-0.1,0-0.1,0c-0.4,0.2-0.9,0.5-1.3,0.5c-0.2,0-0.4-0.1-0.6-0.3c-0.2-0.4-0.3-1.1-0.5-1.4c-0.1-0.1-0.2-0.1-0.3-0.1
			c-0.3,0-0.6,0.3-0.9,0.5c-0.5,0.5-0.8,1-1.2,1.5c0.2-0.5,0.4-1.1,0.6-1.6c0.1-0.2,0.2-0.4,0.2-0.6c0-0.2-0.1-0.2-0.3-0.2
			C44.3,12.3,44,12.5,43.9,12.6"/>
	</defs>
	<clipPath id="SVGID_00000126306066089672044120000002709431674045193910_">
		<use xlink:href="#SVGID_00000134944322778125474660000008763646897531949493_"  style="overflow:visible;"/>
	</clipPath>
	
		<linearGradient id="SVGID_00000097462734181228822340000007423100843376368298_" gradientUnits="userSpaceOnUse" x1="-312.5122" y1="359.1091" x2="-311.5122" y2="359.1091" gradientTransform="matrix(63.8423 0 0 -63.8423 19951.4961 22941.1523)">
		<stop  offset="0" style="stop-color:#E30B54"/>
		<stop  offset="1" style="stop-color:#EA5036"/>
	</linearGradient>
	
		<rect x="42.2" y="12.3" style="clip-path:url(#SVGID_00000126306066089672044120000002709431674045193910_);fill:url(#SVGID_00000097462734181228822340000007423100843376368298_);" width="6.8" height="4.9"/>
</g>
<g>
	<defs>
		<path id="SVGID_00000031187160129005406290000008527344596147903410_" d="M48.2,16.4c0-0.1,0.5-0.8,0.8-1.2c0.4-0.5,0.8-1,1.3-1.4
			c0,0,0.2-0.1,0.2-0.2l0,0c0,0,0.1,0.1,0.2,0.1c0,0,0.1,0,0.1,0c0,0.1-1.7,2-1.9,2.2C48.5,16.2,48.3,16.4,48.2,16.4
			C48.2,16.4,48.2,16.4,48.2,16.4 M51.9,12.2c-0.1,0.1-0.8,1-0.9,1.1c-0.1-0.5-0.3-0.7-0.6-0.7c-0.2,0-0.4,0.1-0.7,0.3
			c-1.5,0.9-2.2,2.5-2.2,3.5c0,0.4,0.1,0.8,0.4,0.8c0.1,0,0.2,0,0.3-0.1c0.4-0.2,1-0.9,1.3-1.3c0.2-0.2,0.5-0.5,0.7-0.8
			c0,0,0.1-0.1,0.1-0.1c0,0-0.1,0.2-0.1,0.3c-0.1,0.3-0.3,1.1-0.3,1.6c0,0.2,0,0.3,0.1,0.4c0.1,0.3,0.3,0.4,0.6,0.4
			c1.5,0,4.9-3.6,5-3.9v0c0-0.1-0.1-0.2-0.2-0.2c-0.1,0-0.2,0.1-0.3,0.1c-0.1,0.1-0.3,0.2-0.4,0.3c-0.9,0.8-2.5,2.5-3.7,2.9
			c-0.1,0-0.1,0-0.2,0c-0.3,0-0.3-0.2-0.3-0.5c0-0.9,0.8-2.7,1-3c0.2-0.3,0.3-0.6,0.5-0.9c0,0,0,0,0-0.1c0-0.1,0-0.1,0-0.2
			c0-0.2-0.1-0.3-0.2-0.3C52.1,12.1,52,12.2,51.9,12.2"/>
	</defs>
	<clipPath id="SVGID_00000072263095667032075270000014511511150658669752_">
		<use xlink:href="#SVGID_00000031187160129005406290000008527344596147903410_"  style="overflow:visible;"/>
	</clipPath>
	
		<linearGradient id="SVGID_00000132775330641093869630000011642516440716819111_" gradientUnits="userSpaceOnUse" x1="-312.5122" y1="359.1076" x2="-311.5122" y2="359.1076" gradientTransform="matrix(63.8423 0 0 -63.8423 19951.4961 22941.1523)">
		<stop  offset="0" style="stop-color:#E30B54"/>
		<stop  offset="1" style="stop-color:#EA5036"/>
	</linearGradient>
	
		<rect x="47.6" y="12.1" style="clip-path:url(#SVGID_00000072263095667032075270000014511511150658669752_);fill:url(#SVGID_00000132775330641093869630000011642516440716819111_);" width="8.2" height="5.6"/>
</g>
<g>
	<defs>
		<path id="SVGID_00000114070613351981179880000014878988378972300949_" d="M18.1,20.5c-1.6,0-2.9,1.3-2.9,2.9v4
			c0,1.6,1.3,2.9,2.9,2.9h32.3c1.6,0,2.9-1.3,2.9-2.9v-4c0-1.6-1.3-2.9-2.9-2.9H18.1z"/>
	</defs>
	<clipPath id="SVGID_00000031202943114958352080000016897000903654179225_">
		<use xlink:href="#SVGID_00000114070613351981179880000014878988378972300949_"  style="overflow:visible;"/>
	</clipPath>
	
		<linearGradient id="SVGID_00000108292759832535519030000000132598938080646302_" gradientUnits="userSpaceOnUse" x1="-309.4531" y1="359.2517" x2="-308.4531" y2="359.2517" gradientTransform="matrix(38.0209 0 0 -38.0209 11780.9023 13684.4385)">
		<stop  offset="0" style="stop-color:#F8C9CD"/>
		<stop  offset="1" style="stop-color:#9F577D"/>
	</linearGradient>
	
		<rect x="15.2" y="20.5" style="clip-path:url(#SVGID_00000031202943114958352080000016897000903654179225_);fill:url(#SVGID_00000108292759832535519030000000132598938080646302_);" width="38" height="9.7"/>
</g>
<text transform="matrix(1 0 0 1 23.2816 27.9336)"><tspan x="0" y="0" class="st9 st10 st11">S</tspan><tspan x="3.8" y="0" class="st9 st10 st11">t</tspan><tspan x="6.3" y="0" class="st9 st10 st11">a</tspan><tspan x="10.4" y="0" class="st9 st10 st11">r</tspan><tspan x="13" y="0" class="st9 st10 st11">t</tspan><tspan x="15.6" y="0" class="st9 st10 st11">er</tspan></text>
</svg>
