<?xml version="1.0" encoding="utf-8"?>
<!-- Generator: Adobe Illustrator 26.0.0, SVG Export Plug-In . SVG Version: 6.00 Build 0)  -->
<svg version="1.1" id="Calque_1" xmlns="http://www.w3.org/2000/svg" xmlns:xlink="http://www.w3.org/1999/xlink" x="0px" y="0px"
	 viewBox="0 0 56.8 30.2" style="enable-background:new 0 0 56.8 30.2;" xml:space="preserve">
<style type="text/css">
	
		.st0{clip-path:url(#SVGID_00000123407426999603986800000008172012427055387538_);fill:url(#SVGID_00000103950934780257260220000011078126954300276389_);}
	
		.st1{clip-path:url(#SVGID_00000016040316281409104800000018380656423012284815_);fill:url(#SVGID_00000117677481153860126970000012592754277098521222_);}
	
		.st2{clip-path:url(#SVGID_00000096018780414387303600000006577231252432214706_);fill:url(#SVGID_00000009558276341970609350000014735729789444519326_);}
	
		.st3{clip-path:url(#SVGID_00000137124138432966113770000013713935823161616566_);fill:url(#SVGID_00000152248407865437790550000009178770712600634264_);}
	
		.st4{clip-path:url(#SVGID_00000147928954532305108220000007601865714684703896_);fill:url(#SVGID_00000010311877198068382580000017710941673753877423_);}
	
		.st5{clip-path:url(#SVGID_00000045592388025506869250000015690156094533182652_);fill:url(#SVGID_00000102504063924225190620000012862509987717623462_);}
	
		.st6{clip-path:url(#SVGID_00000183932662781410089740000010630076940781178794_);fill:url(#SVGID_00000127722650993670304380000016184887032865413567_);}
	
		.st7{clip-path:url(#SVGID_00000023971691873532163690000013708931130032909725_);fill:url(#SVGID_00000039855162905453421700000003346998238493621676_);}
	.st8{fill:#FFFFFF;}
	.st9{font-family:'Gilroy-Black';}
	.st10{font-size:6.667px;}
</style>
<g>
	<defs>
		<path id="SVGID_1_" d="M0.6,22.8c0-1.2,7.7-5,8-5.2c0,0.2,0,0.3,0,0.5c0,2.7-4.5,4.7-6.7,5c-0.2,0-0.4,0-0.6,0
			C0.9,23.1,0.6,23,0.6,22.8 M3.7,7.7c-0.4,0.9-0.6,1.7-0.6,2.4c0,3.2,3.7,4.5,5.3,7.2c-2.2,0.9-6,2.7-7.7,4.4
			C0.2,22.2,0,22.5,0,22.8c0,0.6,0.9,0.9,1.8,0.9c0.2,0,0.3,0,0.5,0c2.5-0.3,7.5-2.4,7.5-5.5c0-0.3-0.1-0.6-0.2-0.9
			c2.6-1.1,5.4-1.9,7.7-2.3c0.3,0,0.4-0.2,0.4-0.3c0-0.1-0.1-0.2-0.3-0.2c0,0-0.1,0-0.1,0c-2.4,0.4-5.3,1.4-8,2.4
			c-1.6-2.5-5.4-3.9-5.4-6.9c0-0.6,0.2-1.3,0.6-2.1c2-4,8.8-7.5,12.6-7.5c1.5,0,2.6,0.6,2.6,2c0,1.3-1,3.4-3.5,6.5
			C16.1,8.9,16,9.1,16,9.2c0,0.2,0.2,0.3,0.5,0.3c0.3,0,0.7-0.2,0.8-0.4c2.4-3,3.3-5.1,3.3-6.5c0-1.8-1.4-2.5-3.5-2.5
			C12.8,0,5.6,3.4,3.7,7.7"/>
	</defs>
	<clipPath id="SVGID_00000103223028409719882170000006149741185217476016_">
		<use xlink:href="#SVGID_1_"  style="overflow:visible;"/>
	</clipPath>
	
		<linearGradient id="SVGID_00000130631097828444931720000000245702880362356636_" gradientUnits="userSpaceOnUse" x1="-315.0127" y1="359.1506" x2="-314.0127" y2="359.1506" gradientTransform="matrix(65.0991 0 0 -65.0991 20507.0508 23392.2539)">
		<stop  offset="0" style="stop-color:#E30B54"/>
		<stop  offset="1" style="stop-color:#EA5036"/>
	</linearGradient>
	
		<rect x="0" style="clip-path:url(#SVGID_00000103223028409719882170000006149741185217476016_);fill:url(#SVGID_00000130631097828444931720000000245702880362356636_);" width="20.6" height="23.7"/>
</g>
<g>
	<defs>
		<path id="SVGID_00000073720392234253530120000008481777521141333162_" d="M17.1,16.4c0-0.1,0.5-0.8,0.8-1.2c0.4-0.5,0.8-1,1.3-1.4
			c0,0,0.2-0.1,0.2-0.2l0,0c0,0,0.1,0.1,0.2,0.1c0,0,0.1,0,0.1,0c0,0.1-1.7,2-1.9,2.2C17.4,16.2,17.1,16.4,17.1,16.4
			C17.1,16.4,17.1,16.4,17.1,16.4 M20.8,12.2c-0.1,0.1-0.8,1-0.9,1.1c-0.1-0.5-0.3-0.7-0.6-0.7c-0.2,0-0.4,0.1-0.7,0.3
			c-1.5,0.9-2.2,2.5-2.2,3.5c0,0.4,0.1,0.8,0.4,0.8c0.1,0,0.2,0,0.3-0.1c0.4-0.2,1-0.9,1.3-1.3c0.2-0.2,0.5-0.5,0.7-0.8
			c0,0,0.1-0.1,0.1-0.1c0,0-0.1,0.2-0.1,0.3c-0.1,0.3-0.3,1.1-0.3,1.6c0,0.2,0,0.3,0.1,0.4c0.1,0.3,0.3,0.4,0.6,0.4
			c1.5,0,4.9-3.6,5-3.9v0c0-0.1-0.1-0.2-0.2-0.2c-0.1,0-0.2,0.1-0.3,0.1c-0.1,0.1-0.3,0.2-0.4,0.3c-0.9,0.8-2.5,2.5-3.7,2.9
			c-0.1,0-0.1,0-0.2,0c-0.3,0-0.3-0.2-0.3-0.5c0-0.9,0.8-2.7,1-3c0.2-0.3,0.3-0.6,0.5-0.9c0,0,0,0,0-0.1c0-0.1,0-0.1,0-0.2
			c0-0.2-0.1-0.3-0.2-0.3C21,12.1,20.9,12.2,20.8,12.2"/>
	</defs>
	<clipPath id="SVGID_00000029746840024922027200000001751678664733286024_">
		<use xlink:href="#SVGID_00000073720392234253530120000008481777521141333162_"  style="overflow:visible;"/>
	</clipPath>
	
		<linearGradient id="SVGID_00000068675801711699244240000012893535046222177963_" gradientUnits="userSpaceOnUse" x1="-315.0126" y1="359.104" x2="-314.0126" y2="359.104" gradientTransform="matrix(65.0991 0 0 -65.0991 20507.0508 23392.2539)">
		<stop  offset="0" style="stop-color:#E30B54"/>
		<stop  offset="1" style="stop-color:#EA5036"/>
	</linearGradient>
	
		<rect x="16.5" y="12.1" style="clip-path:url(#SVGID_00000029746840024922027200000001751678664733286024_);fill:url(#SVGID_00000068675801711699244240000012893535046222177963_);" width="8.2" height="5.6"/>
</g>
<g>
	<defs>
		<path id="SVGID_00000180360721013979165670000017261301157339301310_" d="M24.8,12.8L24.8,12.8c-0.2,0.3-0.4,0.7-0.6,1
			c-0.2,0.3-0.4,0.7-0.5,1c-0.2,0.3-0.3,0.7-0.5,1l-0.4,1c0,0,0,0.1,0,0.1c0,0.1,0,0.2,0.1,0.2c0,0,0.1,0.1,0.1,0.1c0,0,0.1,0,0.1,0
			h0c0.1,0,0.2,0,0.2-0.2l0.2-0.3c0.2-0.3,0.4-0.6,0.6-0.9c0.1-0.2,0.3-0.4,0.4-0.6c0.1-0.2,0.3-0.4,0.5-0.6
			c0.2-0.3,0.4-0.5,0.6-0.7c0.2-0.2,0.3-0.3,0.4-0.4c0.1-0.1,0.2-0.1,0.2-0.2h0c0,0,0,0,0,0c0,0,0,0,0,0.1c0,0.1,0,0.4-0.1,0.7
			c-0.1,0.3-0.1,0.7-0.2,1c0,0.3,0,0.5,0,0.7c0,0.8,0.2,1.1,0.6,1.2h0c0.5,0,1.1-0.5,1.8-1.1c0.5-0.5,1-1,1.4-1.3l0.3-0.3
			c0.1-0.1,0.2-0.2,0.2-0.3c0,0,0-0.1,0-0.1c0,0-0.1,0-0.1-0.1h0c-0.1,0-0.2,0-0.3,0.1h0l-0.3,0.3c-0.3,0.3-0.8,0.8-1.3,1.2
			c-0.6,0.6-1.1,0.9-1.4,0.9c0,0-0.1,0-0.1,0c-0.1-0.1-0.2-0.3-0.2-0.6c0-0.3,0-0.6,0.1-1.1c0.1-0.4,0.1-0.8,0.2-1.2l0-0.4
			c0-0.2,0-0.3-0.1-0.4v0c-0.1-0.1-0.2-0.1-0.3-0.1h-0.1c-0.1,0-0.3,0.1-0.5,0.2l0,0c-0.2,0.1-0.4,0.3-0.7,0.6
			c-0.2,0.2-0.4,0.4-0.6,0.6c0-0.1,0.1-0.2,0.2-0.3c0.1-0.1,0.1-0.3,0.2-0.4c0.1-0.1,0.1-0.3,0.2-0.4c0.1-0.1,0.1-0.1,0.1-0.2
			c0,0,0-0.1,0-0.1c0,0-0.1-0.1-0.1-0.1c0,0-0.1,0-0.1,0c0,0,0,0-0.1,0C25.1,12.6,24.9,12.7,24.8,12.8"/>
	</defs>
	<clipPath id="SVGID_00000020381225596468843430000016501116479435921327_">
		<use xlink:href="#SVGID_00000180360721013979165670000017261301157339301310_"  style="overflow:visible;"/>
	</clipPath>
	
		<linearGradient id="SVGID_00000101786477668977713980000012448921657508997531_" gradientUnits="userSpaceOnUse" x1="-315.0127" y1="359.103" x2="-314.0127" y2="359.103" gradientTransform="matrix(65.0991 0 0 -65.0991 20507.0508 23392.2539)">
		<stop  offset="0" style="stop-color:#E30B54"/>
		<stop  offset="1" style="stop-color:#EA5036"/>
	</linearGradient>
	
		<rect x="22.7" y="12.6" style="clip-path:url(#SVGID_00000020381225596468843430000016501116479435921327_);fill:url(#SVGID_00000101786477668977713980000012448921657508997531_);" width="7.7" height="4.7"/>
</g>
<g>
	<defs>
		<path id="SVGID_00000022525603443550961690000010437678866700421797_" d="M26.8,25c-0.1-0.1-0.2-0.3-0.3-0.5c0-0.1,0-0.2,0-0.4
			c0-0.6,0.3-1.4,0.8-2.3c0.5-0.8,1.2-1.6,1.9-2.3c0.9-0.9,1.8-1.7,2.3-2.1l-0.1,0.3c-0.4,1-1.1,3-2,4.7c-0.8,1.6-1.5,2.3-2,2.5
			c-0.1,0-0.2,0-0.3,0C27,25.1,26.9,25.1,26.8,25 M29.5,16.3c0-0.1,0.4-0.8,0.9-1.4c0.5-0.7,1.2-1.3,1.5-1.3c0.1,0,0.2,0.1,0.2,0.3
			c-0.1,0.1-0.3,0.3-0.5,0.5c-0.5,0.5-1,1.1-1.3,1.3h0C29.8,16.2,29.6,16.3,29.5,16.3L29.5,16.3L29.5,16.3z M31.7,12.7
			c-0.5,0-1.2,0.6-1.8,1.3c-0.4,0.6-0.8,1.2-1,1.7c-0.1,0.3-0.2,0.6-0.2,0.8c0,0.1,0,0.2,0.1,0.3c0,0,0.1,0.1,0.2,0.1
			c0.5,0,1.6-0.8,3.8-3.2c-0.1,0.4-0.2,0.7-0.4,1.2c-0.2,0.5-0.4,1.1-0.6,1.6c-0.6,0.4-1.8,1.4-3,2.5c-0.8,0.8-1.6,1.6-2.1,2.5
			c-0.6,0.9-0.8,1.7-0.8,2.4c0,0.3,0,0.5,0.1,0.7c0.1,0.3,0.3,0.5,0.5,0.7c0.2,0.1,0.3,0.1,0.5,0.1c0.1,0,0.2,0,0.3,0
			c0.8-0.1,1.7-0.9,2.6-2.6c1.3-2.4,2.1-4.9,2.5-5.9c0.8-0.5,1.6-1,2.4-1.4c0.9-0.5,1.7-0.9,2.5-1.2c0.3-0.1,0.4-0.3,0.4-0.3
			c0-0.1-0.1-0.1-0.2-0.1c-0.1,0-0.2,0-0.4,0.1c-0.7,0.3-1.4,0.6-2.1,1c-0.7,0.3-1.4,0.7-2.1,1.1c0.1-0.4,0.2-0.7,0.4-1.1
			c0.1-0.4,0.2-0.7,0.3-1.1c0.1-0.2,0.1-0.4,0.1-0.6l0-0.1c0-0.2-0.1-0.3-0.2-0.3c-0.3,0-0.7,0.4-0.9,0.6c0-0.2-0.1-0.4-0.3-0.6
			C32.1,12.8,31.9,12.7,31.7,12.7L31.7,12.7z"/>
	</defs>
	<clipPath id="SVGID_00000119817931312463678010000018037219024625306279_">
		<use xlink:href="#SVGID_00000022525603443550961690000010437678866700421797_"  style="overflow:visible;"/>
	</clipPath>
	
		<linearGradient id="SVGID_00000164512653927748400430000002179897561727920021_" gradientUnits="userSpaceOnUse" x1="-315.0127" y1="359.0394" x2="-314.0127" y2="359.0394" gradientTransform="matrix(65.0991 0 0 -65.0991 20507.0508 23392.2539)">
		<stop  offset="0" style="stop-color:#E30B54"/>
		<stop  offset="1" style="stop-color:#EA5036"/>
	</linearGradient>
	
		<rect x="25.9" y="12.7" style="clip-path:url(#SVGID_00000119817931312463678010000018037219024625306279_);fill:url(#SVGID_00000164512653927748400430000002179897561727920021_);" width="11.8" height="12.7"/>
</g>
<g>
	<defs>
		<path id="SVGID_00000119115586636058732770000004348013981331194013_" d="M36.6,16.4c0-0.1,0.5-0.8,0.8-1.2c0.4-0.5,0.8-1,1.3-1.4
			c0,0,0.2-0.1,0.2-0.2l0,0c0,0,0.1,0.1,0.2,0.1c0,0,0.1,0,0.1,0c0,0.1-1.7,2-1.9,2.2C36.9,16.2,36.7,16.4,36.6,16.4
			C36.6,16.4,36.6,16.4,36.6,16.4 M40.4,12.2c-0.1,0.1-0.8,1-0.9,1.1c-0.1-0.5-0.3-0.7-0.6-0.7c-0.2,0-0.4,0.1-0.7,0.3
			c-1.5,0.9-2.2,2.5-2.2,3.5c0,0.4,0.1,0.8,0.4,0.8c0.1,0,0.2,0,0.3-0.1c0.4-0.2,1-0.9,1.3-1.3c0.2-0.2,0.5-0.5,0.7-0.8
			c0,0,0.1-0.1,0.1-0.1c0,0-0.1,0.2-0.1,0.3c-0.1,0.3-0.3,1.1-0.3,1.6c0,0.2,0,0.3,0.1,0.4c0.1,0.3,0.3,0.4,0.6,0.4
			c1.5,0,4.9-3.6,5-3.9v0c0-0.1-0.1-0.2-0.2-0.2c-0.1,0-0.2,0.1-0.3,0.1c-0.1,0.1-0.3,0.2-0.4,0.3c-0.9,0.8-2.5,2.5-3.7,2.9
			c-0.1,0-0.1,0-0.2,0c-0.3,0-0.3-0.2-0.3-0.5c0-0.9,0.8-2.7,1-3c0.2-0.3,0.3-0.6,0.5-0.9c0,0,0,0,0-0.1c0-0.1,0-0.1,0-0.2
			c0-0.2-0.1-0.3-0.2-0.3C40.5,12.1,40.4,12.2,40.4,12.2"/>
	</defs>
	<clipPath id="SVGID_00000126309179275360322080000004429798763168164525_">
		<use xlink:href="#SVGID_00000119115586636058732770000004348013981331194013_"  style="overflow:visible;"/>
	</clipPath>
	
		<linearGradient id="SVGID_00000156571409253051264060000007556445551021481611_" gradientUnits="userSpaceOnUse" x1="-315.0127" y1="359.104" x2="-314.0127" y2="359.104" gradientTransform="matrix(65.0991 0 0 -65.0991 20507.0508 23392.2539)">
		<stop  offset="0" style="stop-color:#E30B54"/>
		<stop  offset="1" style="stop-color:#EA5036"/>
	</linearGradient>
	
		<rect x="36.1" y="12.1" style="clip-path:url(#SVGID_00000126309179275360322080000004429798763168164525_);fill:url(#SVGID_00000156571409253051264060000007556445551021481611_);" width="8.2" height="5.6"/>
</g>
<g>
	<defs>
		<path id="SVGID_00000063618574554424947500000009607245891992811178_" d="M44.4,12.8L44.4,12.8c-0.2,0.3-0.4,0.7-0.6,1
			c-0.2,0.3-0.4,0.7-0.5,1c-0.2,0.3-0.3,0.7-0.5,1l-0.4,1c0,0,0,0.1,0,0.1c0,0.1,0,0.2,0.1,0.2c0,0,0.1,0.1,0.1,0.1c0,0,0.1,0,0.1,0
			h0c0.1,0,0.2,0,0.2-0.2l0.2-0.3c0.2-0.3,0.4-0.6,0.6-0.9c0.1-0.2,0.3-0.4,0.4-0.6c0.1-0.2,0.3-0.4,0.5-0.6
			c0.2-0.3,0.4-0.5,0.6-0.7c0.2-0.2,0.3-0.3,0.4-0.4c0.1-0.1,0.2-0.1,0.2-0.2h0c0,0,0,0,0,0c0,0,0,0,0,0.1c0,0.1,0,0.4-0.1,0.7
			c-0.1,0.3-0.1,0.7-0.2,1c0,0.3,0,0.5,0,0.7c0,0.8,0.2,1.1,0.6,1.2h0c0.5,0,1.1-0.5,1.8-1.1c0.5-0.5,1-1,1.4-1.3l0.3-0.3
			c0.1-0.1,0.2-0.2,0.2-0.3c0,0,0-0.1,0-0.1c0,0-0.1,0-0.1-0.1h0c-0.1,0-0.2,0-0.3,0.1h0l-0.3,0.3c-0.3,0.3-0.8,0.8-1.3,1.2
			c-0.6,0.6-1.1,0.9-1.4,0.9c0,0-0.1,0-0.1,0c-0.1-0.1-0.2-0.3-0.2-0.6c0-0.3,0-0.6,0.1-1.1c0.1-0.4,0.1-0.8,0.2-1.2l0-0.4
			c0-0.2,0-0.3-0.1-0.4v0c-0.1-0.1-0.2-0.1-0.3-0.1h-0.1c-0.1,0-0.3,0.1-0.5,0.2l0,0c-0.2,0.1-0.4,0.3-0.7,0.6
			c-0.2,0.2-0.4,0.4-0.6,0.6c0-0.1,0.1-0.2,0.2-0.3c0.1-0.1,0.1-0.3,0.2-0.4c0.1-0.1,0.1-0.3,0.2-0.4c0.1-0.1,0.1-0.1,0.1-0.2
			c0,0,0-0.1,0-0.1c0,0-0.1-0.1-0.1-0.1c0,0-0.1,0-0.1,0c0,0,0,0-0.1,0C44.6,12.6,44.5,12.7,44.4,12.8"/>
	</defs>
	<clipPath id="SVGID_00000036253756242451192970000006671395494446400413_">
		<use xlink:href="#SVGID_00000063618574554424947500000009607245891992811178_"  style="overflow:visible;"/>
	</clipPath>
	
		<linearGradient id="SVGID_00000131339531869530636180000017846881195620196016_" gradientUnits="userSpaceOnUse" x1="-315.0127" y1="359.103" x2="-314.0127" y2="359.103" gradientTransform="matrix(65.0991 0 0 -65.0991 20507.0508 23392.2539)">
		<stop  offset="0" style="stop-color:#E30B54"/>
		<stop  offset="1" style="stop-color:#EA5036"/>
	</linearGradient>
	
		<rect x="42.3" y="12.6" style="clip-path:url(#SVGID_00000036253756242451192970000006671395494446400413_);fill:url(#SVGID_00000131339531869530636180000017846881195620196016_);" width="7.7" height="4.7"/>
</g>
<g>
	<defs>
		<path id="SVGID_00000181796089728953509010000004055346194623616171_" d="M46.8,24.1c0-0.6,0.4-1.7,1.2-3c0.6-1,1.3-1.7,1.9-2.4
			c0.6-0.6,1.4-1.3,1.8-1.6c-0.8,2-1.4,3.3-2.5,5.3c-0.9,1.6-1.6,2.2-2,2.2C46.9,24.7,46.8,24.5,46.8,24.1 M50.2,12.7
			c-0.1,0.1-0.2,0.1-0.3,0.3c-0.5,0.8-1,2.3-1,3.2v0.1c0,0.2,0.1,0.4,0.2,0.6c0.1,0.1,0.2,0.2,0.4,0.2l0.1,0
			c0.3-0.1,0.7-0.3,1.2-0.8c0.5-0.5,1.1-1.1,1.6-1.7c0.1-0.1,0.1-0.1,0.2-0.2c-0.3,0.9-0.7,1.8-0.8,2.1c-0.5,0.4-1.3,0.9-2,1.6
			c-0.8,0.7-1.7,1.6-2.4,2.7c-0.8,1.1-1.1,2.2-1.1,3.1c0,0.8,0.3,1.4,0.9,1.4c0.6,0,1.5-0.7,2.5-2.4c1.1-1.9,1.9-3.9,2.7-6
			c0.9-0.6,1.5-0.9,2.2-1.3c0.6-0.3,1.2-0.6,1.9-1c0.2-0.1,0.3-0.2,0.3-0.3c0-0.1,0-0.1-0.1-0.1c-0.1,0-0.2,0-0.4,0.1
			c-0.6,0.3-1.2,0.6-1.7,0.9s-1.2,0.6-1.9,1c0.1-0.3,0.9-2.3,1.1-3l0-0.1c0-0.1-0.1-0.2-0.3-0.2c-0.2,0-0.3,0.1-0.4,0.2
			c-0.1,0.2-0.6,0.8-1.1,1.4c-0.4,0.4-0.7,0.9-1.1,1.3c-0.5,0.5-0.9,0.9-1.2,1l-0.1,0c-0.1,0-0.1,0-0.1-0.2c0-0.1,0-0.3,0.1-0.7
			c0.1-0.3,0.2-0.6,0.4-1c0.3-0.5,0.5-1.1,0.7-1.4c0.1-0.2,0.2-0.3,0.2-0.4c0-0.1,0-0.1-0.1-0.2c-0.1-0.1-0.3-0.1-0.4-0.1L50.2,12.7
			z"/>
	</defs>
	<clipPath id="SVGID_00000022529411377523210780000002441413292018309793_">
		<use xlink:href="#SVGID_00000181796089728953509010000004055346194623616171_"  style="overflow:visible;"/>
	</clipPath>
	
		<linearGradient id="SVGID_00000088821175971526879020000006868436803749800073_" gradientUnits="userSpaceOnUse" x1="-315.0127" y1="359.0422" x2="-314.0127" y2="359.0422" gradientTransform="matrix(65.0991 0 0 -65.0991 20507.0508 23392.2539)">
		<stop  offset="0" style="stop-color:#E30B54"/>
		<stop  offset="1" style="stop-color:#EA5036"/>
	</linearGradient>
	
		<rect x="46.3" y="12.7" style="clip-path:url(#SVGID_00000022529411377523210780000002441413292018309793_);fill:url(#SVGID_00000088821175971526879020000006868436803749800073_);" width="10.5" height="12.5"/>
</g>
<g>
	<defs>
		<path id="SVGID_00000065769658867389821150000018252899226078249132_" d="M18.7,20.5c-1.6,0-2.9,1.3-2.9,2.9v4
			c0,1.6,1.3,2.9,2.9,2.9H51c1.6,0,2.9-1.3,2.9-2.9v-4c0-1.6-1.3-2.9-2.9-2.9H18.7z"/>
	</defs>
	<clipPath id="SVGID_00000060027478706389227040000018157598489716585650_">
		<use xlink:href="#SVGID_00000065769658867389821150000018252899226078249132_"  style="overflow:visible;"/>
	</clipPath>
	
		<linearGradient id="SVGID_00000085965294663540670130000011193225585310464410_" gradientUnits="userSpaceOnUse" x1="-313.9298" y1="359.2517" x2="-312.9298" y2="359.2517" gradientTransform="matrix(38.0209 0 0 -38.0209 11951.7393 13684.4375)">
		<stop  offset="0" style="stop-color:#FDDD70"/>
		<stop  offset="1" style="stop-color:#A46815"/>
	</linearGradient>
	
		<rect x="15.8" y="20.5" style="clip-path:url(#SVGID_00000060027478706389227040000018157598489716585650_);fill:url(#SVGID_00000085965294663540670130000011193225585310464410_);" width="38" height="9.7"/>
</g>
<text transform="matrix(1 0 0 1 18.8396 27.9336)"><tspan x="0" y="0" class="st8 st9 st10">C</tspan><tspan x="4.8" y="0" class="st8 st9 st10">orpo</tspan><tspan x="19.2" y="0" class="st8 st9 st10">r</tspan><tspan x="21.6" y="0" class="st8 st9 st10">a</tspan><tspan x="25.7" y="0" class="st8 st9 st10">t</tspan><tspan x="28.2" y="0" class="st8 st9 st10">e</tspan></text>
</svg>
