<svg width="18" height="18" viewBox="0 0 18 18" fill="none" xmlns="http://www.w3.org/2000/svg">
<path d="M5.55393 14.2241C4.62393 14.2241 3.86993 14.9781 3.86993 15.9081C3.86993 16.8381 4.62393 17.5921 5.55393 17.5921C6.48393 17.5921 7.23793 16.8381 7.23793 15.9081C7.23793 14.9781 6.48393 14.2241 5.55393 14.2241ZM0.50293 0.753101V2.4361H2.18593L5.21793 8.8271L4.08093 10.8901C3.94193 11.1361 3.86893 11.4151 3.86993 11.6981C3.87293 12.6271 4.62493 13.3791 5.55393 13.3821H15.6579V11.6981H5.90793C5.79293 11.6991 5.69893 11.6071 5.69693 11.4921V11.4881L5.72293 11.3871L6.48093 10.0141H12.7529C13.3659 10.0161 13.9309 9.6841 14.2269 9.1471L17.2409 3.6831C17.3089 3.5591 17.3429 3.4201 17.3419 3.2781C17.3419 2.8131 16.9649 2.4361 16.4999 2.4361H4.04693L3.25593 0.753101H0.50293ZM13.9739 14.2241C13.0439 14.2241 12.2899 14.9781 12.2899 15.9081C12.2899 16.8381 13.0439 17.5921 13.9739 17.5921C14.9039 17.5921 15.6579 16.8381 15.6579 15.9081C15.6579 14.9781 14.9039 14.2241 13.9739 14.2241Z" fill="#C9C9C9"/>
</svg>
