<?xml version="1.0" encoding="utf-8"?>
<!-- Generator: Adobe Illustrator 26.0.0, SVG Export Plug-In . SVG Version: 6.00 Build 0)  -->
<svg version="1.1" id="Calque_1" xmlns="http://www.w3.org/2000/svg" xmlns:xlink="http://www.w3.org/1999/xlink" x="0px" y="0px"
	 viewBox="0 0 18 18" style="enable-background:new 0 0 18 18;" xml:space="preserve">
<style type="text/css">
	.st0{fill:#707070;}
</style>
<path class="st0" d="M5.6,14.2c-0.9,0-1.7,0.8-1.7,1.7c0,0.9,0.8,1.7,1.7,1.7s1.7-0.8,1.7-1.7C7.2,15,6.5,14.2,5.6,14.2z M0.5,0.8
	v1.7h1.7l3,6.4l-1.1,2.1c-0.1,0.2-0.2,0.5-0.2,0.8c0,0.9,0.8,1.7,1.7,1.7h10.1v-1.7H5.9c-0.1,0-0.2-0.1-0.2-0.2v0l0-0.1L6.5,10h6.3
	c0.6,0,1.2-0.3,1.5-0.9l3-5.5c0.1-0.1,0.1-0.3,0.1-0.4c0-0.5-0.4-0.8-0.8-0.8H4L3.3,0.8H0.5z M14,14.2c-0.9,0-1.7,0.8-1.7,1.7
	c0,0.9,0.8,1.7,1.7,1.7s1.7-0.8,1.7-1.7C15.7,15,14.9,14.2,14,14.2z"/>
</svg>
