<svg width="41" height="41" viewBox="0 0 41 41" fill="none" xmlns="http://www.w3.org/2000/svg">
<path d="M37.125 11.8125L29.625 15.5625M29.625 15.5625L28.6875 16.0312L20.25 20.25M29.625 15.5625V22.125M29.625 15.5625L11.8125 6.1875M20.25 20.25L3.375 11.8125M20.25 20.25V38.0625M26.9588 4.09125L30.7087 6.06C34.7419 8.17688 36.7594 9.23437 37.8806 11.1375C39 13.0387 39 15.4069 39 20.1413V20.3606C39 25.0931 39 27.4613 37.8806 29.3625C36.7594 31.2656 34.7419 32.325 30.7087 34.4419L26.9588 36.4088C23.6663 38.1356 22.02 39 20.25 39C18.48 39 16.8337 38.1375 13.5412 36.4088L9.79125 34.44C5.75812 32.3231 3.74062 31.2656 2.61937 29.3625C1.5 27.4613 1.5 25.0931 1.5 20.3625V20.1431C1.5 15.4087 1.5 13.0406 2.61937 11.1394C3.74062 9.23625 5.75812 8.17688 9.79125 6.06188L13.5412 4.09312C16.8337 2.36437 18.48 1.5 20.25 1.5C22.02 1.5 23.6663 2.3625 26.9588 4.09125Z" stroke="#E11C68" stroke-width="3" stroke-linecap="round"/>
</svg>
