<svg width="161" height="319" viewBox="0 0 161 319" fill="none" xmlns="http://www.w3.org/2000/svg">
<mask id="mask0_42_821" style="mask-type:alpha" maskUnits="userSpaceOnUse" x="20" y="21" width="121" height="120">
<path d="M20.1699 81.0357C20.1699 114.126 46.9959 140.952 80.0865 140.952C113.177 140.952 140.003 114.126 140.003 81.0357C140.003 47.9452 113.177 21.1191 80.0865 21.1191C46.9959 21.1191 20.1699 47.9452 20.1699 81.0357Z" fill="url(#paint0_linear_42_821)"/>
</mask>
<g mask="url(#mask0_42_821)">
<rect x="20.5865" y="20.9326" width="119" height="120" fill="url(#paint1_linear_42_821)"/>
</g>
<mask id="mask1_42_821" style="mask-type:alpha" maskUnits="userSpaceOnUse" x="0" y="0" width="161" height="319">
<rect y="0.949219" width="160.173" height="317.933" fill="#D9D9D9"/>
</mask>
<g mask="url(#mask1_42_821)">
<path d="M80.0865 159.936C36.5111 159.936 1.18646 124.611 1.18646 81.0358C1.18646 37.4604 36.5111 2.13574 80.0865 2.13574" stroke="#D71A34" stroke-width="2"/>
</g>
<mask id="mask2_42_821" style="mask-type:alpha" maskUnits="userSpaceOnUse" x="20" y="178" width="121" height="121">
<path d="M20.1699 238.795C20.1699 271.886 46.9959 298.712 80.0865 298.712C113.177 298.712 140.003 271.886 140.003 238.795C140.003 205.705 113.177 178.879 80.0865 178.879C46.9959 178.879 20.1699 205.705 20.1699 238.795Z" fill="#F5BF2A"/>
</mask>
<g mask="url(#mask2_42_821)">
<rect x="20.1699" y="178.879" width="119.833" height="119.833" fill="#F5BF2A"/>
</g>
<mask id="mask3_42_821" style="mask-type:alpha" maskUnits="userSpaceOnUse" x="0" y="0" width="161" height="319">
<rect y="0.949219" width="160.173" height="317.933" fill="#D9D9D9"/>
</mask>
<g mask="url(#mask3_42_821)">
<path d="M80.0865 159.896C123.662 159.896 158.987 195.22 158.987 238.796C158.987 282.371 123.662 317.696 80.0865 317.696" stroke="#F5BF2A" stroke-width="2"/>
</g>
<defs>
<linearGradient id="paint0_linear_42_821" x1="50.1282" y1="51.0774" x2="50.1282" y2="51.0774" gradientUnits="userSpaceOnUse">
<stop offset="1" stop-color="#DF5531"/>
<stop stop-color="#E20E56"/>
</linearGradient>
<linearGradient id="paint1_linear_42_821" x1="50.3365" y1="50.9326" x2="50.3365" y2="50.9326" gradientUnits="userSpaceOnUse">
<stop offset="1" stop-color="#DF5531"/>
<stop stop-color="#E20E56"/>
</linearGradient>
</defs>
</svg>
