<?xml version="1.0" encoding="utf-8"?>
<!-- Generator: Adobe Illustrator 26.0.0, SVG Export Plug-In . SVG Version: 6.00 Build 0)  -->
<svg version="1.1" id="Calque_1" xmlns="http://www.w3.org/2000/svg" xmlns:xlink="http://www.w3.org/1999/xlink" x="0px" y="0px"
	 viewBox="0 0 1372.4 147.5" style="enable-background:new 0 0 1372.4 147.5;" xml:space="preserve">
<style type="text/css">
	.st0{fill:none;stroke:#E04C34;stroke-width:2;stroke-miterlimit:10;}
</style>
<path class="st0" d="M343.6,74.2c0,33.3-27,72.3-60.3,72.3h-222C28,146.5,1,107.5,1,74.2"/>
<path class="st0" d="M343.6,74.5c0-33.3,27-72.3,60.3-72.3h222c33.3,0,60.3,39,60.3,72.3"/>
<path class="st0" d="M1028.8,73c0,33.3-27,72.3-60.3,72.3h-222c-33.3,0-60.3-39-60.3-72.3"/>
<path class="st0" d="M1028.8,73.3c0-33.3,27-72.3,60.3-72.3h222c33.3,0,60.3,39,60.3,72.3"/>
</svg>
