<?xml version="1.0" encoding="utf-8"?>
<!-- Generator: Adobe Illustrator 26.0.0, SVG Export Plug-In . SVG Version: 6.00 Build 0)  -->
<svg version="1.1" id="Calque_1" xmlns="http://www.w3.org/2000/svg" xmlns:xlink="http://www.w3.org/1999/xlink" x="0px" y="0px"
	 viewBox="0 0 1380.4 132.7" style="enable-background:new 0 0 1380.4 132.7;" xml:space="preserve">
<style type="text/css">
	.st0{fill:none;stroke:url(#SVGID_1_);stroke-width:10;stroke-linecap:round;stroke-miterlimit:10;}
</style>
<linearGradient id="SVGID_1_" gradientUnits="userSpaceOnUse" x1="0" y1="66.35" x2="1380.4001" y2="66.35">
	<stop  offset="0" style="stop-color:#E12948"/>
	<stop  offset="1" style="stop-color:#EFAC2D"/>
</linearGradient>
<path class="st0" d="M1375.4,66c0-28.1-27-61-60.3-61h-222c-33.3,0-60.3,32.9-60.3,61v-0.3c0,28.1-27,61-60.3,61h-222
	c-33.3,0-60.3-32.9-60.3-61l0,1.3c0-28.1-27-61-60.3-61h-222c-33.3,0-60.3,32.9-60.3,61v-0.3c0,28.1-27,61-60.3,61h-222
	C32,127.7,5,94.8,5,66.7"/>
</svg>
