<?xml version="1.0" encoding="utf-8"?>
<!-- Generator: Adobe Illustrator 26.0.0, SVG Export Plug-In . SVG Version: 6.00 Build 0)  -->
<svg version="1.1" id="Calque_1" xmlns="http://www.w3.org/2000/svg" xmlns:xlink="http://www.w3.org/1999/xlink" x="0px" y="0px"
	 viewBox="0 0 1372.4 147.5" style="enable-background:new 0 0 1372.4 147.5;" xml:space="preserve">
<style type="text/css">
	.st0{fill:none;stroke:#E04C34;stroke-width:2;stroke-miterlimit:10;}
</style>
<path class="st0" d="M343.6,63c0,28.2-27,61.3-60.3,61.3h-222C28,124.3,1,91.3,1,63"/>
<path class="st0" d="M343.6,63.3c0-28.2,27-61.3,60.3-61.3h222c33.3,0,60.3,33.1,60.3,61.3"/>
<path class="st0" d="M1028.8,62c0,28.2-27,61.3-60.3,61.3h-222c-33.3,0-60.3-33.1-60.3-61.3"/>
<path class="st0" d="M1028.8,62.3c0-28.2,27-61.3,60.3-61.3h222c33.3,0,60.3,33.1,60.3,61.3"/>
</svg>
