<?xml version="1.0" encoding="utf-8"?>
<!-- Generator: Adobe Illustrator 26.0.0, SVG Export Plug-In . SVG Version: 6.00 Build 0)  -->
<svg version="1.1" id="Calque_1" xmlns="http://www.w3.org/2000/svg" xmlns:xlink="http://www.w3.org/1999/xlink" x="0px" y="0px"
	 viewBox="0 0 1099 30.6" style="enable-background:new 0 0 1099 30.6;" xml:space="preserve">
<style type="text/css">
	.st0{fill:#E30E1D;}
	.st1{fill:#F0B100;}
	.st2{fill:#FFFFFF;}
</style>
<path class="st0" d="M1086.6,30.6H712.2c-6.8,0-12.4-5.5-12.4-12.4v-5.8c0-6.8,5.5-12.4,12.4-12.4l374.4,0c6.8,0,12.4,5.5,12.4,12.4
	v5.8C1099,25,1093.5,30.6,1086.6,30.6z"/>
<path class="st1" d="M737.6,30.6H363.1c-6.8,0-12.4-5.5-12.4-12.4v-5.8c0-6.8,5.5-12.4,12.4-12.4l374.4,0c6.8,0,12.4,5.5,12.4,12.4
	v5.8C750,25,744.4,30.6,737.6,30.6z"/>
<path class="st2" d="M386.8,30.6H12.4C5.5,30.6,0,25,0,18.2l0-5.8C0,5.5,5.5,0,12.4,0l374.4,0c6.8,0,12.4,5.5,12.4,12.4v5.8
	C399.2,25,393.7,30.6,386.8,30.6z"/>
</svg>
