<svg width="27" height="25" viewBox="0 0 27 25" fill="none" xmlns="http://www.w3.org/2000/svg">
<path d="M26.8452 0.752706C26.7798 0.493704 26.6178 0.276143 26.3889 0.139108C26.1601 0.002544 25.8916 -0.0370125 25.6096 0.0355078C25.2432 0.168776 24.8811 0.329356 24.542 0.507832C23.8973 0.813453 23.2098 1.16617 22.6555 1.4765C22.1055 1.78447 21.5437 2.13248 21.0078 2.47012L14.1368 0.717858L11.7822 0.115092L9.42764 0.717858L0.00941822 3.11951L0 9.18013C0 9.18013 0.26371 18.6407 9.42764 23.2557C10.1528 23.623 10.9346 23.9573 11.7775 24.254H11.7869C12.6298 23.9573 13.4116 23.623 14.1368 23.2557C23.3007 18.6407 23.5644 9.18013 23.5644 9.18013L23.5569 4.24545C23.6572 4.14656 23.7575 4.04673 23.863 3.95113C23.8983 3.91911 23.9388 3.88992 23.9788 3.86072C24.0292 3.82305 24.0786 3.78632 24.1238 3.74629C24.21 3.66953 24.2943 3.59089 24.3781 3.51177C24.4784 3.41806 24.5792 3.32435 24.6838 3.233C24.7436 3.18025 24.8067 3.13034 24.8693 3.07948C24.9329 3.02862 24.996 2.97776 25.0572 2.92455L25.6185 2.44469C25.6793 2.39242 25.7409 2.3425 25.8031 2.29211C25.8672 2.24078 25.9307 2.18946 25.9934 2.1353C26.0517 2.08491 26.1191 2.02935 26.1878 1.97284C26.3089 1.87253 26.4337 1.76893 26.5274 1.67993C26.6606 1.55043 26.7661 1.3988 26.841 1.22833L26.6211 1.13132L26.8594 1.17417C26.8848 1.03337 26.8801 0.891624 26.8452 0.752706ZM13.8853 21.8556C13.2467 22.1796 12.5601 22.4711 11.8448 22.7226L11.8166 22.733L11.7196 22.7226C11.0043 22.4711 10.3177 22.1796 9.67864 21.8552C1.80218 17.8892 1.48337 9.69013 1.48102 9.60819L1.48949 4.2577L11.7822 1.63095L19.411 3.5777C19.353 3.62526 19.2786 3.67235 19.2085 3.71521C19.1482 3.75241 19.0893 3.7882 19.0371 3.82634C18.9297 3.90404 18.828 3.98881 18.7215 4.06745L11.7822 2.29682L2.13652 4.75828L2.12852 9.67977C2.13087 9.75229 2.43838 17.5082 9.89573 21.2637C10.4867 21.5632 11.1215 21.834 11.7822 22.069C12.4434 21.834 13.0777 21.5632 13.6682 21.2637C21.0879 17.5275 21.4302 9.84506 21.4359 9.67647L21.4307 6.33442C21.4717 6.29156 21.5117 6.24683 21.5531 6.20444C21.6351 6.11874 21.7189 6.03727 21.8027 5.9558C21.8691 5.89082 21.935 5.8263 21.9996 5.76085L22.0773 5.68173L22.0834 9.60819C22.081 9.69013 21.7622 17.8892 13.8853 21.8556ZM26.2015 1.3404C26.1163 1.4214 25.9999 1.51699 25.8874 1.60976C25.8163 1.66863 25.7461 1.72655 25.6859 1.77882C25.6279 1.82874 25.5677 1.87724 25.5074 1.92575C25.4419 1.97849 25.376 2.03217 25.311 2.08774L24.7492 2.56854C24.6922 2.61798 24.6329 2.66508 24.574 2.71264C24.5062 2.76726 24.4384 2.82189 24.3739 2.8784C24.2651 2.97305 24.161 3.07053 24.0565 3.16801C23.975 3.2443 23.8936 3.32058 23.8107 3.39452C23.7768 3.42513 23.7382 3.45244 23.7 3.48116C23.6468 3.52025 23.5936 3.55981 23.547 3.60219C23.4076 3.72745 23.2738 3.86072 23.1425 3.99069C23.0511 4.08158 22.9602 4.17199 22.8693 4.25723L22.7379 4.37731C22.681 4.42864 22.624 4.47997 22.5684 4.53318C22.3768 4.71636 22.1912 4.89861 22.0024 5.08603L21.6643 5.43074C21.6016 5.49384 21.5381 5.556 21.474 5.61816C21.3864 5.70387 21.2984 5.78957 21.2141 5.8781C19.9822 7.14203 18.819 8.49684 17.776 9.88273C17.7105 9.9496 17.6592 10.0292 17.6253 10.1163C17.5937 10.1413 17.5664 10.1686 17.5476 10.1935C17.282 10.4761 17.006 10.8985 16.763 11.271C16.6604 11.4278 16.5624 11.578 16.4715 11.7075L16.2832 11.9839C16.2125 12.0861 16.1447 12.1921 16.0778 12.2962L15.9441 12.5015C15.8947 12.5749 15.8306 12.6536 15.7638 12.735C15.622 12.9088 15.4647 13.1024 15.3856 13.3119C15.3611 13.3289 15.3357 13.3505 15.3103 13.3788C15.1252 13.642 14.9566 13.9203 14.8182 14.1869C14.5653 14.581 14.3246 14.9785 14.084 15.3769L13.8038 15.8388C13.7337 15.9537 13.6451 16.1119 13.5476 16.2857C13.3334 16.669 13.04 17.1936 12.8681 17.3716C12.8361 17.4004 12.7146 17.4917 12.6826 17.5124C12.4815 17.6372 12.2498 17.7088 11.9998 17.7178C11.7224 17.7427 11.4398 17.6914 11.1903 17.5704C11.1747 17.5609 11.1597 17.5463 11.1432 17.5322C11.0975 17.4931 11.0405 17.4437 10.9675 17.4098C10.6007 16.9177 10.2692 16.3936 9.97672 15.8421L8.62945 13.5412C8.60637 13.5026 8.58047 13.4645 8.55646 13.4292C8.54139 13.4075 8.52726 13.3873 8.5169 13.3703C8.34784 13.0802 8.18067 12.7817 8.01255 12.4817C7.85762 12.2043 7.70222 11.9265 7.544 11.6543C7.47148 11.529 7.3966 11.4047 7.32173 11.2799C7.24544 11.1537 7.16868 11.0266 7.09522 10.8994L6.83292 10.4535C6.79572 10.3894 6.7604 10.3226 6.72508 10.2557C6.68741 10.1836 6.6488 10.1116 6.60877 10.0419C6.49292 9.84223 6.36436 9.63409 6.23439 9.42406C6.02248 9.08265 5.80398 8.72947 5.63634 8.39606C5.53085 8.21005 5.48706 7.99155 5.51154 7.77964C5.53462 7.71984 5.56334 7.66427 5.59348 7.61341C5.63069 7.55502 5.67495 7.50086 5.72157 7.44953C6.03331 7.22114 6.36201 7.013 6.66151 6.84912C6.89179 6.77849 7.14231 6.78837 7.34056 6.86513C7.44558 6.92305 7.544 6.99322 7.64006 7.07987C7.95086 7.33887 8.29086 7.66992 8.61956 7.99014C8.7938 8.1592 8.96521 8.32637 9.12861 8.47894L11.187 10.4007C11.2435 10.4544 11.2957 10.5175 11.3485 10.5811C11.4521 10.7049 11.5693 10.8448 11.7224 10.9428C11.8703 11.0647 12.0195 11.019 12.1344 10.907C12.4292 10.5251 12.7739 10.1196 13.1874 9.668C15.0381 7.65061 17.0993 5.81359 19.3125 4.20825C19.3554 4.17717 19.4044 4.1475 19.4543 4.1169C19.5876 4.03543 19.7354 3.94454 19.8414 3.81363C19.9864 3.76607 20.0834 3.67235 20.1583 3.59983C20.1856 3.57346 20.211 3.54662 20.2402 3.52731L20.4856 3.36579C20.665 3.24759 20.8463 3.12751 21.0248 3.01402L21.1359 2.94527C21.7001 2.58832 22.3028 2.21347 22.8853 1.8876C23.4307 1.58245 24.1083 1.23445 24.7525 0.929297C25.0817 0.755531 25.424 0.603898 25.7475 0.484757C26.0315 0.416475 26.3173 0.585532 26.3884 0.867608C26.4045 0.93071 26.4082 0.995696 26.4002 1.05974C26.3508 1.16617 26.2834 1.26082 26.2015 1.3404Z" fill="#0A5401"/>
</svg>
