<svg width="21" height="24" viewBox="0 0 21 24" fill="none" xmlns="http://www.w3.org/2000/svg">
<mask id="mask0_151_2508" style="mask-type:alpha" maskUnits="userSpaceOnUse" x="0" y="0" width="21" height="24">
<rect width="20.4434" height="23.2288" fill="#707070"/>
</mask>
<g mask="url(#mask0_151_2508)">
<path d="M11.3052 0C14.255 0.590733 16.4802 2.6743 17.0602 5.65295C17.115 5.93428 17.1407 6.9932 17.2339 7.13102C17.272 7.18718 18.1551 7.39707 18.4802 7.63989C19.6535 8.51649 19.5936 10.7794 19.4601 12.1296C19.2318 14.4408 17.372 14.5796 15.4511 14.4703C15.1274 15.2909 14.4959 15.9181 13.9895 16.6203C16.4918 17.2764 20.0653 17.5499 20.3892 20.8037C20.4553 21.4666 20.5667 22.8575 19.9773 23.2288H0.46514C-0.127968 22.8518 -0.00893336 21.476 0.0539391 20.8044C0.3587 17.5473 3.96814 17.2827 6.45279 16.6202C5.94661 15.9182 5.31489 15.2908 4.99134 14.4703C3.30349 14.5919 1.26875 14.4463 1.08044 12.3413C1.0056 11.5046 0.988355 9.2212 1.28878 8.51504C1.66075 7.64061 2.45187 7.26461 3.34231 7.10965C3.28583 4.38951 4.76514 1.89908 7.17102 0.666407L9.13721 0H11.3052ZM15.6402 6.19382C14.9268 0.058743 6.06854 -0.227229 4.90276 5.83155L5.98718 4.3348C8.52356 1.68765 12.8358 1.99437 14.9631 4.96259L15.6402 6.19382ZM14.6079 8.15577C14.4021 4.59806 10.2505 2.58717 7.43676 4.95857C6.59929 5.66441 5.82809 6.81769 5.98791 7.94888C6.4085 7.62822 6.91458 6.79952 7.43965 6.71641C9.13112 6.8529 11.155 6.51334 12.8045 6.70826C13.5178 6.7925 14.0098 7.79382 14.6079 8.15577ZM6.86606 14.7641C7.52606 15.7314 8.9742 17.1452 10.2212 17.1452C11.5876 17.1452 13.556 15.1843 14.1115 14.0077C14.4484 13.2936 14.859 10.8914 14.5554 10.2226C14.495 10.0896 12.6113 8.21864 12.4713 8.17704C10.8758 8.18705 9.23498 8.04603 7.66038 8.25323C7.44234 8.78584 5.97449 9.78664 5.85473 10.1902C5.75841 10.5147 5.86815 13.0745 6.05842 13.197C6.58494 13.1544 7.81462 13.6272 8.23862 13.53C8.30159 13.5154 8.67955 12.8713 9.23333 12.7429C9.63038 12.6508 10.7218 12.6487 11.1264 12.7223C12.3601 12.9471 12.8514 14.5705 11.9811 15.4907C11.2944 16.2169 9.2262 16.2217 8.51313 15.5425C8.34186 15.3795 8.21601 15.007 8.18865 14.9891C8.03162 14.8859 7.13365 14.8969 6.86606 14.7641ZM4.38822 8.56883C3.83981 8.55087 2.84635 8.46157 2.58371 9.08719C2.46808 9.36253 2.48594 12.2838 2.60766 12.5691C2.88558 13.2206 3.8361 12.9613 4.38822 13.0081V8.56883ZM16.0542 13.0081C16.6677 12.9706 17.5698 13.2184 17.885 12.516C18.1108 12.0125 18.1131 9.38246 17.7971 8.94235C17.4328 8.43493 16.592 8.58504 16.0542 8.56883V13.0081ZM8.62101 21.8867L5.57898 18.3122C3.54754 18.7832 1.05092 19.1551 1.49753 21.8867H8.62101ZM18.9449 21.8867C19.386 19.1513 16.9018 18.7763 14.8635 18.3122L11.8214 21.8867H18.9449ZM10.0314 18.5974C9.88807 18.6446 9.2675 20.1314 9.28174 20.2866C9.30724 20.5628 10.0836 21.1567 10.2212 21.4717C10.3588 21.1567 11.1352 20.5628 11.1607 20.2866C11.1685 20.2009 10.5956 18.7468 10.5341 18.6837C10.409 18.5548 10.1938 18.5438 10.0314 18.5974Z" fill="#707070"/>
</g>
</svg>
