<svg width="160" height="950" viewBox="0 0 160 950" fill="none" xmlns="http://www.w3.org/2000/svg">
<path d="M79.9999 159C123.575 159 158.9 194.325 158.9 237.9C158.9 281.475 123.575 316.8 79.9999 316.8" stroke="#E12948" stroke-width="2"/>
<path d="M79.9 1C36.3247 1 0.999969 36.3247 0.999969 79.9001C0.999969 123.475 36.3247 158.8 79.9 158.8" stroke="#F5BF2A" stroke-width="2"/>
<path d="M79.9999 475C123.575 475 158.9 510.325 158.9 553.9C158.9 597.475 123.575 632.8 79.9999 632.8" stroke="#E12948" stroke-width="2"/>
<path d="M79.9 317C36.3247 317 0.999969 352.325 0.999969 395.9C0.999969 439.475 36.3247 474.8 79.9 474.8" stroke="#F5BF2A" stroke-width="2"/>
<path d="M79.9999 791C123.575 791 158.9 826.325 158.9 869.9C158.9 913.475 123.575 948.8 79.9999 948.8" stroke="#E12948" stroke-width="2"/>
<path d="M79.9 633C36.3247 633 0.999969 668.325 0.999969 711.9C0.999969 755.475 36.3247 790.8 79.9 790.8" stroke="#F5BF2A" stroke-width="2"/>
</svg>
