<svg width="20" height="18" viewBox="0 0 20 18" fill="none" xmlns="http://www.w3.org/2000/svg">
<mask id="mask0_151_2503" style="mask-type:alpha" maskUnits="userSpaceOnUse" x="0" y="0" width="20" height="18">
<rect width="19.4191" height="18" fill="white"/>
</mask>
<g mask="url(#mask0_151_2503)">
<path d="M10.9869 9.91413L14.3247 6.59878C15.3523 5.87493 16.607 6.99709 15.9102 8.09345C15.7696 8.31459 15.5838 8.42064 15.4132 8.59577C13.7315 10.3217 12.0101 12.0002 10.3072 13.7084C10.0037 13.9219 9.4917 13.9258 9.1751 13.7466C7.25469 11.8758 5.3306 9.98307 3.48372 8.03823C2.85706 6.96353 4.13223 5.85526 5.12881 6.62031C6.2146 7.54046 7.21318 8.93349 8.30686 9.80063C8.35596 9.83955 8.36264 9.90264 8.4214 9.82352L8.42435 1.23318C8.51369 -0.34987 10.7456 -0.404007 10.9796 1.0432L10.9869 9.91413Z" fill="white"/>
<path d="M0.431181 17.1544C-0.0442888 16.5296 -0.0435621 15.2165 0.0464997 14.438C0.145418 13.5831 1.09095 13.2773 1.79137 13.6825C2.42349 14.0483 2.12955 14.6954 2.28778 15.2753C2.40164 15.6924 2.77292 15.9859 3.1978 16.0457L16.2321 16.0448C16.7687 15.9728 17.1425 15.5549 17.2043 15.0186C17.253 14.5968 17.0986 14.2342 17.4181 13.8699C17.9976 13.2087 19.2646 13.472 19.3853 14.3916C19.4484 14.8715 19.4272 16.1992 19.2862 16.6463C19.0563 17.3748 18.3278 17.8799 17.5897 17.9928L1.92481 18C1.30741 17.9409 0.802555 17.6424 0.431181 17.1544Z" fill="white"/>
</g>
</svg>
