<svg width="109" height="18" viewBox="0 0 109 18" fill="none" xmlns="http://www.w3.org/2000/svg">
<path d="M9.54986 14L9.00986 12.182H4.81586L4.27586 14H0.783859L4.94186 1.4H8.86586L13.0239 14H9.54986ZM5.64386 9.41H8.18186L6.90386 5.126L5.64386 9.41ZM16.0916 14.252C15.5636 14.252 15.1136 14.072 14.7416 13.712C14.3816 13.34 14.2016 12.896 14.2016 12.38C14.2016 11.864 14.3876 11.426 14.7596 11.066C15.1316 10.694 15.5756 10.508 16.0916 10.508C16.6076 10.508 17.0456 10.694 17.4056 11.066C17.7776 11.426 17.9636 11.864 17.9636 12.38C17.9636 12.896 17.7776 13.34 17.4056 13.712C17.0456 14.072 16.6076 14.252 16.0916 14.252ZM26.8027 1.4H30.0067V14H27.5227L23.0767 7.664V14H19.8547V1.4H22.3567L26.8027 7.736V1.4ZM33.8012 14.252C33.2732 14.252 32.8232 14.072 32.4512 13.712C32.0912 13.34 31.9112 12.896 31.9112 12.38C31.9112 11.864 32.0972 11.426 32.4692 11.066C32.8412 10.694 33.2852 10.508 33.8012 10.508C34.3172 10.508 34.7552 10.694 35.1152 11.066C35.4872 11.426 35.6732 11.864 35.6732 12.38C35.6732 12.896 35.4872 13.34 35.1152 13.712C34.7552 14.072 34.3172 14.252 33.8012 14.252ZM41.8705 14.27C40.5385 14.27 39.4345 13.988 38.5585 13.424C37.6825 12.86 37.0705 12.098 36.7225 11.138L39.4765 9.536C39.9445 10.652 40.7725 11.21 41.9605 11.21C42.9445 11.21 43.4365 10.928 43.4365 10.364C43.4365 9.992 43.1545 9.692 42.5905 9.464C42.3505 9.368 41.8225 9.206 41.0065 8.978C39.8545 8.642 38.9425 8.174 38.2705 7.574C37.5985 6.962 37.2625 6.116 37.2625 5.036C37.2625 3.872 37.6765 2.93 38.5045 2.21C39.3445 1.49 40.3885 1.13 41.6365 1.13C42.6925 1.13 43.6285 1.376 44.4445 1.868C45.2605 2.36 45.8845 3.074 46.3165 4.01L43.6165 5.594C43.2205 4.658 42.5665 4.19 41.6545 4.19C41.2705 4.19 40.9765 4.268 40.7725 4.424C40.5805 4.58 40.4845 4.778 40.4845 5.018C40.4845 5.294 40.6285 5.528 40.9165 5.72C41.2165 5.912 41.7925 6.134 42.6445 6.386C43.2565 6.566 43.7485 6.734 44.1205 6.89C44.4925 7.046 44.9005 7.274 45.3445 7.574C45.7885 7.862 46.1185 8.24 46.3345 8.708C46.5505 9.164 46.6585 9.704 46.6585 10.328C46.6585 11.564 46.2205 12.53 45.3445 13.226C44.4685 13.922 43.3105 14.27 41.8705 14.27Z" fill="#707070"/>
<path d="M57.486 1.4C59.226 1.4 60.678 2.006 61.842 3.218C63.018 4.418 63.606 5.912 63.606 7.7C63.606 9.488 63.018 10.988 61.842 12.2C60.678 13.4 59.226 14 57.486 14H52.356V1.4H57.486ZM57.486 10.886C58.362 10.886 59.076 10.598 59.628 10.022C60.18 9.434 60.456 8.66 60.456 7.7C60.456 6.74 60.18 5.972 59.628 5.396C59.076 4.808 58.362 4.514 57.486 4.514H55.668V10.886H57.486ZM67.8181 10.598C68.1181 11.33 68.7901 11.696 69.8341 11.696C70.4821 11.696 71.0281 11.486 71.4721 11.066L73.6321 12.578C72.7441 13.694 71.4541 14.252 69.7621 14.252C68.2381 14.252 67.0141 13.808 66.0901 12.92C65.1781 12.02 64.7221 10.886 64.7221 9.518C64.7221 8.162 65.1721 7.028 66.0721 6.116C66.9721 5.204 68.1181 4.748 69.5101 4.748C70.8541 4.748 71.9641 5.198 72.8401 6.098C73.7161 6.998 74.1541 8.126 74.1541 9.482C74.1541 9.878 74.1121 10.25 74.0281 10.598H67.8181ZM67.7821 8.528H71.2381C70.9981 7.688 70.4341 7.268 69.5461 7.268C68.6221 7.268 68.0341 7.688 67.7821 8.528ZM78.1277 7.628C78.1277 7.796 78.2777 7.934 78.5777 8.042C78.8897 8.15 79.2617 8.252 79.6937 8.348C80.1377 8.444 80.5757 8.582 81.0077 8.762C81.4517 8.93 81.8237 9.224 82.1237 9.644C82.4357 10.064 82.5917 10.592 82.5917 11.228C82.5917 12.26 82.2077 13.022 81.4397 13.514C80.6717 14.006 79.7597 14.252 78.7037 14.252C76.6877 14.252 75.3437 13.538 74.6717 12.11L77.2817 10.796C77.5097 11.456 77.9777 11.786 78.6857 11.786C79.2257 11.786 79.4957 11.624 79.4957 11.3C79.4957 11.132 79.3457 10.994 79.0457 10.886C78.7457 10.778 78.3797 10.67 77.9477 10.562C77.5157 10.454 77.0837 10.31 76.6517 10.13C76.2197 9.95 75.8537 9.662 75.5537 9.266C75.2537 8.858 75.1037 8.36 75.1037 7.772C75.1037 6.812 75.4577 6.068 76.1657 5.54C76.8737 5.012 77.7257 4.748 78.7217 4.748C80.4977 4.748 81.7337 5.444 82.4297 6.836L79.9097 7.97C79.6457 7.454 79.2737 7.196 78.7937 7.196C78.3497 7.196 78.1277 7.34 78.1277 7.628ZM86.636 3.758C86.3 4.094 85.898 4.262 85.43 4.262C84.962 4.262 84.554 4.094 84.206 3.758C83.87 3.41 83.702 3.002 83.702 2.534C83.702 2.066 83.87 1.664 84.206 1.328C84.554 0.991999 84.962 0.823999 85.43 0.823999C85.898 0.823999 86.3 0.991999 86.636 1.328C86.984 1.664 87.158 2.066 87.158 2.534C87.158 3.002 86.984 3.41 86.636 3.758ZM83.936 14V5H86.924V14H83.936ZM95.2533 5H98.2053V13.64C98.2053 14.36 98.0673 14.996 97.7913 15.548C97.5273 16.112 97.1673 16.556 96.7113 16.88C96.2553 17.216 95.7513 17.462 95.1993 17.618C94.6593 17.786 94.0833 17.87 93.4713 17.87C92.4753 17.87 91.5873 17.684 90.8073 17.312C90.0273 16.94 89.4393 16.394 89.0433 15.674L91.5273 14.234C91.9593 14.918 92.5953 15.26 93.4353 15.26C93.9753 15.26 94.4133 15.122 94.7493 14.846C95.0853 14.57 95.2533 14.168 95.2533 13.64V12.776C94.6413 13.52 93.8013 13.892 92.7333 13.892C91.4973 13.892 90.4713 13.448 89.6553 12.56C88.8513 11.672 88.4493 10.592 88.4493 9.32C88.4493 8.048 88.8513 6.968 89.6553 6.08C90.4713 5.192 91.4973 4.748 92.7333 4.748C93.8013 4.748 94.6413 5.12 95.2533 5.864V5ZM91.9593 10.67C92.3193 11.018 92.7813 11.192 93.3453 11.192C93.9093 11.192 94.3653 11.018 94.7133 10.67C95.0733 10.31 95.2533 9.86 95.2533 9.32C95.2533 8.78 95.0733 8.336 94.7133 7.988C94.3653 7.628 93.9093 7.448 93.3453 7.448C92.7813 7.448 92.3193 7.628 91.9593 7.988C91.6113 8.336 91.4373 8.78 91.4373 9.32C91.4373 9.86 91.6113 10.31 91.9593 10.67ZM105.606 4.748C106.578 4.748 107.37 5.084 107.982 5.756C108.606 6.416 108.918 7.37 108.918 8.618V14H105.93V8.996C105.93 8.528 105.804 8.174 105.552 7.934C105.312 7.694 104.988 7.574 104.58 7.574C104.112 7.574 103.746 7.718 103.482 8.006C103.23 8.282 103.104 8.684 103.104 9.212V14H100.116V5H103.104V5.9C103.644 5.132 104.478 4.748 105.606 4.748Z" fill="#E21C4F"/>
</svg>
