<svg xmlns="http://www.w3.org/2000/svg" viewBox="0 0 147.49 137.34"><defs><style>.cls-1{fill:#717070;}</style></defs><g id="Calque_2" data-name="Calque 2"><g id="Calque_1-2" data-name="Calque 1"><path class="cls-1" d="M100.47,124.14h-.27c-6.12,0-10.74-1.73-13.73-5s-4.24-8-3.7-14a32.55,32.55,0,0,1,5-14.27l12.35-19.61,13.56,18.56a29.29,29.29,0,0,1,5.82,16.49c.15,5.49-1.31,9.83-4.32,12.91C111.91,122.47,107,124.14,100.47,124.14Zm-.13-45.81L91.13,93a28.33,28.33,0,0,0-4.37,12.49c-.44,4.84.46,8.54,2.67,11s5.84,3.69,10.8,3.72h.24c5.39,0,9.36-1.27,11.82-3.77,2.23-2.28,3.3-5.64,3.18-10a25.31,25.31,0,0,0-5-14.24Z"/><path class="cls-1" d="M147.49,69.32h-14v-5h9V26.51A21.53,21.53,0,0,0,121,5H5V64.32H67.71v5H0V0H121a26.53,26.53,0,0,1,26.5,26.51Z"/><path class="cls-1" d="M38.24,69.32H0V0H17.57A20.7,20.7,0,0,1,38.24,20.68ZM5,64.32H33.24V20.68A15.69,15.69,0,0,0,17.57,5H5Z"/><path class="cls-1" d="M30.51,137.34H8a2.5,2.5,0,1,1,0-5h8.58V66.82a2.5,2.5,0,0,1,5,0v65.52h8.89a2.5,2.5,0,0,1,0,5Z"/><path class="cls-1" d="M133.61,134H68.52a2.48,2.48,0,0,1-2.5-2.51c0-.34.22-33.95,0-57.44-.21-21-18.26-21.74-19-21.76a2.5,2.5,0,0,1,.06-5h.45c10.94.1,48.11.4,67.13,0,6.75-.14,12.08,1.88,15.83,6,6.66,7.31,5.8,18.65,5.65,20.18v58A2.5,2.5,0,0,1,133.61,134ZM71,129h60.08V73.29a2.81,2.81,0,0,1,0-.29c0-.1,1.1-10.43-4.37-16.41-2.74-3-6.74-4.46-12-4.35-13.9.3-37.45.22-53.44.12C66.38,56.12,70.91,62.64,71,74,71.21,93.74,71.08,120.68,71,129Z"/><path class="cls-1" d="M101.07,123.14a1,1,0,0,1-1-1V97a1,1,0,0,1,2,0v25.15A1,1,0,0,1,101.07,123.14Z"/><path class="cls-1" d="M101.07,117.52c-4.35,0-9-10.5-9.93-12.6a1,1,0,0,1,1.84-.79c2,4.73,5.85,11.39,8.09,11.39a1,1,0,0,1,0,2Z"/><path class="cls-1" d="M101.07,117.52a1,1,0,0,1,0-2c2.23,0,6.07-6.66,8.08-11.39a1,1,0,0,1,1.31-.52,1,1,0,0,1,.53,1.31C110.1,107,105.41,117.52,101.07,117.52Z"/></g></g></svg>