<svg xmlns="http://www.w3.org/2000/svg" viewBox="0 0 182.25 136.82"><defs><style>.cls-1{fill:#717070;}</style></defs><g id="Calque_2" data-name="Calque 2"><g id="Calque_1-2" data-name="Calque 1"><circle class="cls-1" cx="141.39" cy="20.35" r="6.16"/><circle class="cls-1" cx="159.45" cy="20.35" r="6.16"/><path class="cls-1" d="M165.41,59.74H144.75v-5h20.66A11.85,11.85,0,0,0,177.25,42.9V16.83A11.85,11.85,0,0,0,165.41,5H16.83A11.85,11.85,0,0,0,5,16.83V42.9A11.85,11.85,0,0,0,16.83,54.74H38.62v5H16.83A16.86,16.86,0,0,1,0,42.9V16.83A16.85,16.85,0,0,1,16.83,0H165.41a16.85,16.85,0,0,1,16.84,16.83V42.9A16.86,16.86,0,0,1,165.41,59.74Z"/><path class="cls-1" d="M35.64,136.82h-25a2.5,2.5,0,1,1,0-5H20.85V57.24a2.5,2.5,0,0,1,5,0v74.58h9.79a2.5,2.5,0,0,1,0,5Z"/><path class="cls-1" d="M169.69,136.82H144.75a2.5,2.5,0,0,1,0-5h10.16V57.24a2.5,2.5,0,0,1,5,0v74.58h9.78a2.5,2.5,0,0,1,0,5Z"/><rect class="cls-1" x="2.87" y="32.02" width="176.88" height="5"/><path class="cls-1" d="M139.62,118.2H43.74a7.63,7.63,0,0,1-7.62-7.63V32H147.25v78.55A7.64,7.64,0,0,1,139.62,118.2ZM41.12,37v73.55a2.62,2.62,0,0,0,2.62,2.63h95.88a2.63,2.63,0,0,0,2.63-2.63V37Z"/></g></g></svg>