<svg xmlns="http://www.w3.org/2000/svg" viewBox="0 0 153.67 136.38"><defs><style>.cls-1{fill:#717070;}</style></defs><g id="Calque_2" data-name="Calque 2"><g id="Calque_1-2" data-name="Calque 1"><path class="cls-1" d="M139,119.38H119.86v-5H139c3.26,0,6-2,6-4.36V67.25c0-2.37-2.76-4.36-6-4.36h-126c-3.26,0-6,2-6,4.36V110c0,2.36,2.75,4.36,6,4.36H32v5H12.94c-6.07,0-11-4.2-11-9.36V67.25c0-5.16,4.94-9.36,11-9.36H139c6.08,0,11,4.2,11,9.36V110C150,115.18,145,119.38,139,119.38Z"/><path class="cls-1" d="M114.86,101v30.42H37V101h77.83m5-5H32v39.42a1,1,0,0,0,1,1h85.84a1,1,0,0,0,1-1V96Z"/><circle class="cls-1" cx="30.54" cy="77.32" r="6.91"/><circle class="cls-1" cx="49.31" cy="77.32" r="6.91"/><path class="cls-1" d="M126.92,101.62H23.63a2.5,2.5,0,1,1,0-5H126.92a2.5,2.5,0,0,1,0,5Z"/><path class="cls-1" d="M37.45,62.89a2.5,2.5,0,0,1-2.5-2.5V48.53l-6.57,6.95a2.5,2.5,0,0,1-2.9.54L1.42,44.51a2.51,2.51,0,0,1-.84-3.86L33.71.9A2.49,2.49,0,0,1,35.63,0H57.49A2.49,2.49,0,0,1,60,2.21c.09.73,2.38,18,16.71,17.14a2.5,2.5,0,1,1,.31,5C63.08,25.23,57,13.11,55.36,5H36.8L6.48,41.39,26,50.72l9.64-10.18A2.49,2.49,0,0,1,40,42.25V60.39A2.5,2.5,0,0,1,37.45,62.89Z"/><path class="cls-1" d="M116.21,62.89a2.5,2.5,0,0,1-2.5-2.5V42.25A2.5,2.5,0,0,1,118,40.54l9.64,10.18,19.52-9.33L116.87,5H98.22c-1.87,7.62-8.07,19.21-21.36,19.34h0a2.5,2.5,0,0,1,0-5c14-.14,16.78-16.53,16.9-17.23A2.5,2.5,0,0,1,96.17,0H118A2.51,2.51,0,0,1,120,.9l33.13,39.75a2.54,2.54,0,0,1,.52,2.14,2.51,2.51,0,0,1-1.37,1.72L128.18,56a2.49,2.49,0,0,1-2.89-.54l-6.58-6.95V60.39A2.5,2.5,0,0,1,116.21,62.89Z"/></g></g></svg>