<svg xmlns="http://www.w3.org/2000/svg" viewBox="0 0 151.96 139.45"><defs><style>.cls-1{fill:#717070;}</style></defs><g id="Calque_2" data-name="Calque 2"><g id="Calque_1-2" data-name="Calque 1"><path class="cls-1" d="M117.92,123H20.12a2.5,2.5,0,0,1-2.5-2.5V22.73a2.5,2.5,0,0,1,2.5-2.5h97.8a2.5,2.5,0,0,1,2.5,2.5v97.74A2.5,2.5,0,0,1,117.92,123Zm-95.3-5h92.8V25.23H22.62Z"/><path class="cls-1" d="M117.92,79.1H6.92a2.5,2.5,0,0,1-2.5-2.5V47.73a2.5,2.5,0,0,1,2.5-2.5h111a2.5,2.5,0,0,1,2.5,2.5V76.6A2.5,2.5,0,0,1,117.92,79.1Zm-108.5-5h106V50.23H9.42Z"/><path class="cls-1" d="M117.92,101.38a2.5,2.5,0,0,1-1.07-4.76l31.54-15a2.5,2.5,0,0,1,2.14,4.52l-31.54,15A2.4,2.4,0,0,1,117.92,101.38Z"/><path class="cls-1" d="M29.32,7.39a2.66,2.66,0,0,0-2.4.58L1.17,31.37a4.32,4.32,0,0,0,0,5.91,5.17,5.17,0,0,0,5.75,1l29.48-26A1.68,1.68,0,0,0,37,11.07v-.25a2,2,0,0,0-1.56-1.89Z"/><path class="cls-1" d="M40.33,139.45a10.52,10.52,0,1,1,10.51-10.52A10.53,10.53,0,0,1,40.33,139.45Zm0-16a5.52,5.52,0,1,0,5.51,5.51A5.52,5.52,0,0,0,40.33,123.42Z"/><path class="cls-1" d="M96.9,139.45a10.52,10.52,0,1,1,10.51-10.52A10.52,10.52,0,0,1,96.9,139.45Zm0-16a5.52,5.52,0,1,0,5.51,5.51A5.51,5.51,0,0,0,96.9,123.42Z"/><path class="cls-1" d="M113.15,25.23H73.67a2.49,2.49,0,0,1-2.5-2.5V10.54A10.55,10.55,0,0,1,81.7,0h31.45a2.5,2.5,0,0,1,2.5,2.5V22.73A2.5,2.5,0,0,1,113.15,25.23Zm-37-5h34.48V5H81.7a5.54,5.54,0,0,0-5.53,5.54Z"/></g></g></svg>