<svg xmlns="http://www.w3.org/2000/svg" viewBox="0 0 148.04 139.66"><defs><style>.cls-1{fill:#717070;}</style></defs><g id="Calque_2" data-name="Calque 2"><g id="Calque_1-2" data-name="Calque 1"><path class="cls-1" d="M129.1,102.64H117.93v-5H129.1a14,14,0,0,0,13.94-14V46.44A14,14,0,0,0,129.1,32.5H18.94A14,14,0,0,0,5,46.44V83.69a14,14,0,0,0,13.94,14H30.11v5H18.94A19,19,0,0,1,0,83.69V46.44A19,19,0,0,1,18.94,27.5H129.1A19,19,0,0,1,148,46.44V83.69A19,19,0,0,1,129.1,102.64Z"/><path class="cls-1" d="M111.29,5a1.65,1.65,0,0,1,1.65,1.64V27.55H35.1V6.64A1.65,1.65,0,0,1,36.75,5h74.54m0-5H36.75A6.64,6.64,0,0,0,30.1,6.64V32.55h87.84V6.64A6.64,6.64,0,0,0,111.29,0Z"/><path class="cls-1" d="M112.94,72.85V133a1.65,1.65,0,0,1-1.65,1.64H36.75A1.65,1.65,0,0,1,35.1,133V72.85h77.84m5-5H30.1V133a6.64,6.64,0,0,0,6.65,6.64h74.54a6.64,6.64,0,0,0,6.65-6.64V67.85Z"/><circle class="cls-1" cx="119.29" cy="49.67" r="8.84"/><circle class="cls-1" cx="102.44" cy="49.67" r="5.39"/><path class="cls-1" d="M125,72.51H21.7a2.5,2.5,0,0,1,0-5H125a2.5,2.5,0,0,1,0,5Z"/><path class="cls-1" d="M75.65,125.2h-.23c-5.31,0-9.32-1.52-11.92-4.39s-3.7-7-3.23-12.17a28,28,0,0,1,4.28-12.29L75.31,79.26,87.12,95.43a25.3,25.3,0,0,1,5,14.22c.12,4.76-1.14,8.54-3.77,11.22C85.55,123.74,81.27,125.2,75.65,125.2Zm-.1-38.82-7.61,12.1A23.89,23.89,0,0,0,64.26,109c-.37,4,.37,7.11,2.2,9.12s4.85,3,9,3.08h.2c4.51,0,7.83-1.06,9.86-3.13,1.84-1.88,2.73-4.68,2.63-8.31a21.27,21.27,0,0,0-4.25-12Z"/><path class="cls-1" d="M73.75,117.63h-.07a6.07,6.07,0,0,1-4.77-2.47c-2.45-3.43-1-9.11-.93-9.35a1,1,0,1,1,1.93.51c0,.05-1.28,5,.63,7.68a4.11,4.11,0,0,0,3.28,1.63,1,1,0,0,1-.07,2Z"/></g></g></svg>